<svg width="48" height="48" viewBox="0 0 48 48" fill="none" xmlns="http://www.w3.org/2000/svg">
<g clip-path="url(#clip0_44_862)">
<path d="M15.0209 12.6806H13.9092C13.5209 12.6806 13.2061 12.9954 13.2061 13.3838C13.2061 13.7721 13.5209 14.0869 13.9092 14.0869H15.0209C15.4092 14.0869 15.724 13.7721 15.724 13.3838C15.724 12.9954 15.4092 12.6806 15.0209 12.6806Z" fill="#3F457A"/>
<path d="M33.6816 14.0868H34.7933C35.1816 14.0868 35.4965 13.772 35.4965 13.3837C35.4965 12.9954 35.1817 12.6805 34.7933 12.6805H33.6816C33.2933 12.6805 32.9785 12.9954 32.9785 13.3837C32.9785 13.772 33.2933 14.0868 33.6816 14.0868Z" fill="#3F457A"/>
<path d="M47.9982 21.0628C47.9432 19.5468 46.6411 18.3134 45.0954 18.3134H36.7361C35.9746 18.3134 35.2583 18.6102 34.7191 19.1494C34.1801 19.6884 33.8833 20.4047 33.8833 21.1661C33.8833 21.8721 34.1436 22.5496 34.6157 23.0733C35.2311 23.7578 35.2884 24.9168 34.7424 25.6082C34.731 25.6219 34.7197 25.6358 34.7084 25.6503C34.13 26.362 33.2444 26.6936 32.3562 26.5627V25.627C32.3562 24.2013 31.4063 22.9937 30.1063 22.6025V21.2317C30.1063 18.9934 31.9268 17.1725 34.1645 17.1725C35.1248 17.1725 35.9928 16.7723 36.6124 16.1306C36.6374 16.1265 36.665 16.1226 36.6961 16.1185C37.5173 16.0153 38.336 16.3605 38.835 17.0192C38.9689 17.1959 39.1769 17.2977 39.3953 17.2977C39.4239 17.2977 39.4527 17.2959 39.4816 17.2924C39.7304 17.2616 39.944 17.1008 40.0423 16.87C40.2976 16.2702 40.3895 15.6083 40.3077 14.9551C40.0838 13.1811 38.6281 11.825 36.8693 11.7035C36.2465 10.8899 35.266 10.3638 34.1644 10.3638H26.9226C25.8961 10.3638 25.0609 11.199 25.0609 12.2256C25.0609 12.7228 25.2545 13.1903 25.6062 13.5421C25.7622 13.6981 25.9411 13.823 26.1357 13.9135C25.2042 14.9333 24.4831 16.1114 24.0006 17.3848C23.5181 16.1114 22.797 14.9333 21.8656 13.9135C22.06 13.823 22.2391 13.6981 22.3951 13.5421C22.7467 13.1904 22.9403 12.7229 22.9403 12.2256C22.9403 11.199 22.1051 10.3638 21.0785 10.3638H13.8367C12.7355 10.3638 11.7553 10.8895 11.1325 11.7027C9.36915 11.8195 7.90787 13.1777 7.68343 14.9558C7.60168 15.6083 7.69346 16.2702 7.94884 16.87C8.04709 17.1008 8.26065 17.2617 8.50955 17.2924C8.53843 17.2959 8.56721 17.2977 8.5959 17.2977C8.81424 17.2977 9.02237 17.1959 9.15624 17.0192C9.65527 16.3605 10.4747 16.0156 11.2935 16.1183C11.331 16.123 11.3626 16.1278 11.391 16.1327C12.0104 16.7731 12.8776 17.1724 13.8368 17.1724C16.0745 17.1724 17.8951 18.9933 17.8951 21.2316V22.6022C16.5951 22.993 15.6451 24.2004 15.6451 25.626V26.5626C14.7558 26.6941 13.8692 26.3622 13.2913 25.6497C13.2802 25.6357 13.2692 25.6223 13.2579 25.6086C12.7113 24.9173 12.7686 23.7579 13.3836 23.0738C13.8563 22.5495 14.1166 21.8719 14.1166 21.1659C14.1166 20.4044 13.8197 19.6882 13.2807 19.1492C12.7417 18.6101 12.0255 18.3133 11.2639 18.3133H8.27724C7.88893 18.3133 7.57412 18.6281 7.57412 19.0164C7.57412 19.4048 7.88893 19.7196 8.27724 19.7196H11.264C11.65 19.7196 12.013 19.8701 12.2865 20.1436C12.5598 20.4171 12.7105 20.7802 12.7105 21.166C12.7105 21.5236 12.5786 21.8668 12.3386 22.1331C11.2536 23.3397 11.1764 25.2537 12.1626 26.4904C12.1658 26.4943 12.1696 26.499 12.1728 26.5029L12.1831 26.5154C12.1865 26.5198 12.19 26.5241 12.1934 26.5284C12.9629 27.4814 14.0841 28.0006 15.2571 28.0006C15.3859 28.0006 15.5154 27.9936 15.6451 27.9809V32.0678C15.3224 32.0558 14.9828 32.0132 14.6472 32.0095C13.4669 32.0095 12.3515 32.58 11.6636 33.5356C11.6587 33.5424 11.6538 33.5493 11.6492 33.5563C11.3804 33.9596 10.9297 34.2004 10.4437 34.2004C10.1552 34.2004 9.87624 34.1148 9.63605 33.9521C8.97887 33.5088 8.81593 32.5902 9.27277 31.9047L9.67309 31.3047C9.85909 31.0259 9.82243 30.6546 9.58552 30.4175C9.34852 30.1804 8.97727 30.1435 8.69837 30.3294L7.59746 31.0631C7.35812 31.2223 7.08137 31.3064 6.79712 31.3064C6.30455 31.3064 5.85015 31.0603 5.58174 30.6482C5.1518 29.9878 5.3544 29.082 6.03305 28.6291L6.80921 28.1116C7.09374 27.9218 7.20062 27.5549 7.06224 27.2422C6.92387 26.9294 6.58056 26.7615 6.24868 26.8446L4.13284 27.3738C4.01443 27.403 3.89518 27.4179 3.77846 27.4179C3.10768 27.4179 2.51471 26.941 2.36856 26.2836C2.19981 25.5259 2.69649 24.7507 3.47555 24.5556L5.70671 23.9978C6.05124 23.9116 6.27746 23.5822 6.23406 23.2298C6.19065 22.8773 5.89131 22.6126 5.53627 22.6126H2.85315C2.45706 22.6126 2.08721 22.4556 1.81196 22.1704C1.53699 21.8855 1.39318 21.51 1.40715 21.1138C1.43499 20.3451 2.10681 19.7197 2.90471 19.7197H5.46484C5.85315 19.7197 6.16796 19.4048 6.16796 19.0165C6.16796 18.6282 5.85315 18.3134 5.46484 18.3134H2.90471C1.33281 18.3134 0.0577112 19.5211 0.00183624 21.0635C-0.0257263 21.8452 0.257774 22.585 0.800211 23.147C1.11146 23.4694 1.48384 23.7086 1.89231 23.8541C1.14577 24.528 0.767867 25.5654 0.995961 26.589C1.28387 27.8842 2.45406 28.8241 3.77846 28.8241C3.90634 28.8241 4.03505 28.8153 4.16368 28.7977C3.82524 29.6369 3.88243 30.6153 4.4034 31.4155C4.93243 32.2277 5.82727 32.7127 6.79712 32.7127C7.07537 32.7127 7.34968 32.6722 7.61293 32.5931C7.55959 33.5693 7.99609 34.5421 8.84874 35.1173C9.32162 35.4373 9.87315 35.6065 10.4437 35.6065C11.3961 35.6065 12.2801 35.1365 12.8113 34.3483C13.2361 33.7642 13.9216 33.4157 14.6473 33.4157C14.9837 33.4258 15.3249 33.4645 15.6452 33.4758V33.6122C15.6452 33.8194 15.6596 34.024 15.685 34.226C14.0872 34.6527 12.9267 36.1042 12.9267 37.8274V40.2582C12.9267 41.3263 13.6876 42.2297 14.6844 42.4222V42.9311L11.9028 43.6258C11.404 43.0355 10.6668 42.6852 9.87437 42.6852C9.62977 42.6852 9.39052 42.7188 9.16112 42.7823L7.12159 39.3782C7.36721 39.0574 7.51496 38.6577 7.51496 38.2234C7.51496 37.1727 6.66024 36.318 5.60959 36.318C4.55893 36.318 3.70421 37.1727 3.70421 38.2234C3.70421 39.274 4.55893 40.1288 5.60959 40.1288C5.71402 40.1288 5.81584 40.1181 5.91577 40.1018L7.95502 43.5054C7.47943 44.0029 7.21749 44.6526 7.21749 45.3421C7.21749 46.0509 7.49349 46.718 7.99524 47.221C8.4968 47.7226 9.16412 47.9988 9.87418 47.9988C10.177 47.9988 10.4746 47.9476 10.7599 47.8464C10.9606 47.7749 11.151 47.6803 11.3281 47.5642C11.3963 47.555 11.4639 47.5418 11.5304 47.5252L16.9771 46.1651C17.8013 45.9603 18.3768 45.2236 18.3768 44.3738V42.4233C18.8019 42.3449 19.1932 42.1415 19.5058 41.829C19.9118 41.4215 20.1354 40.8807 20.1354 40.3062V38.4442C20.2846 38.4573 20.4351 38.4647 20.5869 38.4647C20.8225 38.4648 21.0522 38.4952 21.2717 38.5522L19.2776 45.1599C19.2148 45.3682 19.183 45.5831 19.183 45.7988C19.183 47.012 20.1712 47.999 21.386 47.999C21.9634 47.999 22.5095 47.7771 22.9239 47.3738L24.0005 46.3242L25.0775 47.3742C25.4841 47.7729 26.0469 48.0008 26.6151 47.9991C27.3188 47.9991 27.9632 47.675 28.3831 47.1098C28.8029 46.5445 28.9269 45.8337 28.7236 45.1598L26.7294 38.5519C26.9485 38.4951 27.1776 38.4648 27.4126 38.4647C27.6391 38.4645 27.8628 38.4487 28.0833 38.4196V40.3062C28.0833 40.8806 28.307 41.4215 28.7139 41.8298C29.0257 42.1418 29.417 42.3449 29.8421 42.4233V44.3738C29.8421 45.2237 30.4176 45.9603 31.2409 46.1649L36.471 47.4713C36.9281 47.8127 37.4851 47.999 38.0579 47.999C38.7679 47.999 39.4352 47.7228 39.9376 47.2205C40.2704 46.8868 40.5031 46.4803 40.6224 46.0374C41.4542 45.9848 42.229 45.6368 42.8234 45.0425C43.4705 44.3952 43.8271 43.5352 43.8271 42.6207C43.8271 41.7051 43.4704 40.8448 42.8238 40.1994C42.3464 39.721 41.752 39.4021 41.1049 39.2678V38.4579H41.5726C41.961 38.4579 42.2758 38.1431 42.2758 37.7548C42.2758 37.3665 41.9611 37.0517 41.5726 37.0517H41.1049V36.5484C41.1049 36.1601 40.7902 35.8453 40.4018 35.8453C40.0135 35.8453 39.6987 36.1601 39.6987 36.5484V37.0517H39.231C38.8426 37.0517 38.5278 37.3665 38.5278 37.7548C38.5278 38.1431 38.8426 38.4579 39.231 38.4579H39.6987V39.2682C38.1464 39.5934 36.9769 40.973 36.9769 42.6208C36.9769 42.7183 36.9823 42.8153 36.9904 42.9117C36.6468 43.0633 36.3363 43.2865 36.0827 43.5683L33.5346 42.9315V42.4226C34.5316 42.2305 35.2933 41.3269 35.2933 40.2585V37.8277C35.2933 36.0311 34.0163 34.5275 32.3224 34.1762C32.344 33.9895 32.3563 33.8007 32.3563 33.6097V33.476C32.6762 33.4648 33.0163 33.4261 33.3527 33.416C34.0784 33.416 34.7639 33.7643 35.1887 34.3486C35.7199 35.1368 36.6039 35.6068 37.5564 35.6068C38.1271 35.6068 38.6785 35.4376 39.1504 35.1182C40.0036 34.5427 40.4404 33.5697 40.3871 32.5934C40.6503 32.6723 40.9246 32.7129 41.2031 32.7129C42.1728 32.7129 43.0678 32.2281 43.5969 31.4157C44.1178 30.6156 44.1751 29.6373 43.8366 28.798C43.965 28.8157 44.0938 28.8245 44.2217 28.8245C45.546 28.8245 46.7162 27.8845 47.0041 26.5897C47.2321 25.566 46.8541 24.5285 46.1078 23.8545C46.5162 23.709 46.8887 23.4697 47.1999 23.1473C47.7422 22.585 48.0257 21.8452 47.9982 21.0628V21.0628ZM38.9127 15.1306C38.9172 15.1668 38.9208 15.203 38.9236 15.2392C38.4706 14.9639 37.9617 14.787 37.4323 14.7225C37.521 14.4193 37.5695 14.0992 37.5695 13.7678C37.5695 13.6073 37.5575 13.4498 37.536 13.2953C38.2652 13.6143 38.8076 14.2977 38.9127 15.1306ZM27.9694 14.0868H30.1658C30.5541 14.0868 30.8689 13.772 30.8689 13.3837C30.8689 12.9953 30.5542 12.6805 30.1658 12.6805L26.9228 12.6802C26.8005 12.6802 26.6861 12.6331 26.6007 12.5477C26.5146 12.4616 26.4673 12.3472 26.4673 12.2255C26.4673 11.9742 26.6716 11.7698 26.9228 11.7698H34.1646C35.2666 11.7698 36.1633 12.666 36.1633 13.7676C36.1633 14.8696 35.2666 15.7662 34.1646 15.7662C31.1515 15.7662 28.7002 18.218 28.7002 21.2316V22.4686H24.7038V21.2316C24.7038 18.4812 25.8909 15.8914 27.9694 14.0868V14.0868ZM9.06784 15.2392C9.07065 15.2032 9.0743 15.1672 9.0788 15.1313C9.18446 14.2939 9.73149 13.6077 10.4662 13.2906C10.4442 13.4466 10.4321 13.6058 10.4321 13.7678C10.4321 14.0988 10.4805 14.4185 10.569 14.7213C10.0362 14.7848 9.52374 14.9621 9.06784 15.2392V15.2392ZM13.8369 15.7663C12.7349 15.7663 11.8382 14.8697 11.8382 13.7677C11.8382 12.6661 12.7349 11.7699 13.8369 11.7699H21.0787C21.33 11.7699 21.5343 11.9743 21.5343 12.2256C21.5343 12.3473 21.487 12.4617 21.4009 12.5477C21.3154 12.6331 21.2011 12.6802 21.0787 12.6802L17.8357 12.6805C17.4474 12.6805 17.1326 12.9953 17.1326 13.3837C17.1326 13.772 17.4474 14.0868 17.8357 14.0868H20.0321C22.1105 15.8914 23.2977 18.4812 23.2977 21.2317V22.4687H19.3013V21.2317C19.3013 18.2181 16.8499 15.7663 13.8369 15.7663V15.7663ZM5.11037 38.2235C5.11037 37.9482 5.33434 37.7243 5.60949 37.7243C5.88465 37.7243 6.10862 37.9483 6.10862 38.2235C6.10862 38.4987 5.88465 38.7227 5.60949 38.7227C5.33434 38.7227 5.11037 38.4987 5.11037 38.2235ZM16.6373 44.8006L11.188 46.1613C11.153 46.1701 11.1176 46.1746 11.0798 46.1746C10.9223 46.1746 10.7694 46.2275 10.6456 46.3247C10.5376 46.4094 10.4173 46.4758 10.2887 46.5216C10.1559 46.5687 10.0164 46.5926 9.87418 46.5926C9.53968 46.5926 9.22552 46.4627 8.99021 46.2274C8.75387 45.9904 8.62365 45.6759 8.62365 45.3421C8.62365 45.0083 8.75387 44.6938 8.98956 44.4575C9.22552 44.2215 9.53968 44.0916 9.87418 44.0916C10.3378 44.0916 10.7611 44.3463 10.9793 44.7564C11.1309 45.0415 11.4573 45.1867 11.7705 45.1084L15.5578 44.1625C15.8708 44.0843 16.0905 43.8031 16.0905 43.4804V42.2077C16.2481 42.1236 16.3967 42.021 16.5316 41.8977C16.6637 42.0183 16.8118 42.1212 16.9708 42.2063V44.3738C16.9708 44.5763 16.834 44.7517 16.6373 44.8006ZM18.7294 40.3061C18.7294 40.5059 18.6514 40.6943 18.5107 40.8354C18.3696 40.9765 18.1816 41.0542 17.9813 41.0542C17.5694 41.0542 17.2342 40.7185 17.2342 40.306C17.2342 39.9177 16.9194 39.6029 16.5311 39.6029C16.1428 39.6029 15.828 39.9177 15.828 40.306C15.828 40.5083 15.7486 40.6976 15.6044 40.8394C15.4598 40.9814 15.2704 41.0579 15.0659 41.0543C14.6616 41.0467 14.3327 40.6896 14.3327 40.2582V37.8274C14.3327 36.7493 15.0616 35.842 16.063 35.5806C16.3088 36.1298 16.6582 36.6332 17.1039 37.0657C17.576 37.5238 18.128 37.8769 18.7294 38.114V40.3061ZM27.2543 46.2712C27.1025 46.4755 26.8696 46.5927 26.6153 46.5927C26.4106 46.5933 26.2058 46.511 26.059 46.3668L24.4916 44.8388C24.2186 44.5726 23.783 44.5726 23.51 44.8388L21.943 46.3664C21.793 46.5124 21.5953 46.5928 21.3862 46.5928C20.9468 46.5928 20.5893 46.2367 20.5893 45.7988C20.5893 45.7207 20.6011 45.6423 20.624 45.566L22.5219 39.277C22.852 39.6132 23.0981 40.0364 23.218 40.5193C23.3076 40.8803 23.6295 41.1325 24.0007 41.1325C24.3716 41.1325 24.6933 40.8806 24.7834 40.5194C24.9033 40.0364 25.1494 39.613 25.4794 39.2768L27.3774 45.5658C27.451 45.8096 27.4062 46.0667 27.2543 46.2712V46.2712ZM27.4117 37.0583C26.0107 37.0592 24.7481 37.7611 24.0007 38.8694C23.2531 37.7611 21.9897 37.0592 20.5878 37.0583C18.6048 37.0575 17.0515 35.5438 17.0515 33.6123V25.6261C17.0515 24.6605 17.837 23.8749 18.8026 23.8749H29.1981C30.1642 23.8749 30.9502 24.6609 30.9502 25.627V33.6095C30.9501 35.5418 29.3957 37.0568 27.4117 37.0583ZM40.4015 40.6014C40.9411 40.6014 41.448 40.8114 41.8294 41.1938C42.2108 41.5744 42.4208 42.0812 42.4208 42.6207C42.4208 43.1596 42.2106 43.6665 41.829 44.0482C41.4991 44.378 41.0748 44.5789 40.617 44.6271C40.496 44.1919 40.2651 43.7923 39.9368 43.4631C39.5134 43.0398 38.9718 42.7778 38.3863 42.7061C38.3851 42.6776 38.3832 42.6493 38.3832 42.6207C38.3832 41.5073 39.2886 40.6014 40.4015 40.6014ZM36.1981 45.0464C36.5022 45.1224 36.8199 44.9879 36.977 44.7165C37.2001 44.331 37.6143 44.0915 38.0579 44.0915C38.3924 44.0915 38.7066 44.2214 38.9418 44.4567C39.1782 44.6937 39.3084 45.0082 39.3084 45.3421C39.3084 45.676 39.1782 45.9904 38.9426 46.2267C38.7066 46.4627 38.3924 46.5927 38.0579 46.5927C37.7567 46.5927 37.4763 46.4888 37.247 46.2923C37.1641 46.2212 37.0657 46.1705 36.9599 46.144L31.581 44.8004C31.385 44.7518 31.2482 44.5763 31.2482 44.3738V42.2065C31.4074 42.1215 31.5556 42.0185 31.6878 41.8978C31.8226 42.021 31.9711 42.1235 32.1285 42.2075V43.4803C32.1285 43.8029 32.3481 44.0842 32.6611 44.1624L36.1981 45.0464ZM33.8871 37.8275V40.2583C33.8871 40.6897 33.5578 41.0468 33.1541 41.0543C32.9519 41.0567 32.7597 40.9817 32.6154 40.8399C32.4712 40.6982 32.3918 40.5086 32.3918 40.3061C32.3918 39.9178 32.0771 39.603 31.6887 39.603C31.3004 39.603 30.9856 39.9178 30.9856 40.3061C30.9856 40.7186 30.65 41.0543 30.2375 41.0543C30.0372 41.0543 29.8492 40.9765 29.7091 40.8364C29.5674 40.6943 29.4894 40.5059 29.4894 40.3061V38.0211C30.0065 37.7879 30.4827 37.4666 30.8972 37.0643C31.3539 36.621 31.71 36.1035 31.9565 35.5383C33.0511 35.7254 33.8871 36.6803 33.8871 37.8275V37.8275ZM46.1881 22.1703C45.9129 22.4555 45.5431 22.6126 45.147 22.6126H42.4639C42.1088 22.6126 41.8095 22.8773 41.7661 23.2298C41.7227 23.5822 41.9489 23.9116 42.2934 23.9978L44.5243 24.5555C45.3036 24.7507 45.8004 25.5259 45.6316 26.2838C45.4854 26.941 44.8925 27.418 44.2217 27.418C44.105 27.418 43.9859 27.4032 43.8691 27.3743L41.7514 26.8447C41.4198 26.7616 41.0763 26.9295 40.938 27.2423C40.7996 27.555 40.9063 27.922 41.1909 28.1117L41.9669 28.629C42.6458 29.0821 42.8483 29.9879 42.4186 30.6481C42.15 31.0604 41.6956 31.3065 41.2031 31.3065C40.9188 31.3065 40.6422 31.2224 40.4034 31.0636L39.3019 30.3295C39.0227 30.1435 38.6515 30.1806 38.4148 30.4176C38.1779 30.6547 38.1411 31.026 38.3271 31.3048L38.7271 31.9044C39.1842 32.5903 39.0213 33.5089 38.3631 33.9529C38.1238 34.1148 37.8449 34.2005 37.5564 34.2005C37.0704 34.2005 36.6196 33.9597 36.3508 33.5564C36.3461 33.5494 36.3413 33.5424 36.3364 33.5356C35.6484 32.5801 34.5331 32.0096 33.3527 32.0096C33.0171 32.0133 32.6786 32.0558 32.3563 32.0678V27.9814C33.6655 28.1087 34.9524 27.5855 35.8065 26.5287C35.8104 26.5239 35.8137 26.5197 35.8174 26.5148L35.8268 26.5035C35.8304 26.4992 35.8339 26.4949 35.8374 26.4905C36.8236 25.2538 36.7464 23.3398 35.6609 22.1324C35.4214 21.8668 35.2895 21.5236 35.2895 21.166C35.2895 20.7802 35.4401 20.4171 35.7135 20.1436C35.987 19.8701 36.3501 19.7196 36.7361 19.7196H45.0954C45.8933 19.7196 46.5651 20.345 46.593 21.1131C46.6069 21.5099 46.4631 21.8854 46.1881 22.1703V22.1703Z" fill="#3F457A"/>
<path d="M30.012 33.0717C30.012 32.6834 29.6973 32.3686 29.3089 32.3686C28.9206 32.3686 28.6058 32.6834 28.6058 33.0717V33.6099C28.6058 34.2291 28.0801 34.7145 27.4096 34.7151C26.1912 34.7151 25.0222 35.0493 24.0001 35.6859C22.9779 35.0493 21.8084 34.7151 20.5893 34.7151C19.9086 34.7145 19.3953 34.2405 19.3953 33.6127V26.219H28.6058V30.2594C28.6058 30.6477 28.9205 30.9625 29.3089 30.9625C29.6972 30.9625 30.012 30.6477 30.012 30.2594V25.6274C30.012 25.1782 29.6471 24.8127 29.1984 24.8127H18.802C18.3538 24.8127 17.9893 25.1778 17.9893 25.6265V33.6127C17.9893 35.0181 19.1309 36.12 20.5889 36.1213C21.6759 36.1213 22.7115 36.4602 23.5839 37.1013C23.7077 37.1923 23.854 37.2378 24.0002 37.2378C24.1465 37.2378 24.2927 37.1922 24.4166 37.1013C25.2889 36.4602 26.324 36.1213 27.4104 36.1213C28.8693 36.12 30.0121 35.0169 30.0121 33.6099V33.0717H30.012Z" fill="#3F457A"/>
<path d="M18.5439 9.42666H29.4572C29.8455 9.42666 30.1603 9.11185 30.1603 8.72354C30.1603 8.33522 29.8456 8.02041 29.4572 8.02041H29.2335L29.5569 6.67435C29.8198 5.57935 29.5707 4.44422 28.8736 3.55979C28.1765 2.67544 27.1308 2.16825 26.0048 2.16825H24.7037V0.704254C24.7037 0.315942 24.389 0.00112915 24.0006 0.00112915C23.6123 0.00112915 23.2974 0.315942 23.2974 0.704254V2.16835H21.9965C20.8704 2.16835 19.8248 2.67554 19.1276 3.55997C18.4305 4.44432 18.1815 5.57954 18.4445 6.67454L18.7677 8.0206H18.5439C18.1556 8.0206 17.8408 8.33541 17.8408 8.72372C17.8408 9.11204 18.1556 9.42666 18.5439 9.42666ZM25.1794 3.5745L24.463 8.0205H23.5381L22.8219 3.5745H25.1794ZM27.7693 4.43044C28.1981 4.97438 28.3513 5.67263 28.1895 6.34604L27.7873 8.0205H25.8874L26.5912 3.65222C27.0524 3.77597 27.4649 4.04438 27.7693 4.43044V4.43044ZM19.8117 6.34604C19.65 5.67263 19.8032 4.97438 20.2319 4.43044C20.5362 4.04438 20.9488 3.77597 21.4102 3.65222L22.1139 8.0205H20.2139L19.8117 6.34604Z" fill="#3F457A"/>
</g>
<defs>
<clipPath id="clip0_44_862">
<rect width="48" height="48" fill="white"/>
</clipPath>
</defs>
</svg>
