<svg width="32" height="33" viewBox="0 0 32 33" fill="none" xmlns="http://www.w3.org/2000/svg">
<g clip-path="url(#clip0_44_3257)">
<path d="M27.5871 9.2625V30.4375C27.5871 31.575 26.6621 32.5 25.5246 32.5H6.47461C5.33711 32.5 4.41211 31.575 4.41211 30.4375V2.5625C4.41211 1.425 5.33711 0.5 6.47461 0.5H18.8246L27.5871 9.2625Z" fill="#518FF5"/>
<path d="M10.0742 16.5688H21.9242V17.8875H10.0742V16.5688Z" fill="#3F457A"/>
<path d="M10.0742 19.5063H21.9242V20.825H10.0742V19.5063Z" fill="#3F457A"/>
<path d="M10.0742 22.45H21.9242V23.7688H10.0742V22.45Z" fill="#3F457A"/>
<path d="M10.0742 25.3875H18.5055V26.7063H10.0742V25.3875Z" fill="#3F457A"/>
<path opacity="0.19" d="M20.0195 8.93125L27.5883 15.0625V9.3L23.3008 6.8125L20.0195 8.93125Z" fill="black"/>
<path d="M27.5867 9.2625H20.8867C19.7492 9.2625 18.8242 8.3375 18.8242 7.2V0.5L27.5867 9.2625Z" fill="#A6C5FA"/>
</g>
<defs>
<clipPath id="clip0_44_3257">
<rect width="32" height="32" fill="white" transform="translate(0 0.5)"/>
</clipPath>
</defs>
</svg>
