<svg width="32" height="33" viewBox="0 0 32 33" fill="none" xmlns="http://www.w3.org/2000/svg">
<g clip-path="url(#clip0_3_42)">
<path d="M27.5875 9.2625V30.4375C27.5875 31.575 26.6625 32.5 25.525 32.5H6.47498C5.33748 32.5 4.41248 31.575 4.41248 30.4375V2.5625C4.41248 1.425 5.33748 0.5 6.47498 0.5H18.825L27.5875 9.2625Z" fill="#518FF5"/>
<path d="M10.075 16.5688H21.925V17.8875H10.075V16.5688Z" fill="#3F457A"/>
<path d="M10.075 19.5063H21.925V20.825H10.075V19.5063Z" fill="#3F457A"/>
<path d="M10.075 22.45H21.925V23.7688H10.075V22.45Z" fill="#3F457A"/>
<path d="M10.075 25.3875H18.5063V26.7063H10.075V25.3875Z" fill="#3F457A"/>
<path opacity="0.19" d="M20.0187 8.93125L27.5875 15.0625V9.3L23.3 6.8125L20.0187 8.93125Z" fill="black"/>
<path d="M27.5875 9.2625H20.8875C19.75 9.2625 18.825 8.3375 18.825 7.2V0.5L27.5875 9.2625Z" fill="#A6C5FA"/>
</g>
<defs>
<clipPath id="clip0_3_42">
<rect width="32" height="32" fill="white" transform="translate(0 0.5)"/>
</clipPath>
</defs>
</svg>
