<svg width="194" height="156" viewBox="0 0 194 156" fill="none" xmlns="http://www.w3.org/2000/svg">
<g clip-path="url(#clip0_9_843)">
<g opacity="0.5">
<g opacity="0.5">
<path opacity="0.5" d="M1.18543 54.3325C1.18543 54.2539 1.26446 54.2539 1.26446 54.1753C1.26446 54.0967 1.34348 54.0967 1.34348 54.018C1.34348 53.9394 1.4225 53.9394 1.4225 53.8608C2.29175 52.2882 3.5561 51.0301 4.89949 50.4797L5.2946 50.3225L53.8143 29.2499L102.334 8.1773L102.729 8.02004C104.152 7.39101 105.495 7.54827 106.522 8.25593C106.522 8.25593 106.601 8.25593 106.601 8.33456C106.601 8.33456 106.68 8.33456 106.68 8.41319L112.291 12.5019L108.656 13.6027L113.476 78.393C113.634 80.0442 113.16 81.8527 112.212 83.4253C112.212 83.5039 112.133 83.5039 112.133 83.5825C112.133 83.6612 112.054 83.6612 112.054 83.7398C111.185 85.3124 109.92 86.5704 108.577 87.1995L11.8535 129.109L12.2486 133.197L6.95407 129.266C6.95407 129.266 6.87505 129.266 6.87505 129.187C5.84775 128.48 5.13655 127.222 4.97851 125.57L9.69173e-05 59.2075C-0.0789255 57.5563 0.316187 55.8265 1.18543 54.3325Z" fill="white"/>
<g opacity="0.5">
<path opacity="0.5" d="M16.2786 133.591L114.108 91.1311C117.032 89.8731 119.245 85.7844 118.929 82.0102L114.029 16.5908C113.713 12.8166 111.105 10.8509 108.182 12.109L10.3519 54.5686C7.50713 55.8267 5.2945 59.9154 5.61059 63.6896L10.51 129.109C10.747 132.883 13.3548 134.928 16.2786 133.591Z" fill="url(#paint0_linear_9_843)"/>
<path opacity="0.5" d="M10.8261 54.4114L59.3458 33.3389L65.0354 110.238L16.6737 133.434C13.5128 134.849 10.668 133.119 10.431 129.581L5.53157 63.2179C5.2945 59.7582 7.66517 55.7481 10.8261 54.4114Z" fill="url(#paint1_linear_9_843)"/>
<path opacity="0.5" d="M107.866 12.2664L59.3458 33.339L65.0354 109.766L113.713 91.3672C116.874 89.9519 119.245 86.0204 119.008 82.5608L114.108 16.1979C113.871 12.6596 111.026 10.9297 107.866 12.2664Z" fill="url(#paint2_linear_9_843)"/>
<path opacity="0.5" d="M117.901 87.3569C116.953 89.1654 115.452 90.6594 113.713 91.367L16.6737 133.434C14.9352 134.141 13.3548 133.984 12.1694 133.119L61.5584 62.9033L117.901 87.3569Z" fill="url(#paint3_linear_9_843)"/>
<path opacity="0.5" d="M6.63788 58.4217C7.58615 56.6132 9.08757 55.1193 10.8261 54.4116L107.866 12.3451C109.604 11.6374 111.185 11.7947 112.37 12.6596L63.0599 82.8753L6.63788 58.4217Z" fill="url(#paint4_linear_9_843)"/>
</g>
</g>
<g opacity="0.5">
<path opacity="0.5" d="M27.4998 66.9917C27.4998 66.9131 27.5788 66.8344 27.5788 66.8344C27.5788 66.7558 27.6578 66.7558 27.6578 66.6772C27.6578 66.5985 27.7369 66.5985 27.7369 66.5199C28.5271 64.7901 29.7914 63.2961 31.2139 62.5885L31.609 62.3526L82.1043 35.776L132.6 9.19934L132.995 8.96345C134.496 8.17716 135.919 8.25579 137.104 8.96345C137.104 8.96345 137.183 8.96345 137.183 9.04208C137.183 9.04208 137.262 9.04208 137.262 9.12071L143.663 13.1308L139.87 14.5461L150.38 83.8969C150.617 85.7054 150.301 87.6711 149.431 89.401C149.431 89.4796 149.352 89.4796 149.352 89.5582C149.352 89.6368 149.273 89.6368 149.273 89.7155C148.483 91.4453 147.219 92.9393 145.796 93.6469L45.1218 146.486L45.833 150.81L39.7483 147.036C39.7483 147.036 39.6693 147.036 39.6693 146.957C38.4839 146.25 37.6147 144.992 37.3776 143.183L26.7096 72.2598C26.4725 70.53 26.7886 68.6429 27.4998 66.9917Z" fill="white"/>
<g opacity="0.5">
<path opacity="0.5" d="M50.3373 151.046L152.118 97.4209C155.2 95.7697 157.176 91.2092 156.622 87.1991L146.033 17.2193C145.401 13.2092 142.398 11.2435 139.396 12.8947L37.5356 66.4411C34.4538 68.0923 32.4782 72.6528 33.0314 76.6628L43.6204 146.643C44.2525 150.731 47.2554 152.618 50.3373 151.046Z" fill="url(#paint5_linear_9_843)"/>
<path opacity="0.5" d="M37.9308 66.205L88.4261 39.6284L100.912 121.874L50.8114 150.731C47.4925 152.461 44.3316 150.81 43.7784 147.114L32.9523 76.1909C32.3992 72.4167 34.6118 68.0135 37.9308 66.205Z" fill="url(#paint6_linear_9_843)"/>
<path opacity="0.5" d="M138.921 13.0517L88.4261 39.6284L100.833 121.403L151.723 97.6566C155.042 95.9267 157.255 91.4449 156.701 87.7493L145.954 16.7473C145.322 12.9731 142.161 11.3219 138.921 13.0517Z" fill="url(#paint7_linear_9_843)"/>
<path opacity="0.5" d="M155.832 92.9389C154.963 94.9046 153.462 96.6345 151.723 97.578L50.7324 150.81C48.9149 151.753 47.1764 151.675 45.912 150.888L93.2464 71.3159L155.832 92.9389Z" fill="url(#paint8_linear_9_843)"/>
<path opacity="0.5" d="M33.8216 70.9227C34.6908 68.957 36.1923 67.2272 37.9308 66.2836L138.921 13.1304C140.739 12.1868 142.477 12.2655 143.742 13.0518L96.4073 92.5457L33.8216 70.9227Z" fill="url(#paint9_linear_9_843)"/>
</g>
</g>
</g>
<path d="M55.3947 66.6773C55.3947 66.5987 55.4737 66.52 55.4737 66.4414C55.4737 66.3628 55.5528 66.3628 55.5528 66.2842C55.5528 66.2055 55.6318 66.2055 55.6318 66.1269C56.422 64.2398 57.6864 62.6672 59.1878 61.8023L59.5829 61.5664L112.291 31.2942L164.999 1.02206L165.394 0.786174C166.895 -0.0787454 168.476 -0.0787454 169.74 0.550287C169.74 0.550287 169.819 0.550287 169.819 0.628916C169.819 0.628916 169.898 0.628916 169.898 0.707545L176.852 4.71763L173.059 6.29021L186.967 79.7297C187.362 81.6168 187.046 83.7398 186.177 85.6269C186.177 85.7055 186.098 85.7055 186.098 85.7842C186.098 85.8628 186.019 85.8628 186.019 85.9414C185.229 87.8285 183.964 89.4011 182.463 90.266L77.3629 150.732L78.3112 155.371L71.7523 151.597C71.7523 151.597 71.6733 151.597 71.6733 151.518C70.409 150.81 69.3817 149.474 69.0656 147.587L54.7625 72.3386C54.4464 70.5301 54.6835 68.4858 55.3947 66.6773Z" fill="white"/>
<path d="M83.0525 155.292L189.338 94.1974C192.578 92.3889 194.474 87.3566 193.684 83.1107L179.618 8.96349C178.828 4.71752 175.509 2.7518 172.348 4.56026L66.0627 65.7337C62.8228 67.5421 60.9263 72.5744 61.7165 76.8203L75.7825 150.968C76.5727 155.213 79.8126 157.179 83.0525 155.292Z" fill="url(#paint10_linear_9_843)"/>
<path d="M66.4578 65.4978L119.166 35.2256L135.681 122.347L83.4477 155.056C79.9707 157.022 76.5727 155.449 75.8615 151.439L61.6375 76.2699C60.8472 72.2599 63.0599 67.4635 66.4578 65.4978Z" fill="url(#paint11_linear_9_843)"/>
<path d="M171.953 4.87459L119.245 35.1468L135.681 121.717L188.943 94.4331C192.42 92.4673 194.553 87.5923 193.842 83.6609L179.618 8.4129C178.828 4.48144 175.43 2.90886 171.953 4.87459Z" fill="url(#paint12_linear_9_843)"/>
<path d="M193.131 89.3225C192.261 91.4455 190.76 93.4112 188.943 94.4334L83.5267 155.056C81.6301 156.157 79.8126 156.157 78.3902 155.292L125.646 68.6431L193.131 89.3225Z" fill="url(#paint13_linear_9_843)"/>
<path d="M62.2697 70.6087C63.1389 68.4857 64.6403 66.52 66.4578 65.4978L171.953 4.87484C173.849 3.77403 175.667 3.77403 177.089 4.63895L129.834 91.2095L62.2697 70.6087Z" fill="url(#paint14_linear_9_843)"/>
</g>
<defs>
<linearGradient id="paint0_linear_9_843" x1="116.564" y1="49.316" x2="5.12232" y2="57.6012" gradientUnits="userSpaceOnUse">
<stop stop-color="#90AAEA"/>
<stop offset="1" stop-color="#768CD2"/>
</linearGradient>
<linearGradient id="paint1_linear_9_843" x1="-11.8525" y1="180.76" x2="54.7594" y2="82.8116" gradientUnits="userSpaceOnUse">
<stop offset="0.7677" stop-color="#768CD2"/>
<stop offset="0.8452" stop-color="#7388CD"/>
<stop offset="0.9318" stop-color="#6B7DBF"/>
<stop offset="1" stop-color="#606FAF"/>
</linearGradient>
<linearGradient id="paint2_linear_9_843" x1="147.42" y1="111.54" x2="74.1462" y2="69.9255" gradientUnits="userSpaceOnUse">
<stop offset="0.7677" stop-color="#768CD2"/>
<stop offset="0.8452" stop-color="#7388CD"/>
<stop offset="0.9318" stop-color="#6B7DBF"/>
<stop offset="1" stop-color="#606FAF"/>
</linearGradient>
<linearGradient id="paint3_linear_9_843" x1="71.0597" y1="190.868" x2="27.1721" y2="89.7214" gradientUnits="userSpaceOnUse">
<stop offset="0.7677" stop-color="#606FAF"/>
<stop offset="0.8386" stop-color="#5F6CAB"/>
<stop offset="0.9179" stop-color="#5963A1"/>
<stop offset="1" stop-color="#495096"/>
</linearGradient>
<linearGradient id="paint4_linear_9_843" x1="94.3716" y1="0.979613" x2="-16.4977" y2="67.418" gradientUnits="userSpaceOnUse">
<stop stop-color="#90AAEA"/>
<stop offset="1" stop-color="#768CD2"/>
</linearGradient>
<linearGradient id="paint5_linear_9_843" x1="151.28" y1="52.1947" x2="32.072" y2="70.2305" gradientUnits="userSpaceOnUse">
<stop stop-color="#90AAEA"/>
<stop offset="1" stop-color="#768CD2"/>
</linearGradient>
<linearGradient id="paint6_linear_9_843" x1="23.8823" y1="204.027" x2="87.5683" y2="93.2676" gradientUnits="userSpaceOnUse">
<stop offset="0.7677" stop-color="#768CD2"/>
<stop offset="0.8452" stop-color="#7388CD"/>
<stop offset="0.9318" stop-color="#6B7DBF"/>
<stop offset="1" stop-color="#606FAF"/>
</linearGradient>
<linearGradient id="paint7_linear_9_843" x1="189.573" y1="116.642" x2="107.313" y2="77.8465" gradientUnits="userSpaceOnUse">
<stop offset="0.7677" stop-color="#768CD2"/>
<stop offset="0.8452" stop-color="#7388CD"/>
<stop offset="0.9318" stop-color="#6B7DBF"/>
<stop offset="1" stop-color="#606FAF"/>
</linearGradient>
<linearGradient id="paint8_linear_9_843" x1="113.913" y1="208.181" x2="58.4607" y2="102.89" gradientUnits="userSpaceOnUse">
<stop offset="0.7677" stop-color="#606FAF"/>
<stop offset="0.8386" stop-color="#5F6CAB"/>
<stop offset="0.9179" stop-color="#5963A1"/>
<stop offset="1" stop-color="#495096"/>
</linearGradient>
<linearGradient id="paint9_linear_9_843" x1="123.445" y1="1.98759" x2="9.62334" y2="82.4893" gradientUnits="userSpaceOnUse">
<stop stop-color="#90AAEA"/>
<stop offset="1" stop-color="#768CD2"/>
</linearGradient>
<linearGradient id="paint10_linear_9_843" x1="186.69" y1="46.0768" x2="60.4152" y2="70.0156" gradientUnits="userSpaceOnUse">
<stop stop-color="#90AAEA"/>
<stop offset="1" stop-color="#768CD2"/>
</linearGradient>
<linearGradient id="paint11_linear_9_843" x1="56.9846" y1="212.827" x2="120.466" y2="92.3438" gradientUnits="userSpaceOnUse">
<stop offset="0.7677" stop-color="#768CD2"/>
<stop offset="0.8452" stop-color="#7388CD"/>
<stop offset="0.9318" stop-color="#6B7DBF"/>
<stop offset="1" stop-color="#606FAF"/>
</linearGradient>
<linearGradient id="paint12_linear_9_843" x1="230.038" y1="113.231" x2="140.857" y2="75.1508" gradientUnits="userSpaceOnUse">
<stop offset="0.7677" stop-color="#768CD2"/>
<stop offset="0.8452" stop-color="#7388CD"/>
<stop offset="0.9318" stop-color="#6B7DBF"/>
<stop offset="1" stop-color="#606FAF"/>
</linearGradient>
<linearGradient id="paint13_linear_9_843" x1="153.064" y1="213.719" x2="89.8391" y2="103.709" gradientUnits="userSpaceOnUse">
<stop offset="0.7677" stop-color="#606FAF"/>
<stop offset="0.8386" stop-color="#5F6CAB"/>
<stop offset="0.9179" stop-color="#5963A1"/>
<stop offset="1" stop-color="#495096"/>
</linearGradient>
<linearGradient id="paint14_linear_9_843" x1="155.046" y1="-6.32014" x2="36.9904" y2="83.9221" gradientUnits="userSpaceOnUse">
<stop stop-color="#90AAEA"/>
<stop offset="1" stop-color="#768CD2"/>
</linearGradient>
<clipPath id="clip0_9_843">
<rect width="194" height="156" fill="white"/>
</clipPath>
</defs>
</svg>
