<svg width="48" height="48" viewBox="0 0 48 48" fill="none" xmlns="http://www.w3.org/2000/svg">
<path d="M46.9358 6.15101C46.2499 5.48351 45.343 5.13017 44.3861 5.1567C42.7378 5.20188 41.3583 6.43404 41.0387 8.0261C39.4014 8.32526 38.1562 9.76113 38.1562 11.4834V20.3959C38.1562 20.7843 38.471 21.099 38.8594 21.099C39.2477 21.099 39.5625 20.7843 39.5625 20.3959V11.4834C39.5625 10.5668 40.1504 9.78523 40.9688 9.49498V23.209C39.5931 22.1844 37.5915 22.3169 36.3321 23.5763L26.5566 33.3519C25.3614 34.5471 24.7031 36.1363 24.7031 37.8265V47.2959C24.7031 47.6843 25.0179 47.999 25.4062 47.999H41.2031C41.4116 47.999 41.6093 47.9065 41.7429 47.7465C41.8766 47.5864 41.9322 47.3753 41.8949 47.1702L41.0051 42.2761L47.3983 31.7186C47.4047 31.7081 47.4109 31.6972 47.4167 31.6864C47.7983 30.9739 48 30.1702 48 29.3622V8.67092C48 7.71363 47.6221 6.8187 46.9358 6.15101ZM46.5938 29.3621C46.5938 29.9335 46.4526 30.5017 46.1854 31.0068L39.6642 41.7754C39.5752 41.9224 39.5431 42.0965 39.5738 42.2655L40.3607 46.5928H26.1094V37.8265C26.1094 36.5119 26.6213 35.2759 27.551 34.3463L37.3265 24.5707C38.1502 23.7469 39.4858 23.7469 40.3095 24.5707C41.1332 25.3945 41.1333 26.7301 40.3095 27.5538L30.534 37.3294C30.2595 37.6039 30.2594 38.0491 30.534 38.3238C30.8086 38.5982 31.2537 38.5984 31.5284 38.3238L41.3453 28.5068C42.0138 27.8383 42.3786 26.9523 42.3749 26.0083V8.72942C42.3749 7.56551 43.2944 6.59341 44.4245 6.56238C45.0002 6.54588 45.5434 6.75851 45.955 7.15891C46.367 7.5596 46.5938 8.09651 46.5938 8.67092V29.3621Z" fill="#3F457A"/>
<path d="M21.4435 33.3519L11.6679 23.5763C10.4084 22.3169 8.40694 22.1844 7.03125 23.209V9.495C7.84959 9.78525 8.4375 10.5668 8.4375 11.4834V20.3959C8.4375 20.7843 8.75222 21.099 9.14062 21.099C9.52903 21.099 9.84375 20.7843 9.84375 20.3959V11.4834C9.84375 9.76116 8.59856 8.32528 6.96141 8.02603C6.64172 6.43397 5.26219 5.20181 3.61397 5.15663C2.65706 5.13019 1.75022 5.48344 1.06425 6.15094C0.377906 6.81872 0 7.71366 0 8.67094V29.3621C0 30.1702 0.20175 30.9739 0.583313 31.6863C0.589219 31.6972 0.595313 31.7079 0.601688 31.7185L6.99487 42.276L6.10509 47.1701C6.06778 47.3753 6.12337 47.5864 6.25706 47.7464C6.39066 47.9064 6.58838 47.999 6.79688 47.999H22.5938C22.9822 47.999 23.2969 47.6842 23.2969 47.2958V37.8264C23.2969 36.1363 22.6387 34.5472 21.4435 33.3519ZM21.8906 46.5928H7.63941L8.42625 42.2655C8.457 42.0966 8.42484 41.9224 8.33587 41.7755L1.81463 31.0068C1.54744 30.5018 1.40625 29.9335 1.40625 29.3621V8.67094C1.40625 8.09653 1.63303 7.55963 2.04478 7.15894C2.45644 6.75853 2.99972 6.54591 3.57534 6.56241C4.7055 6.59344 5.625 7.56553 5.625 8.72944V26.0083C5.62134 26.9523 5.98612 27.8384 6.65456 28.5068L16.4715 38.3238C16.7463 38.5984 17.1914 38.5982 17.4659 38.3238C17.7405 38.0491 17.7405 37.604 17.4659 37.3294L7.6905 27.5538C6.86672 26.73 6.86672 25.3945 7.6905 24.5708C8.51428 23.747 9.84984 23.747 10.6735 24.5708L20.449 34.3463C21.3787 35.2759 21.8906 36.5119 21.8906 37.8265V46.5928Z" fill="#3F457A"/>
<path d="M24 10.6397C22.8368 10.6397 21.8906 11.586 21.8906 12.7491C21.8906 13.9121 22.8368 14.8584 24 14.8584C25.1631 14.8584 26.1094 13.9121 26.1094 12.7491C26.1094 11.586 25.1631 10.6397 24 10.6397ZM24 13.4522C23.6122 13.4522 23.2969 13.1368 23.2969 12.7491C23.2969 12.3613 23.6122 12.0459 24 12.0459C24.3877 12.0459 24.7031 12.3613 24.7031 12.7491C24.7031 13.1368 24.3877 13.4522 24 13.4522Z" fill="#3F457A"/>
<path d="M26.6229 24.8538L27.2971 22.7695C27.796 22.6054 28.2835 22.4032 28.7533 22.1658L30.7045 23.1632C30.939 23.2829 31.2212 23.2617 31.4351 23.1078C31.9963 22.704 32.5281 22.2521 33.0155 21.7647C33.5032 21.2769 33.9549 20.7453 34.3585 20.1844C34.5125 19.9704 34.5338 19.6884 34.4138 19.4537L33.4165 17.5025C33.6539 17.0328 33.856 16.5453 34.0203 16.0463L36.1044 15.3721C36.3552 15.291 36.5395 15.0765 36.582 14.8162C36.6934 14.1338 36.7497 13.4384 36.7497 12.7491C36.7497 12.06 36.6933 11.3645 36.582 10.682C36.5396 10.4219 36.3552 10.2073 36.1044 10.1261L34.0203 9.45186C33.856 8.95283 33.6539 8.46543 33.4164 7.99564L34.4138 6.04443C34.5337 5.80977 34.5124 5.52768 34.3584 5.31383C33.9547 4.75264 33.5028 4.22089 33.0155 3.73349C32.5278 3.2458 31.9959 2.79393 31.435 2.39033C31.221 2.23658 30.9391 2.21502 30.7043 2.33511L28.7532 3.33243C28.2835 3.09505 27.796 2.89293 27.2971 2.72868L26.6228 0.64452C26.5417 0.393738 26.3273 0.209426 26.067 0.166957C24.7023 -0.0556055 23.2979 -0.0556992 21.9327 0.166957C21.6726 0.209332 21.4581 0.393738 21.3769 0.64452L20.7027 2.72849C20.2037 2.89274 19.7162 3.09486 19.2465 3.33233L17.2953 2.33493C17.0604 2.21483 16.7784 2.2363 16.5646 2.39024C16.0033 2.7943 15.4716 3.24608 14.9843 3.7333C14.4969 4.22071 14.045 4.75246 13.6412 5.31355C13.4873 5.52749 13.4659 5.80958 13.5859 6.04433L14.5833 7.99555C14.3458 8.46524 14.1437 8.95274 13.9795 9.45177L11.8953 10.126C11.6445 10.2071 11.4602 10.4216 11.4177 10.6819C11.3064 11.3643 11.25 12.0597 11.25 12.749C11.25 13.4381 11.3064 14.1336 11.4177 14.8161C11.4602 15.0762 11.6445 15.2908 11.8953 15.372L13.9794 16.0461C14.1436 16.5452 14.3457 17.0326 14.5832 17.5024L13.5859 19.4536C13.466 19.6882 13.4873 19.9703 13.6412 20.1842C14.0449 20.7453 14.4967 21.277 14.9842 21.7645C15.4716 22.2517 16.0033 22.7037 16.5645 23.1076C16.7785 23.2615 17.0605 23.283 17.2952 23.1629L19.2464 22.1656C19.7162 22.4031 20.2036 22.6051 20.7026 22.7692L21.3769 24.8535C21.458 25.1043 21.6726 25.2886 21.9327 25.3311C22.6152 25.4424 23.3107 25.4988 23.9998 25.4988C24.689 25.4988 25.3845 25.4423 26.067 25.3311C26.3273 25.2889 26.5417 25.1046 26.6229 24.8538ZM22.5801 24.004L21.9283 21.9893C21.8564 21.7672 21.6789 21.5952 21.4547 21.5303C20.8089 21.3436 20.182 21.0837 19.5914 20.7579C19.3868 20.645 19.1396 20.641 18.9317 20.7475L17.0454 21.7116C16.6703 21.42 16.3128 21.1045 15.9787 20.7704C15.6444 20.4363 15.3291 20.0786 15.0374 19.7037L16.0016 17.8173C16.1079 17.6093 16.104 17.3622 15.9912 17.1576C15.6653 16.567 15.4055 15.9402 15.2186 15.2944C15.1537 15.07 14.9818 14.8926 14.7596 14.8207L12.745 14.1691C12.6861 13.6976 12.6563 13.2217 12.6563 12.7491C12.6563 12.2766 12.6861 11.8008 12.745 11.3293L14.7597 10.6776C14.9819 10.6056 15.1538 10.4283 15.2187 10.2039C15.4056 9.55799 15.6655 8.93108 15.9913 8.34055C16.1042 8.13599 16.108 7.88886 16.0017 7.68083L15.0374 5.79449C15.329 5.41949 15.6444 5.06202 15.9787 4.7278C16.3127 4.39377 16.6703 4.07821 17.0454 3.78655L18.9318 4.75068C19.1397 4.85708 19.3869 4.85314 19.5915 4.74027C20.182 4.41449 20.8089 4.15461 21.4548 3.96768C21.679 3.90289 21.8565 3.73086 21.9283 3.50868L22.5801 1.49408C23.5231 1.37614 24.4769 1.37614 25.4197 1.49408L26.0715 3.50868C26.1434 3.73077 26.3208 3.9028 26.5451 3.96768C27.191 4.15452 27.8179 4.41458 28.4084 4.74027C28.6129 4.85314 28.86 4.85699 29.0681 4.75068L30.9544 3.78655C31.3293 4.07793 31.6868 4.39349 32.0212 4.7278C32.3553 5.06183 32.6707 5.41949 32.9623 5.79449L31.9983 7.68083C31.8919 7.88877 31.8958 8.13589 32.0087 8.34046C32.3345 8.93089 32.5943 9.5578 32.7813 10.2038C32.8461 10.4281 33.0181 10.6055 33.2403 10.6774L35.2549 11.3291C35.3138 11.8006 35.3437 12.2765 35.3437 12.7491C35.3437 13.2216 35.3138 13.6974 35.2549 14.1689L33.2403 14.8206C33.0182 14.8926 32.8462 15.0699 32.7813 15.2943C32.5944 15.9401 32.3344 16.567 32.0087 17.1576C31.8958 17.3621 31.8919 17.6092 31.9983 17.8173L32.9624 19.7035C32.6709 20.0783 32.3555 20.436 32.0212 20.7703C31.6871 21.1044 31.3295 21.4199 30.9545 21.7115L29.068 20.7472C28.8601 20.641 28.6129 20.6448 28.4084 20.7577C27.8178 21.0836 27.1909 21.3435 26.5451 21.5301C26.3208 21.595 26.1434 21.7671 26.0715 21.9891L25.4198 24.0038C24.4768 24.1219 23.5231 24.1219 22.5801 24.004Z" fill="#3F457A"/>
<path d="M21.6844 9.43922C21.8192 9.57403 21.9992 9.64509 22.1818 9.64509C22.2843 9.64509 22.3878 9.62269 22.4845 9.57656C23.4335 9.12337 24.5665 9.12337 25.5151 9.57647C25.7839 9.70481 26.1045 9.64997 26.3154 9.43912L28.3749 7.37953C28.524 7.23037 28.5984 7.02206 28.5773 6.81206C28.5561 6.60216 28.4419 6.41269 28.266 6.29625C25.6755 4.57997 22.3268 4.58034 19.7348 6.29728C19.5589 6.41381 19.4445 6.60328 19.4234 6.81319C19.4024 7.02309 19.4766 7.2315 19.6259 7.38075L21.6844 9.43922ZM26.729 7.03678L25.6534 8.11256C24.5816 7.72847 23.4186 7.72866 22.3466 8.11256L21.2718 7.03791C22.9977 6.20925 25.0039 6.20869 26.729 7.03678Z" fill="#3F457A"/>
<path d="M20.8273 14.2643C20.3742 13.3157 20.3742 12.1827 20.8273 11.2337C20.9557 10.9648 20.9006 10.6442 20.69 10.4335L18.6315 8.37503C18.4823 8.22587 18.2736 8.15162 18.0641 8.17272C17.8541 8.19381 17.6647 8.308 17.5481 8.48397C15.8313 11.0759 15.8309 14.4246 17.5472 17.0152C17.6637 17.1911 17.8531 17.3054 18.063 17.3265C18.0866 17.3287 18.11 17.3299 18.1333 17.3299C18.3189 17.3299 18.498 17.2565 18.6305 17.1241L20.69 15.0646C20.9007 14.8538 20.9558 14.5332 20.8273 14.2643ZM19.3634 14.4025L18.2877 15.4782C17.4596 13.753 17.4599 11.7469 18.2888 10.021L19.3634 11.0957C18.9796 12.1677 18.9796 13.3307 19.3634 14.4025Z" fill="#3F457A"/>
<path d="M27.1727 11.2338C27.6258 12.1824 27.6258 13.3154 27.1726 14.2644C27.0443 14.5333 27.0993 14.8538 27.31 15.0646L29.3684 17.1231C29.501 17.2555 29.6801 17.3289 29.8656 17.3289C29.889 17.3289 29.9125 17.3277 29.936 17.3254C30.1459 17.3043 30.3354 17.1901 30.4519 17.0141C32.1687 14.4222 32.1692 11.0735 30.4529 8.48286C30.3365 8.30699 30.147 8.19271 29.9371 8.17161C29.7267 8.15146 29.5188 8.22486 29.3696 8.37402L27.3101 10.4335C27.0993 10.6443 27.0443 10.9649 27.1727 11.2338ZM28.6366 11.0956L29.7124 10.0199C30.5405 11.7451 30.5401 13.7511 29.7113 15.4771L28.6366 14.4024C29.0204 13.3305 29.0204 12.1674 28.6366 11.0956Z" fill="#3F457A"/>
<path d="M28.5763 18.6848C28.5974 18.4749 28.5231 18.2665 28.3739 18.1173L26.3154 16.0588C26.1046 15.8481 25.7838 15.7931 25.5153 15.9215C24.5663 16.3746 23.4333 16.3746 22.4845 15.9216C22.2157 15.793 21.895 15.8481 21.6844 16.0589L19.6249 18.1185C19.4756 18.2676 19.4014 18.476 19.4225 18.686C19.4436 18.896 19.5578 19.0853 19.7337 19.2018C21.0288 20.0598 22.513 20.4889 23.9978 20.4888C25.483 20.4887 26.9688 20.0594 28.265 19.2008C28.4409 19.0842 28.5552 18.8948 28.5763 18.6848ZM21.2708 18.4613L22.3465 17.3856C23.4182 17.7694 24.5814 17.7694 25.6533 17.3856L26.728 18.4602C25.0021 19.289 22.9959 19.2893 21.2708 18.4613Z" fill="#3F457A"/>
</svg>
