<svg width="48" height="48" viewBox="0 0 48 48" fill="none" xmlns="http://www.w3.org/2000/svg">
<path d="M32.6665 41.4734C29.975 42.8148 27.0074 43.5087 24.0003 43.5C22.7886 43.5002 21.5794 43.3885 20.3882 43.1663L20.1123 44.6406C21.3945 44.8799 22.696 45.0002 24.0003 45C27.2391 45.0092 30.4353 44.2616 33.3341 42.8167L32.6665 41.4734Z" fill="#3F457A"/>
<path d="M40.217 13.1672L41.4636 12.3328C39.4217 9.2832 36.6196 6.81893 33.3341 5.1833L32.6665 6.52657C35.718 8.04579 38.3205 10.3347 40.217 13.1672Z" fill="#3F457A"/>
<path d="M8.5423 12.1113C10.6796 9.33394 13.5242 7.1821 16.7782 5.88094L16.2223 4.48769C12.6894 5.89838 9.60559 8.24141 7.29963 11.267C4.99368 14.2925 3.55204 17.8871 3.12842 21.6676L4.61926 21.8324C5.0115 18.2938 6.36859 14.931 8.5423 12.1113Z" fill="#3F457A"/>
<path d="M25.033 39.3908C25.2998 39.5627 25.6 39.6761 25.9139 39.7237C26.2277 39.7712 26.548 39.7519 26.8538 39.6668C27.1596 39.5817 27.4439 39.4329 27.6881 39.2301C27.9322 39.0273 28.1307 38.7751 28.2705 38.4901C28.4102 38.2051 28.4881 37.8938 28.4989 37.5766C28.5097 37.2593 28.4533 36.9434 28.3333 36.6496C28.2133 36.3557 28.0325 36.0906 27.8027 35.8716C27.573 35.6526 27.2995 35.4847 27.0002 35.379V27.621C27.2997 27.5154 27.5735 27.3476 27.8035 27.1286C28.0335 26.9097 28.2145 26.6445 28.3346 26.3505C28.4548 26.0566 28.5113 25.7405 28.5006 25.4231C28.4898 25.1057 28.4119 24.7942 28.2721 24.5091C28.1323 24.224 27.9337 23.9717 27.6894 23.7688C27.445 23.5659 27.1605 23.4171 26.8545 23.3321C26.5486 23.2471 26.2281 23.2278 25.9141 23.2756C25.6001 23.3233 25.2999 23.437 25.033 23.6092L21.7502 21.6942V18.75C21.7495 18.1535 21.5122 17.5816 21.0904 17.1598C20.6686 16.738 20.0967 16.5007 19.5002 16.5C19.3014 16.4998 19.1107 16.4207 18.9701 16.2801C18.8295 16.1395 18.7504 15.9488 18.7502 15.75V12.75H16.4016L18.7502 9.22709V9C18.7502 8.42643 18.8328 7.85586 18.9953 7.30581L22.1896 10.5H24.7502V9H22.8108L19.6521 5.84122C20.1414 5.05474 20.8049 4.39123 21.5914 3.90189L23.2502 5.56064V7.5H24.7502V4.93936L23.056 3.24514C24.2277 2.8992 25.4771 2.91983 26.6367 3.30425C27.7963 3.68868 28.8107 4.41851 29.5437 5.39585L27.4396 7.5H26.2502V9H28.0608L30.3108 6.75003C30.6014 7.46456 30.7506 8.22866 30.7502 9V9.55618C30.7496 10.1297 30.6667 10.7001 30.504 11.25H25.9396L24.2198 12.9697L25.2806 14.0303L26.5608 12.75H29.8288C29.687 12.976 29.5302 13.1922 29.3595 13.3973L27.5216 15.6027C27.185 16.0073 27.0005 16.5168 27.0002 17.0431V22.5H28.5002V17.0431C28.5003 16.8677 28.5618 16.6978 28.674 16.5629L30.5118 14.3576C31.634 13.0091 32.249 11.3105 32.2502 9.55618V9C32.2502 7.031 31.4759 5.14099 30.0944 3.73796C28.7129 2.33493 26.8352 1.53143 24.8664 1.50092C22.8976 1.47041 20.9958 2.21533 19.5716 3.57488C18.1473 4.93443 17.3148 6.79954 17.2538 8.76759L15.1535 11.9179C15.0029 12.1438 14.9165 12.4064 14.9033 12.6775C14.8902 12.9487 14.951 13.2184 15.0791 13.4578C15.2072 13.6972 15.3978 13.8973 15.6308 14.0368C15.8637 14.1763 16.1301 14.25 16.4016 14.25H17.2502V15.75C17.2509 16.3465 17.4881 16.9184 17.91 17.3402C18.3318 17.762 18.9037 17.9993 19.5002 18C19.699 18.0002 19.8897 18.0793 20.0303 18.2199C20.1709 18.3605 20.25 18.5512 20.2502 18.75V20.8192L17.2287 19.0567C17.2731 18.7381 17.2485 18.4137 17.1568 18.1054C17.0652 17.7971 16.9084 17.512 16.6972 17.2694C16.486 17.0268 16.2253 16.8323 15.9325 16.699C15.6398 16.5657 15.3219 16.4968 15.0002 16.4968C14.6785 16.4968 14.3606 16.5657 14.0679 16.699C13.7751 16.8323 13.5144 17.0268 13.3032 17.2694C13.092 17.512 12.9352 17.7971 12.8435 18.1054C12.7519 18.4137 12.7273 18.7381 12.7716 19.0567L4.96739 23.6092C4.70054 23.4373 4.40034 23.3239 4.08652 23.2763C3.7727 23.2287 3.45237 23.2481 3.14658 23.3332C2.84079 23.4183 2.55647 23.5671 2.31231 23.7699C2.06814 23.9727 1.86967 24.2249 1.72992 24.5099C1.59018 24.7949 1.51234 25.1062 1.50151 25.4234C1.49068 25.7406 1.54711 26.0566 1.66709 26.3504C1.78707 26.6443 1.96788 26.9094 2.19765 27.1284C2.42741 27.3474 2.70092 27.5152 3.00019 27.621V35.379C2.70069 35.4846 2.42693 35.6524 2.19693 35.8713C1.96693 36.0903 1.7859 36.3555 1.66575 36.6495C1.5456 36.9434 1.48905 37.2595 1.49983 37.5769C1.51061 37.8943 1.58847 38.2058 1.72828 38.4909C1.8681 38.776 2.0667 39.0283 2.31103 39.2312C2.55536 39.4341 2.83987 39.5829 3.14584 39.6679C3.45182 39.7529 3.77233 39.7722 4.08629 39.7244C4.40024 39.6767 4.70053 39.563 4.96739 39.3908L12.7716 43.9433C12.7273 44.2619 12.7519 44.5863 12.8435 44.8946C12.9352 45.2029 13.092 45.488 13.3032 45.7306C13.5144 45.9732 13.7751 46.1677 14.0679 46.301C14.3606 46.4342 14.6785 46.5032 15.0002 46.5032C15.3219 46.5032 15.6398 46.4342 15.9325 46.301C16.2253 46.1677 16.486 45.9732 16.6972 45.7306C16.9084 45.488 17.0652 45.2029 17.1568 44.8946C17.2485 44.5863 17.2731 44.2619 17.2287 43.9433L25.033 39.3908ZM5.29821 27.1305L12.77 31.206C12.7436 31.4011 12.7436 31.5989 12.77 31.794L5.29821 35.8695C5.06951 35.6519 4.79763 35.4848 4.50019 35.379V27.621C4.79763 27.5152 5.06951 27.3481 5.29821 27.1305ZM5.98037 37.206L13.4522 33.1305C13.6809 33.3481 13.9528 33.5152 14.2502 33.621V42.129C13.9573 42.2332 13.689 42.3968 13.4625 42.6097L5.89058 38.1928C5.9942 37.8748 6.02489 37.5375 5.98037 37.206ZM15.0002 30.75C15.1485 30.75 15.2935 30.794 15.4169 30.8764C15.5402 30.9588 15.6363 31.0759 15.6931 31.213C15.7499 31.35 15.7647 31.5008 15.7358 31.6463C15.7068 31.7918 15.6354 31.9254 15.5305 32.0303C15.4256 32.1352 15.292 32.2066 15.1465 32.2356C15.001 32.2645 14.8502 32.2497 14.7132 32.1929C14.5761 32.1361 14.459 32.04 14.3766 31.9167C14.2942 31.7933 14.2502 31.6483 14.2502 31.5C14.2504 31.3012 14.3295 31.1105 14.4701 30.9699C14.6107 30.8293 14.8014 30.7502 15.0002 30.75ZM15.7502 33.621C16.0476 33.5152 16.3195 33.3481 16.5482 33.1305L24.02 37.206C23.9755 37.5375 24.0062 37.8748 24.1098 38.1928L16.5379 42.6097C16.3113 42.3968 16.0431 42.2332 15.7502 42.129V33.621ZM24.7022 27.1305C24.9309 27.3481 25.2028 27.5152 25.5002 27.621V35.379C25.2028 35.4848 24.9309 35.6519 24.7022 35.8695L17.2304 31.794C17.2568 31.5989 17.2568 31.4011 17.2304 31.206L24.7022 27.1305ZM26.2502 38.25C26.1019 38.25 25.9569 38.206 25.8335 38.1236C25.7102 38.0412 25.6141 37.9241 25.5573 37.787C25.5005 37.65 25.4857 37.4992 25.5146 37.3537C25.5435 37.2082 25.615 37.0746 25.7199 36.9697C25.8248 36.8648 25.9584 36.7933 26.1039 36.7644C26.2494 36.7355 26.4002 36.7503 26.5372 36.8071C26.6743 36.8639 26.7914 36.96 26.8738 37.0833C26.9562 37.2067 27.0002 37.3517 27.0002 37.5C27 37.6988 26.9209 37.8895 26.7803 38.0301C26.6397 38.1707 26.449 38.2498 26.2502 38.25ZM27.0002 25.5C27.0002 25.6483 26.9562 25.7933 26.8738 25.9167C26.7914 26.04 26.6743 26.1361 26.5372 26.1929C26.4002 26.2497 26.2494 26.2645 26.1039 26.2356C25.9584 26.2066 25.8248 26.1352 25.7199 26.0303C25.615 25.9254 25.5435 25.7918 25.5146 25.6463C25.4857 25.5008 25.5005 25.35 25.5573 25.213C25.6141 25.0759 25.7102 24.9588 25.8335 24.8764C25.9569 24.794 26.1019 24.75 26.2502 24.75C26.449 24.7502 26.6397 24.8293 26.7803 24.9699C26.9209 25.1105 27 25.3012 27.0002 25.5ZM24.1098 24.8072C24.0062 25.1252 23.9755 25.4625 24.02 25.794L16.5482 29.8695C16.3195 29.6519 16.0476 29.4848 15.7502 29.379V20.871C16.0431 20.7668 16.3113 20.6032 16.5379 20.3903L24.1098 24.8072ZM15.0002 18C15.1485 18 15.2935 18.044 15.4169 18.1264C15.5402 18.2088 15.6363 18.3259 15.6931 18.463C15.7499 18.6 15.7647 18.7508 15.7358 18.8963C15.7068 19.0418 15.6354 19.1754 15.5305 19.2803C15.4256 19.3852 15.292 19.4566 15.1465 19.4856C15.001 19.5145 14.8502 19.4997 14.7132 19.4429C14.5761 19.3861 14.459 19.29 14.3766 19.1667C14.2942 19.0433 14.2502 18.8983 14.2502 18.75C14.2504 18.5512 14.3295 18.3605 14.4701 18.2199C14.6107 18.0793 14.8014 18.0002 15.0002 18ZM13.4625 20.3903C13.6891 20.6032 13.9573 20.7668 14.2502 20.871V29.379C13.9528 29.4848 13.6809 29.6519 13.4522 29.8695L5.98037 25.794C6.02489 25.4625 5.9942 25.1252 5.89058 24.8072L13.4625 20.3903ZM3.75019 24.75C3.89853 24.75 4.04353 24.794 4.16687 24.8764C4.29021 24.9588 4.38634 25.0759 4.4431 25.213C4.49987 25.35 4.51472 25.5008 4.48578 25.6463C4.45684 25.7918 4.38541 25.9254 4.28052 26.0303C4.17563 26.1352 4.042 26.2066 3.89651 26.2356C3.75103 26.2645 3.60023 26.2497 3.46318 26.1929C3.32614 26.1361 3.209 26.04 3.12659 25.9167C3.04418 25.7933 3.00019 25.6483 3.00019 25.5C3.00042 25.3012 3.07951 25.1105 3.22012 24.9699C3.36072 24.8293 3.55135 24.7502 3.75019 24.75ZM3.00019 37.5C3.00019 37.3517 3.04418 37.2067 3.12659 37.0833C3.209 36.96 3.32614 36.8639 3.46318 36.8071C3.60023 36.7503 3.75103 36.7355 3.89651 36.7644C4.042 36.7933 4.17563 36.8648 4.28052 36.9697C4.38541 37.0746 4.45684 37.2082 4.48578 37.3537C4.51472 37.4992 4.49987 37.65 4.4431 37.787C4.38634 37.9241 4.29021 38.0412 4.16687 38.1236C4.04353 38.206 3.89853 38.25 3.75019 38.25C3.55135 38.2498 3.36072 38.1707 3.22012 38.0301C3.07951 37.8895 3.00042 37.6988 3.00019 37.5ZM15.0002 45C14.8519 45 14.7069 44.956 14.5835 44.8736C14.4602 44.7912 14.3641 44.6741 14.3073 44.537C14.2505 44.4 14.2357 44.2492 14.2646 44.1037C14.2935 43.9582 14.365 43.8246 14.4699 43.7197C14.5748 43.6148 14.7084 43.5433 14.8539 43.5144C14.9994 43.4855 15.1502 43.5003 15.2872 43.5571C15.4243 43.6139 15.5414 43.71 15.6238 43.8333C15.7062 43.9567 15.7502 44.1017 15.7502 44.25C15.75 44.4488 15.6709 44.6395 15.5303 44.7801C15.3897 44.9207 15.199 44.9998 15.0002 45Z" fill="#3F457A"/>
<path d="M41.7 39.9L40.25 38.8125L42.6 37.05C44.5586 35.5833 45.8931 33.4328 46.3379 31.0266C46.7826 28.6204 46.305 26.1349 45 24.065V24H44.959C44.3322 23.0152 43.5331 22.1514 42.6 21.45L40.25 19.6875L41.7 18.6C42.7224 17.8294 43.5524 16.8325 44.1249 15.6874C44.6974 14.5424 44.997 13.2802 45 12H43.5C43.4993 12.7668 43.3673 13.5277 43.11 14.25H34.8901C34.6327 13.5277 34.5008 12.7668 34.5 12H33C33.0031 13.2802 33.3026 14.5424 33.8752 15.6874C34.4477 16.8325 35.2777 17.8294 36.3001 18.6L37.7501 19.6875L35.4001 21.45C34.467 22.1514 33.6679 23.0152 33.0411 24H33V24.065C31.6951 26.1349 31.2174 28.6204 31.6622 31.0266C32.1069 33.4328 33.4414 35.5832 35.4001 37.05L37.7501 38.8125L36.3001 39.9C35.2777 40.6706 34.4477 41.6675 33.8752 42.8126C33.3026 43.9576 33.0031 45.2198 33 46.5H34.5C34.5008 45.7332 34.6327 44.9723 34.8901 44.25H43.11C43.3673 44.9723 43.4993 45.7332 43.5 46.5H45C44.997 45.2198 44.6974 43.9576 44.1249 42.8126C43.5524 41.6675 42.7224 40.6706 41.7 39.9ZM33.0351 30H44.965C44.8671 31.0463 44.571 32.0644 44.0925 33H33.9075C33.429 32.0644 33.1329 31.0463 33.0351 30ZM33.0351 28.5C33.1329 27.4537 33.429 26.4356 33.9075 25.5H44.0925C44.571 26.4356 44.8671 27.4537 44.965 28.5H33.0351ZM37.2 17.4C36.591 16.9423 36.0642 16.3843 35.6422 15.75H42.3579C41.9358 16.3843 41.4091 16.9423 40.8001 17.4L39 18.75L37.2 17.4ZM36.3001 22.65L39 20.625L41.7 22.65C42.2222 23.0421 42.6956 23.4954 43.1101 24H34.89C35.3045 23.4954 35.7779 23.0421 36.3001 22.65ZM36.3001 35.85C35.7779 35.4579 35.3045 35.0046 34.89 34.5H43.1101C42.6956 35.0046 42.2222 35.4579 41.7 35.85L39 37.875L36.3001 35.85ZM35.6422 42.75C36.0642 42.1157 36.591 41.5577 37.2 41.1L39 39.75L40.8001 41.1C41.4091 41.5577 41.9358 42.1157 42.3579 42.75H35.6422Z" fill="#3F457A"/>
</svg>
