<svg width="48" height="48" viewBox="0 0 48 48" fill="none" xmlns="http://www.w3.org/2000/svg">
<path d="M43.5893 31.5384C42.6284 30.9835 41.5125 30.9722 40.5768 31.4055L36.2318 28.8968C36.1457 27.9115 35.6204 27.0503 34.8532 26.5105V21.4894C35.6205 20.9496 36.1458 20.0883 36.2319 19.103L37.0942 18.6051C37.4305 18.4109 37.5457 17.9809 37.3515 17.6446C37.1574 17.3083 36.7272 17.1932 36.3911 17.3873L36.0119 17.6062C35.8943 17.3124 35.7352 17.0396 35.5419 16.7949L38.9224 14.8432C39.0384 15.1333 39.1967 15.408 39.3908 15.6552L39.2271 15.75C38.8908 15.9442 38.7756 16.3742 38.9698 16.7105C39.1649 17.0484 39.5956 17.161 39.9302 16.9678L40.5768 16.5945C40.7473 16.6734 40.9258 16.7382 41.1109 16.7879C41.9512 17.0132 42.8321 16.8989 43.5893 16.4617C45.1525 15.5592 45.6874 13.5637 44.7848 12.0001C43.8844 10.4405 41.883 9.90431 40.3232 10.8046C39.3674 11.3565 38.796 12.3219 38.7041 13.3458L34.3566 15.8558C33.5061 15.4583 32.4916 15.439 31.6 15.8558L27.2511 13.3449C27.1571 12.3724 26.6346 11.5232 25.8753 10.989V5.93897C26.7161 5.3475 27.2664 4.36987 27.2664 3.26616C27.2663 1.46522 25.8012 0 24.0002 0C22.1993 0 20.7342 1.46522 20.7342 3.26616C20.7342 4.36987 21.2846 5.3475 22.1252 5.93897V6.74559C22.1252 7.134 22.4401 7.44872 22.8284 7.44872C23.2167 7.44872 23.5315 7.134 23.5315 6.74559V6.49856C23.8376 6.54272 24.1543 6.54394 24.469 6.49856V10.4293C24.1629 10.3852 23.8462 10.3839 23.5315 10.4293V10.0268C23.5315 9.63844 23.2167 9.32372 22.8284 9.32372C22.4401 9.32372 22.1252 9.63844 22.1252 10.0268V10.9889C21.366 11.5231 20.8435 12.3723 20.7495 13.3448L16.4006 15.8557C15.5501 15.4581 14.5355 15.4388 13.6439 15.8557L9.29649 13.3457C9.20462 12.3218 8.63321 11.3564 7.67733 10.8045C6.11762 9.90394 4.11615 10.4403 3.21577 12C2.31333 13.5633 2.84771 15.5589 4.41127 16.4616C5.35655 17.0074 6.47115 17.0357 7.42374 16.5945L11.7687 19.1032C11.8547 20.0885 12.3801 20.9497 13.1474 21.4895V26.5106C12.3802 27.0504 11.8547 27.9116 11.7688 28.8969L7.42374 31.4056C7.2533 31.3267 7.0748 31.2619 6.88965 31.2122C6.04693 30.9862 5.1668 31.1022 4.41127 31.5384C3.65574 31.9746 3.11527 32.6789 2.88952 33.5215C2.66377 34.3642 2.77965 35.2444 3.21577 36C4.11183 37.552 6.1104 38.1001 7.67733 37.1955C8.63321 36.6436 9.20462 35.6782 9.29658 34.6543L10.0522 34.218C10.3885 34.0238 10.5037 33.5938 10.3096 33.2575C10.1154 32.9212 9.68518 32.8062 9.34908 33.0002L9.07815 33.1567C8.96218 32.8666 8.80383 32.5919 8.60977 32.3446L11.9888 30.3937C12.1064 30.6874 12.2655 30.9602 12.4588 31.2048L12.3199 31.2849C11.9836 31.4791 11.8684 31.9091 12.0626 32.2454C12.2573 32.5828 12.6877 32.6963 13.0231 32.5028L13.6441 32.1442C14.4947 32.5417 15.5092 32.5609 16.4009 32.1442L20.7469 34.6534C20.833 35.6387 21.3584 36.4999 22.1255 37.0397V42.0609C21.2848 42.6524 20.7345 43.63 20.7345 44.7337C20.7345 46.5347 22.1996 47.9999 24.0005 47.9999C25.8015 47.9999 27.2666 46.5347 27.2666 44.7337C27.2666 43.63 26.7162 42.6524 25.8755 42.0609V37.0397C26.6427 36.4999 27.1681 35.6387 27.2541 34.6534L31.6002 32.1442C32.4507 32.5417 33.4652 32.561 34.3569 32.1442L38.7043 34.6542C38.7961 35.6781 39.3675 36.6435 40.3234 37.1954C41.8926 38.1015 43.8903 37.5496 44.785 35.9999C45.6873 34.4367 45.1529 32.4411 43.5893 31.5384ZM22.1403 3.26616C22.1403 2.24063 22.9746 1.40625 24.0001 1.40625C25.0257 1.40625 25.86 2.24053 25.86 3.26616C25.86 4.29159 25.0257 5.12597 24.0001 5.12597C22.9747 5.12597 22.1403 4.29159 22.1403 3.26616ZM38.9225 33.1567L35.542 31.2049C35.7353 30.9603 35.8943 30.6875 36.012 30.3938L39.391 32.3447C39.1972 32.5913 39.0387 32.8659 38.9225 33.1567ZM33.447 25.9509C33.1409 25.9068 32.8242 25.9056 32.5095 25.9509V22.0491C32.8155 22.0932 33.1322 22.0944 33.447 22.0491V25.9509ZM25.8583 34.2851C25.9046 35.3466 25.0536 36.2268 24.0002 36.2268C22.9462 36.2268 22.096 35.3459 22.1422 34.2851C22.1426 34.279 22.1429 34.2729 22.1431 34.2668C22.1953 33.2876 23.0083 32.5072 24.0002 32.5072C24.9921 32.5072 25.8052 33.2877 25.8574 34.2668C25.8575 34.2728 25.8579 34.2789 25.8583 34.2851ZM21.421 15.6634L18.0557 17.6063C17.9382 17.3125 17.7791 17.0397 17.5858 16.7951L20.9572 14.8486C21.0726 15.1433 21.2296 15.4174 21.421 15.6634ZM18.2758 19.1031L22.5946 16.6096C23.4811 17.0341 24.519 17.0342 25.4058 16.6096L29.7246 19.1031C29.8107 20.0884 30.3361 20.9496 31.1032 21.4894V26.5106C30.3361 27.0504 29.8106 27.9116 29.7246 28.8969L25.3786 31.4062C24.5281 31.0087 23.5135 30.9893 22.6218 31.4062L18.2758 28.8969C18.1897 27.9116 17.6643 27.0504 16.8972 26.5106V21.4894C17.6643 20.9497 18.1897 20.0884 18.2758 19.1031ZM27.0431 14.8486L30.4145 16.7951C30.2212 17.0397 30.0622 17.3125 29.9445 17.6063L26.5793 15.6634C26.7707 15.4174 26.9278 15.1433 27.0431 14.8486ZM18.0558 30.3937L21.4366 32.3455C21.2432 32.5901 21.0842 32.8629 20.9666 33.1567L17.5859 31.2048C17.7792 30.9603 17.9382 30.6875 18.0558 30.3937ZM26.5639 32.3455L29.9446 30.3937C30.0622 30.6874 30.2213 30.9602 30.4146 31.2048L27.0339 33.1567C26.9162 32.863 26.7571 32.5901 26.5639 32.3455ZM41.0264 12.0223C41.922 11.5054 43.0586 11.8224 43.567 12.7031C44.0808 13.5932 43.7765 14.7297 42.8862 15.2438C41.9958 15.7575 40.8596 15.4534 40.3455 14.563C39.8328 13.6748 40.1383 12.5351 41.0264 12.0223ZM34.8353 18.7139C34.8356 18.7217 34.836 18.7294 34.8364 18.7372C34.8811 19.7948 34.0336 20.6763 32.9782 20.6763C31.9527 20.6763 31.1184 19.842 31.1184 18.8165C31.1184 17.7924 31.9513 16.9566 32.9782 16.9566C33.9693 16.9567 34.7819 17.7359 34.8353 18.7139ZM25.8601 13.6618C25.8601 14.6868 25.0262 15.5217 24.0002 15.5217C22.9752 15.5217 22.1404 14.6878 22.1404 13.6618C22.1404 12.6364 22.9747 11.802 24.0002 11.802C25.0258 11.802 25.8601 12.6363 25.8601 13.6618ZM16.882 18.8166C16.882 19.842 16.0477 20.6764 15.0222 20.6764C13.9966 20.6764 13.1623 19.8421 13.1623 18.8166C13.1623 17.7925 13.9951 16.9567 15.0222 16.9567C16.0502 16.9567 16.882 17.7936 16.882 18.8166ZM9.07787 14.8433L12.4584 16.7951C12.2651 17.0397 12.1061 17.3125 11.9884 17.6063L8.60949 15.6554C8.80327 15.4087 8.96171 15.1341 9.07787 14.8433ZM5.11421 15.2438C4.22415 14.7299 3.91937 13.5935 4.4334 12.7031C4.94462 11.8177 6.08349 11.5082 6.97402 12.0223C7.86212 12.5351 8.16746 13.6748 7.65474 14.563C7.1408 15.4532 6.00446 15.7577 5.11421 15.2438ZM14.5534 22.0491C14.8595 22.0932 15.1762 22.0944 15.4909 22.0491V25.951C15.1848 25.9069 14.8681 25.9057 14.5534 25.951V22.0491ZM6.97402 35.9777C6.08574 36.4903 4.94612 36.185 4.4334 35.2969C4.18505 34.8667 4.11905 34.3654 4.24768 33.8856C4.47465 33.0382 5.23918 32.5062 6.04112 32.5062C6.68949 32.5062 7.31162 32.8426 7.65474 33.437C8.16755 34.3252 7.86212 35.4649 6.97402 35.9777ZM13.1624 29.1834C13.1624 28.158 13.9966 27.3236 15.0222 27.3236C16.0477 27.3236 16.882 28.1579 16.882 29.1834C16.882 30.2075 16.0491 31.0433 15.0222 31.0433C13.9941 31.0433 13.1624 30.2064 13.1624 29.1834ZM24.0002 46.5938C22.9747 46.5938 22.1404 45.7595 22.1404 44.7338C22.1404 43.7084 22.9747 42.874 24.0002 42.874C25.0258 42.874 25.8601 43.7083 25.8601 44.7338C25.8601 45.7595 25.0258 46.5938 24.0002 46.5938ZM24.469 41.5014C24.1629 41.4573 23.8462 41.4561 23.5315 41.5014V37.5995C23.8376 37.6436 24.1543 37.6448 24.469 37.5995V41.5014ZM31.1184 29.1834C31.1184 28.158 31.9527 27.3236 32.9782 27.3236C34.0037 27.3236 34.838 28.1579 34.838 29.1834C34.838 30.2075 34.0051 31.0433 32.9782 31.0433C31.9501 31.0433 31.1184 30.2064 31.1184 29.1834ZM43.567 35.2969C43.0543 36.1851 41.9145 36.4904 41.0264 35.9777C40.1383 35.4649 39.8329 34.3252 40.3456 33.437C40.8608 32.5447 41.9979 32.2435 42.8863 32.7562C43.7763 33.2701 44.081 34.4065 43.567 35.2969Z" fill="#3F457A"/>
<path d="M20.0835 26.5042H21.4957V27.9165C21.4957 28.3577 21.8547 28.7167 22.296 28.7167H25.704C26.1453 28.7167 26.5043 28.3577 26.5043 27.9165V26.5042H27.9165C28.3578 26.5042 28.7167 26.1453 28.7167 25.7041V22.2959C28.7167 21.8547 28.3577 21.4957 27.9165 21.4957H26.5043V20.0835C26.5043 19.6423 26.1453 19.2833 25.704 19.2833H22.296C21.8547 19.2833 21.4957 19.6423 21.4957 20.0835V21.4957H20.0835C19.6422 21.4957 19.2832 21.8547 19.2832 22.2959V25.7041C19.2833 26.1453 19.6423 26.5042 20.0835 26.5042ZM20.6895 22.902H22.1019C22.5432 22.902 22.902 22.543 22.902 22.1018V20.6896H25.098V22.1018C25.098 22.543 25.457 22.902 25.8982 22.902H27.3105V25.098H25.8982C25.4569 25.098 25.098 25.457 25.098 25.8982V27.3104H22.902V25.8982C22.902 25.457 22.5431 25.098 22.1019 25.098H20.6895V22.902Z" fill="#3F457A"/>
</svg>
