<svg width="48" height="48" viewBox="0 0 48 48" fill="none" xmlns="http://www.w3.org/2000/svg">
<g clip-path="url(#clip0_44_879)">
<path d="M47.2955 44.2924H44.0576V31.1085C44.0576 30.7194 43.7422 30.404 43.3531 30.404C42.964 30.404 42.6486 30.7194 42.6486 31.1085V44.2924H37.1618V21.103C37.1618 20.9736 37.2671 20.8682 37.3966 20.8682H42.4138C42.5432 20.8682 42.6486 20.9736 42.6486 21.103V28.2905C42.6486 28.6796 42.964 28.995 43.3531 28.995C43.7422 28.995 44.0576 28.6796 44.0576 28.2905V21.103C44.0576 20.1966 43.3202 19.4592 42.4138 19.4592H37.3966C36.4902 19.4592 35.7528 20.1966 35.7528 21.103V44.2925H33.4541V26.2301C33.4541 25.3237 32.7166 24.5862 31.8103 24.5862H26.7931C25.8867 24.5862 25.1493 25.3237 25.1493 26.2301V44.2925H22.8506V31.3572C22.8506 30.4508 22.1133 29.7133 21.2068 29.7133H16.1896C15.2833 29.7133 14.5458 30.4508 14.5458 31.3572V37.5175C14.5458 37.9066 14.8612 38.222 15.2503 38.222C15.6394 38.222 15.9548 37.9066 15.9548 37.5175V31.3572C15.9548 31.2276 16.0602 31.1223 16.1896 31.1223H21.2068C21.3363 31.1223 21.4416 31.2276 21.4416 31.3572V44.2924H15.9548V40.3355C15.9548 39.9464 15.6394 39.631 15.2503 39.631C14.8612 39.631 14.5458 39.9464 14.5458 40.3355V44.2924H12.2471V36.4842C12.2471 35.5779 11.5098 34.8404 10.6033 34.8404H5.58622C4.67986 34.8404 3.94239 35.5779 3.94239 36.4842V44.2924H0.704501C0.315429 44.2924 0 44.6078 0 44.9969C0 45.3859 0.315429 45.7014 0.704501 45.7014H47.2955C47.6846 45.7014 48 45.3859 48 44.9969C48 44.6078 47.6846 44.2924 47.2955 44.2924ZM26.5583 26.2301C26.5583 26.1006 26.6637 25.9952 26.7931 25.9952H31.8103C31.9397 25.9952 32.0451 26.1006 32.0451 26.2301V44.2925H26.5583V26.2301ZM5.35139 36.4842C5.35139 36.3548 5.45678 36.2494 5.58622 36.2494H10.6034C10.7329 36.2494 10.8382 36.3548 10.8382 36.4842V44.2924H5.35139V36.4842Z" fill="#3F457A"/>
<path d="M7.52294 26.4299C7.56154 26.4299 7.60053 26.4285 7.6396 26.4258C12.8352 26.0649 17.721 24.9311 22.1613 23.0557C28.1404 20.5304 33.0902 16.7238 36.8834 11.7359L39.2579 13.3868C39.7257 13.7356 40.4384 13.3164 40.361 12.738L39.3769 2.93439C39.3449 2.51573 38.9022 2.20772 38.4983 2.32298L28.9568 4.80808C28.3872 4.93658 28.2421 5.75099 28.7321 6.06829L31.1282 7.7343C30.6515 8.48332 29.6012 9.9685 27.7697 11.7852C27.4935 12.0593 27.4917 12.5053 27.7657 12.7814C28.0397 13.0577 28.4858 13.0595 28.762 12.7855C31.5853 9.98485 32.6513 7.9371 32.6952 7.85134C32.8561 7.53741 32.7601 7.15285 32.4705 6.95146L30.7938 5.78565L38.0572 3.89392L38.8064 11.3567L37.1283 10.1899C36.814 9.97142 36.3831 10.0437 36.1573 10.3526C32.4659 15.4034 27.5725 19.2407 21.6131 21.7576C16.2611 24.018 11.0071 24.7794 7.5421 25.0201C7.33967 25.072 7.27833 24.7003 7.47991 24.6787C15.1989 22.2966 21.6453 18.9479 26.64 14.7256C26.9372 14.4744 26.9744 14.0299 26.7232 13.7328C26.4721 13.4357 26.0275 13.3983 25.7304 13.6496C20.8814 17.7487 14.6013 21.0064 7.06454 23.3323C6.28189 23.5738 5.82265 24.3329 5.97256 25.1372C6.11506 25.902 6.75728 26.4299 7.52294 26.4299Z" fill="#3F457A"/>
</g>
<defs>
<clipPath id="clip0_44_879">
<rect width="48" height="48" fill="white"/>
</clipPath>
</defs>
</svg>
