<svg width="48" height="48" viewBox="0 0 48 48" fill="none" xmlns="http://www.w3.org/2000/svg">
<g clip-path="url(#clip0_4_355)">
<path d="M15.0209 12.6806H13.9092C13.5209 12.6806 13.2061 12.9954 13.2061 13.3837C13.2061 13.772 13.5209 14.0869 13.9092 14.0869H15.0209C15.4092 14.0869 15.7241 13.772 15.7241 13.3837C15.7241 12.9954 15.4092 12.6806 15.0209 12.6806Z" fill="#3F457A"/>
<path d="M33.6818 14.0867H34.7935C35.1818 14.0867 35.4966 13.7719 35.4966 13.3836C35.4966 12.9953 35.1819 12.6805 34.7935 12.6805H33.6818C33.2935 12.6805 32.9786 12.9953 32.9786 13.3836C32.9786 13.7719 33.2935 14.0867 33.6818 14.0867Z" fill="#3F457A"/>
<path d="M47.9981 21.0628C47.9432 19.5468 46.641 18.3134 45.0953 18.3134H36.736C35.9745 18.3134 35.2582 18.6102 34.7191 19.1494C34.18 19.6884 33.8832 20.4047 33.8832 21.1661C33.8832 21.8721 34.1436 22.5496 34.6157 23.0733C35.2311 23.7578 35.2883 24.9168 34.7423 25.6082C34.7309 25.6219 34.7196 25.6357 34.7083 25.6503C34.13 26.362 33.2443 26.6936 32.3561 26.5626V25.627C32.3561 24.2013 31.4062 22.9937 30.1062 22.6025V21.2316C30.1062 18.9934 31.9267 17.1725 34.1645 17.1725C35.1247 17.1725 35.9928 16.7722 36.6124 16.1306C36.6373 16.1265 36.665 16.1226 36.6961 16.1185C37.5172 16.0153 38.336 16.3605 38.8349 17.0192C38.9689 17.1959 39.1768 17.2977 39.3952 17.2977C39.4238 17.2977 39.4526 17.2959 39.4815 17.2924C39.7303 17.2616 39.944 17.1007 40.0422 16.87C40.2976 16.2702 40.3895 15.6082 40.3076 14.9551C40.0837 13.1811 38.628 11.825 36.8692 11.7035C36.2465 10.8899 35.2659 10.3638 34.1644 10.3638H26.9226C25.896 10.3638 25.0609 11.199 25.0609 12.2256C25.0609 12.7228 25.2545 13.1903 25.6061 13.5421C25.7621 13.6981 25.9411 13.823 26.1356 13.9135C25.2041 14.9333 24.4831 16.1114 24.0006 17.3848C23.518 16.1114 22.7969 14.9333 21.8655 13.9135C22.0599 13.823 22.239 13.6981 22.395 13.5421C22.7467 13.1904 22.9402 12.7229 22.9402 12.2256C22.9402 11.199 22.105 10.3638 21.0785 10.3638H13.8366C12.7355 10.3638 11.7552 10.8895 11.1324 11.7027C9.36909 11.8195 7.90781 13.1777 7.68337 14.9557C7.60162 15.6082 7.6934 16.2702 7.94878 16.87C8.04703 17.1007 8.26059 17.2617 8.50949 17.2924C8.53837 17.2959 8.56715 17.2977 8.59584 17.2977C8.81418 17.2977 9.02231 17.1959 9.15618 17.0192C9.65521 16.3605 10.4747 16.0156 11.2934 16.1182C11.3309 16.123 11.3626 16.1278 11.3909 16.1327C12.0103 16.7731 12.8776 17.1724 13.8367 17.1724C16.0745 17.1724 17.895 18.9933 17.895 21.2316V22.6022C16.5951 22.993 15.6451 24.2004 15.6451 25.626V26.5626C14.7558 26.6941 13.8692 26.3622 13.2912 25.6497C13.2801 25.6356 13.2692 25.6222 13.2578 25.6086C12.7113 24.9172 12.7686 23.7579 13.3836 23.0738C13.8562 22.5495 14.1165 21.8719 14.1165 21.1659C14.1165 20.4044 13.8197 19.6881 13.2806 19.1492C12.7416 18.6101 12.0254 18.3133 11.2639 18.3133H8.27718C7.88887 18.3133 7.57406 18.6281 7.57406 19.0164C7.57406 19.4047 7.88887 19.7196 8.27718 19.7196H11.264C11.6499 19.7196 12.0129 19.8701 12.2864 20.1436C12.5598 20.4171 12.7104 20.7801 12.7104 21.166C12.7104 21.5236 12.5785 21.8668 12.3385 22.1331C11.2536 23.3397 11.1763 25.2537 12.1626 26.4904C12.1657 26.4943 12.1696 26.499 12.1728 26.5029L12.1831 26.5154C12.1865 26.5198 12.1899 26.5241 12.1933 26.5284C12.9628 27.4814 14.0841 28.0006 15.2571 28.0006C15.3859 28.0006 15.5153 27.9936 15.6451 27.9809V32.0677C15.3223 32.0557 14.9827 32.0132 14.6471 32.0095C13.4668 32.0095 12.3515 32.58 11.6635 33.5356C11.6587 33.5424 11.6538 33.5493 11.6492 33.5563C11.3803 33.9596 10.9297 34.2004 10.4437 34.2004C10.1552 34.2004 9.87618 34.1148 9.63599 33.9521C8.97881 33.5088 8.81587 32.5902 9.27271 31.9047L9.67303 31.3047C9.85903 31.0259 9.82237 30.6546 9.58546 30.4175C9.34846 30.1804 8.97721 30.1435 8.69831 30.3294L7.5974 31.0631C7.35806 31.2223 7.08131 31.3064 6.79706 31.3064C6.30449 31.3064 5.85009 31.0603 5.58168 30.6482C5.15174 29.9878 5.35434 29.082 6.03299 28.6291L6.80915 28.1116C7.09368 27.9218 7.20056 27.5549 7.06218 27.2421C6.92381 26.9294 6.58049 26.7615 6.24862 26.8446L4.13278 27.3738C4.01437 27.403 3.89512 27.4179 3.7784 27.4179C3.10762 27.4179 2.51465 26.941 2.36849 26.2836C2.19974 25.5259 2.69643 24.7506 3.47549 24.5556L5.70665 23.9977C6.05118 23.9116 6.2774 23.5821 6.23399 23.2297C6.19059 22.8773 5.89124 22.6126 5.53621 22.6126H2.85309C2.45699 22.6126 2.08715 22.4556 1.8119 22.1704C1.53693 21.8855 1.39312 21.51 1.40709 21.1138C1.43493 20.3451 2.10674 19.7196 2.90465 19.7196H5.46478C5.85309 19.7196 6.1679 19.4048 6.1679 19.0165C6.1679 18.6282 5.85309 18.3134 5.46478 18.3134H2.90465C1.33274 18.3134 0.0576502 19.5211 0.00177521 21.0635C-0.0257873 21.8451 0.257713 22.585 0.80015 23.147C1.1114 23.4694 1.48378 23.7086 1.89224 23.8541C1.14571 24.528 0.767806 25.5654 0.9959 26.589C1.28381 27.8841 2.45399 28.8241 3.7784 28.8241C3.90628 28.8241 4.03499 28.8153 4.16362 28.7976C3.82518 29.6369 3.88237 30.6153 4.40334 31.4155C4.93237 32.2277 5.82721 32.7126 6.79706 32.7126C7.07531 32.7126 7.34962 32.6721 7.61287 32.5931C7.55953 33.5693 7.99603 34.5421 8.84868 35.1172C9.32156 35.4373 9.87309 35.6065 10.4437 35.6065C11.3961 35.6065 12.28 35.1365 12.8112 34.3483C13.2361 33.7641 13.9216 33.4157 14.6472 33.4157C14.9837 33.4258 15.3248 33.4645 15.6452 33.4758V33.6122C15.6452 33.8194 15.6595 34.024 15.6849 34.226C14.0871 34.6527 12.9266 36.1041 12.9266 37.8274V40.2582C12.9266 41.3263 13.6875 42.2297 14.6843 42.4221V42.9311L11.9028 43.6258C11.4039 43.0355 10.6668 42.6852 9.87431 42.6852C9.62971 42.6852 9.39046 42.7188 9.16106 42.7822L7.12152 39.3782C7.36715 39.0574 7.5149 38.6577 7.5149 38.2234C7.5149 37.1727 6.66018 36.318 5.60953 36.318C4.55887 36.318 3.70415 37.1727 3.70415 38.2234C3.70415 39.274 4.55887 40.1287 5.60953 40.1287C5.71396 40.1287 5.81578 40.118 5.91571 40.1018L7.95496 43.5054C7.47937 44.0029 7.21743 44.6525 7.21743 45.3421C7.21743 46.0509 7.49343 46.718 7.99518 47.221C8.49674 47.7226 9.16406 47.9988 9.87412 47.9988C10.1769 47.9988 10.4746 47.9476 10.7599 47.8464C10.9606 47.7749 11.1509 47.6803 11.328 47.5641C11.3962 47.555 11.4638 47.5418 11.5303 47.5251L16.9771 46.1651C17.8012 45.9603 18.3768 45.2236 18.3768 44.3738V42.4233C18.8018 42.3449 19.1931 42.1415 19.5057 41.829C19.9117 41.4215 20.1353 40.8807 20.1353 40.3062V38.4441C20.2846 38.4573 20.4351 38.4647 20.5868 38.4647C20.8224 38.4648 21.0521 38.4951 21.2717 38.5521L19.2775 45.1599C19.2147 45.3681 19.1829 45.5831 19.1829 45.7987C19.1829 47.012 20.1712 47.999 21.386 47.999C21.9634 47.999 22.5095 47.7771 22.9238 47.3737L24.0005 46.3242L25.0775 47.3742C25.4841 47.7729 26.0468 48.0007 26.6151 47.9991C27.3187 47.9991 27.9632 47.675 28.383 47.1097C28.8028 46.5445 28.9268 45.8337 28.7235 45.1597L26.7293 38.5519C26.9484 38.4951 27.1776 38.4648 27.4126 38.4647C27.639 38.4645 27.8628 38.4486 28.0833 38.4196V40.3062C28.0833 40.8806 28.307 41.4215 28.7138 41.8298C29.0257 42.1417 29.417 42.3449 29.842 42.4233V44.3738C29.842 45.2237 30.4176 45.9603 31.2409 46.1649L36.4709 47.4713C36.928 47.8127 37.485 47.999 38.0578 47.999C38.7679 47.999 39.4352 47.7228 39.9375 47.2205C40.2703 46.8868 40.5031 46.4803 40.6223 46.0374C41.4542 45.9848 42.2289 45.6367 42.8233 45.0425C43.4705 44.3952 43.827 43.5351 43.827 42.6207C43.827 41.7051 43.4704 40.8448 42.8238 40.1994C42.3463 39.721 41.7519 39.4021 41.1049 39.2677V38.4579H41.5726C41.9609 38.4579 42.2757 38.1431 42.2757 37.7548C42.2757 37.3665 41.961 37.0517 41.5726 37.0517H41.1049V36.5484C41.1049 36.1601 40.7901 35.8453 40.4017 35.8453C40.0134 35.8453 39.6986 36.1601 39.6986 36.5484V37.0517H39.2309C38.8426 37.0517 38.5278 37.3665 38.5278 37.7548C38.5278 38.1431 38.8425 38.4579 39.2309 38.4579H39.6986V39.2682C38.1463 39.5934 36.9769 40.973 36.9769 42.6208C36.9769 42.7183 36.9822 42.8152 36.9904 42.9117C36.6468 43.0633 36.3363 43.2865 36.0827 43.5683L33.5346 42.9315V42.4226C34.5315 42.2305 35.2932 41.3269 35.2932 40.2585V37.8276C35.2932 36.0311 34.0162 34.5275 32.3224 34.1762C32.3439 33.9895 32.3562 33.8007 32.3562 33.6096V33.476C32.6762 33.4648 33.0162 33.4261 33.3527 33.416C34.0783 33.416 34.7638 33.7643 35.1887 34.3486C35.7199 35.1367 36.6038 35.6068 37.5563 35.6068C38.127 35.6068 38.6784 35.4376 39.1504 35.1182C40.0036 34.5426 40.4404 33.5697 40.387 32.5934C40.6503 32.6723 40.9246 32.7129 41.203 32.7129C42.1728 32.7129 43.0677 32.2281 43.5968 31.4157C44.1177 30.6156 44.175 29.6373 43.8366 28.798C43.9649 28.8156 44.0937 28.8245 44.2217 28.8245C45.5459 28.8245 46.7162 27.8845 47.0041 26.5896C47.2321 25.566 46.8541 24.5285 46.1077 23.8545C46.5161 23.709 46.8887 23.4696 47.1998 23.1472C47.7422 22.585 48.0257 21.8451 47.9981 21.0628ZM38.9126 15.1306C38.9171 15.1668 38.9208 15.203 38.9236 15.2391C38.4706 14.9639 37.9616 14.787 37.4322 14.7225C37.5209 14.4193 37.5695 14.0991 37.5695 13.7677C37.5695 13.6073 37.5575 13.4497 37.5359 13.2952C38.2652 13.6143 38.8075 14.2977 38.9126 15.1306ZM27.9694 14.0868H30.1657C30.5541 14.0868 30.8689 13.772 30.8689 13.3836C30.8689 12.9953 30.5541 12.6805 30.1657 12.6805L26.9227 12.6801C26.8004 12.6801 26.686 12.6331 26.6006 12.5477C26.5146 12.4616 26.4672 12.3471 26.4672 12.2255C26.4672 11.9742 26.6716 11.7698 26.9227 11.7698H34.1646C35.2666 11.7698 36.1632 12.666 36.1632 13.7676C36.1632 14.8696 35.2666 15.7662 34.1646 15.7662C31.1514 15.7662 28.7001 18.218 28.7001 21.2316V22.4686H24.7038V21.2316C24.7038 18.4812 25.8908 15.8914 27.9694 14.0868ZM9.06778 15.2391C9.07059 15.2031 9.07424 15.1671 9.07874 15.1312C9.1844 14.2939 9.73143 13.6077 10.4662 13.2906C10.4441 13.4466 10.432 13.6057 10.432 13.7677C10.432 14.0988 10.4804 14.4185 10.5689 14.7213C10.0361 14.7847 9.52368 14.9621 9.06778 15.2391ZM13.8368 15.7663C12.7348 15.7663 11.8382 14.8697 11.8382 13.7676C11.8382 12.6661 12.7348 11.7699 13.8368 11.7699H21.0786C21.3299 11.7699 21.5343 11.9743 21.5343 12.2256C21.5343 12.3473 21.4869 12.4617 21.4009 12.5477C21.3154 12.6331 21.201 12.6801 21.0786 12.6801L17.8356 12.6805C17.4473 12.6805 17.1325 12.9953 17.1325 13.3836C17.1325 13.772 17.4473 14.0868 17.8356 14.0868H20.032C22.1105 15.8914 23.2976 18.4812 23.2976 21.2316V22.4687H19.3012V21.2316C19.3012 18.2181 16.8499 15.7663 13.8368 15.7663ZM5.11031 38.2235C5.11031 37.9482 5.33428 37.7243 5.60943 37.7243C5.88459 37.7243 6.10856 37.9483 6.10856 38.2235C6.10856 38.4987 5.88459 38.7227 5.60943 38.7227C5.33428 38.7227 5.11031 38.4987 5.11031 38.2235ZM16.6372 44.8006L11.1879 46.1613C11.153 46.1701 11.1175 46.1746 11.0797 46.1746C10.9222 46.1746 10.7693 46.2275 10.6455 46.3247C10.5376 46.4094 10.4172 46.4758 10.2887 46.5216C10.1558 46.5687 10.0163 46.5926 9.87412 46.5926C9.53962 46.5926 9.22546 46.4627 8.99015 46.2274C8.75381 45.9904 8.62359 45.6759 8.62359 45.3421C8.62359 45.0082 8.75381 44.6938 8.98949 44.4575C9.22546 44.2215 9.53962 44.0916 9.87412 44.0916C10.3377 44.0916 10.7611 44.3463 10.9792 44.7564C11.1308 45.0415 11.4573 45.1866 11.7704 45.1084L15.5577 44.1625C15.8707 44.0843 16.0904 43.8031 16.0904 43.4804V42.2076C16.248 42.1236 16.3967 42.021 16.5316 41.8977C16.6637 42.0183 16.8117 42.1212 16.9707 42.2062V44.3737C16.9707 44.5762 16.8339 44.7516 16.6372 44.8006ZM18.7294 40.3061C18.7294 40.5059 18.6514 40.6942 18.5107 40.8354C18.3696 40.9765 18.1816 41.0541 17.9812 41.0541C17.5693 41.0541 17.2341 40.7185 17.2341 40.306C17.2341 39.9177 16.9193 39.6029 16.531 39.6029C16.1427 39.6029 15.8279 39.9177 15.8279 40.306C15.8279 40.5082 15.7485 40.6976 15.6043 40.8394C15.4597 40.9814 15.2704 41.0579 15.0658 41.0542C14.6616 41.0466 14.3327 40.6896 14.3327 40.2582V37.8274C14.3327 36.7493 15.0615 35.842 16.0629 35.5806C16.3087 36.1297 16.6581 36.6332 17.1038 37.0656C17.576 37.5238 18.128 37.8769 18.7294 38.114V40.3061ZM27.2542 46.2711C27.1025 46.4755 26.8696 46.5927 26.6152 46.5927C26.4106 46.5933 26.2057 46.511 26.0589 46.3668L24.4915 44.8387C24.2185 44.5726 23.783 44.5726 23.51 44.8387L21.9429 46.3664C21.7929 46.5124 21.5952 46.5928 21.3862 46.5928C20.9467 46.5928 20.5893 46.2366 20.5893 45.7987C20.5893 45.7206 20.601 45.6423 20.624 45.566L22.5218 39.277C22.8519 39.6132 23.098 40.0364 23.2179 40.5193C23.3076 40.8803 23.6294 41.1325 24.0006 41.1325C24.3715 41.1325 24.6933 40.8806 24.7834 40.5194C24.9033 40.0364 25.1494 39.613 25.4794 39.2767L27.3773 45.5658C27.4509 45.8096 27.4061 46.0667 27.2542 46.2711ZM27.4116 37.0583C26.0106 37.0592 24.748 37.7611 24.0006 38.8694C23.253 37.7611 21.9896 37.0592 20.5878 37.0583C18.6048 37.0575 17.0514 35.5438 17.0514 33.6123V25.6261C17.0514 24.6605 17.837 23.8749 18.8026 23.8749H29.1981C30.1642 23.8749 30.9501 24.6609 30.9501 25.627V33.6095C30.9501 35.5418 29.3957 37.0567 27.4116 37.0583ZM40.4015 40.6014C40.9411 40.6014 41.4479 40.8114 41.8294 41.1937C42.2107 41.5744 42.4207 42.0812 42.4207 42.6207C42.4207 43.1596 42.2106 43.6665 41.8289 44.0481C41.4991 44.378 41.0748 44.5789 40.6169 44.6271C40.496 44.1919 40.2651 43.7923 39.9367 43.4631C39.5134 43.0398 38.9718 42.7777 38.3862 42.7061C38.385 42.6776 38.3831 42.6493 38.3831 42.6207C38.3831 41.5072 39.2886 40.6014 40.4015 40.6014ZM36.198 45.0464C36.5021 45.1224 36.8198 44.9879 36.977 44.7165C37.2001 44.331 37.6143 44.0915 38.0578 44.0915C38.3923 44.0915 38.7066 44.2214 38.9418 44.4567C39.1781 44.6937 39.3083 45.0081 39.3083 45.3421C39.3083 45.676 39.1781 45.9904 38.9425 46.2267C38.7066 46.4627 38.3923 46.5927 38.0578 46.5927C37.7567 46.5927 37.4763 46.4888 37.247 46.2922C37.164 46.2212 37.0657 46.1705 36.9598 46.144L31.5809 44.8004C31.385 44.7517 31.2482 44.5762 31.2482 44.3737V42.2065C31.4074 42.1215 31.5555 42.0185 31.6878 41.8978C31.8225 42.021 31.971 42.1235 32.1284 42.2075V43.4803C32.1284 43.8029 32.3481 44.0841 32.661 44.1624L36.198 45.0464ZM33.8871 37.8275V40.2583C33.8871 40.6896 33.5577 41.0467 33.154 41.0543C32.9518 41.0567 32.7596 40.9817 32.6153 40.8399C32.4711 40.6982 32.3917 40.5086 32.3917 40.3061C32.3917 39.9178 32.077 39.603 31.6886 39.603C31.3003 39.603 30.9855 39.9178 30.9855 40.3061C30.9855 40.7186 30.65 41.0542 30.2375 41.0542C30.0371 41.0542 29.8491 40.9765 29.709 40.8364C29.5673 40.6942 29.4893 40.5059 29.4893 40.3061V38.0211C30.0065 37.7879 30.4826 37.4666 30.8972 37.0642C31.3538 36.621 31.7099 36.1035 31.9565 35.5383C33.0511 35.7254 33.8871 36.6803 33.8871 37.8275ZM46.1881 22.1703C45.9128 22.4555 45.543 22.6126 45.1469 22.6126H42.4639C42.1087 22.6126 41.8094 22.8773 41.7661 23.2297C41.7227 23.5821 41.9488 23.9116 42.2933 23.9977L44.5242 24.5555C45.3036 24.7506 45.8003 25.5259 45.6315 26.2838C45.4853 26.941 44.8925 27.418 44.2217 27.418C44.105 27.418 43.9858 27.4032 43.8691 27.3743L41.7514 26.8446C41.4198 26.7616 41.0763 26.9295 40.9379 27.2422C40.7995 27.555 40.9062 27.922 41.1908 28.1117L41.9668 28.629C42.6457 29.0821 42.8482 29.9879 42.4185 30.6481C42.1499 31.0604 41.6955 31.3065 41.203 31.3065C40.9188 31.3065 40.6421 31.2224 40.4033 31.0636L39.3019 30.3295C39.0227 30.1435 38.6514 30.1806 38.4147 30.4176C38.1778 30.6546 38.1411 31.026 38.3271 31.3048L38.7271 31.9044C39.1841 32.5903 39.0213 33.5089 38.3631 33.9529C38.1237 34.1148 37.8448 34.2005 37.5563 34.2005C37.0703 34.2005 36.6196 33.9597 36.3507 33.5564C36.346 33.5494 36.3412 33.5424 36.3364 33.5356C35.6483 32.5801 34.5331 32.0096 33.3527 32.0096C33.0171 32.0133 32.6785 32.0557 32.3562 32.0677V27.9814C33.6654 28.1087 34.9523 27.5855 35.8064 26.5287C35.8103 26.5239 35.8136 26.5197 35.8174 26.5147L35.8267 26.5035C35.8303 26.4992 35.8339 26.4949 35.8373 26.4905C36.8236 25.2538 36.7463 23.3398 35.6608 22.1324C35.4214 21.8668 35.2895 21.5236 35.2895 21.166C35.2895 20.7801 35.44 20.4171 35.7134 20.1436C35.987 19.8701 36.3501 19.7196 36.736 19.7196H45.0953C45.8932 19.7196 46.5651 20.345 46.5929 21.1131C46.6069 21.5099 46.4631 21.8854 46.1881 22.1703Z" fill="#3F457A"/>
<path d="M30.0121 33.0717C30.0121 32.6834 29.6974 32.3686 29.309 32.3686C28.9207 32.3686 28.6059 32.6834 28.6059 33.0717V33.6098C28.6059 34.229 28.0802 34.7145 27.4097 34.715C26.1912 34.715 25.0223 35.0492 24.0002 35.6859C22.9779 35.0492 21.8085 34.715 20.5894 34.715C19.9087 34.7145 19.3954 34.2405 19.3954 33.6126V26.2189H28.6059V30.2594C28.6059 30.6477 28.9206 30.9625 29.309 30.9625C29.6973 30.9625 30.0121 30.6477 30.0121 30.2594V25.6274C30.0121 25.1781 29.6471 24.8127 29.1984 24.8127H18.802C18.3538 24.8127 17.9893 25.1777 17.9893 25.6264V33.6126C17.9893 35.018 19.1309 36.12 20.5889 36.1213C21.6759 36.1213 22.7116 36.4602 23.5839 37.1012C23.7078 37.1923 23.854 37.2377 24.0003 37.2377C24.1465 37.2377 24.2928 37.1922 24.4166 37.1012C25.289 36.4602 26.3241 36.1213 27.4104 36.1213C28.8694 36.12 30.0122 35.0168 30.0122 33.6098V33.0717H30.0121Z" fill="#3F457A"/>
<path d="M18.544 9.42663H29.4573C29.8456 9.42663 30.1604 9.11182 30.1604 8.72351C30.1604 8.33519 29.8457 8.02038 29.4573 8.02038H29.2336L29.5569 6.67432C29.8199 5.57932 29.5708 4.44419 28.8737 3.55975C28.1765 2.67541 27.1309 2.16822 26.0048 2.16822H24.7038V0.704224C24.7038 0.315911 24.389 0.00109863 24.0006 0.00109863C23.6123 0.00109863 23.2975 0.315911 23.2975 0.704224V2.16832H21.9965C20.8704 2.16832 19.8248 2.6755 19.1277 3.55994C18.4306 4.44429 18.1816 5.5795 18.4445 6.6745L18.7678 8.02057H18.544C18.1557 8.02057 17.8409 8.33538 17.8409 8.72369C17.8409 9.11201 18.1557 9.42663 18.544 9.42663ZM25.1794 3.57447L24.4631 8.02047H23.5382L22.8219 3.57447H25.1794ZM27.7694 4.43041C28.1982 4.97435 28.3514 5.6726 28.1896 6.346L27.7874 8.02047H25.8874L26.5912 3.65219C27.0525 3.77594 27.465 4.04435 27.7694 4.43041ZM19.8118 6.346C19.6501 5.6726 19.8033 4.97435 20.232 4.43041C20.5363 4.04435 20.9489 3.77594 21.4102 3.65219L22.114 8.02047H20.214L19.8118 6.346Z" fill="#3F457A"/>
</g>
<defs>
<clipPath id="clip0_4_355">
<rect width="48" height="48" fill="white"/>
</clipPath>
</defs>
</svg>
