<svg width="48" height="48" viewBox="0 0 48 48" fill="none" xmlns="http://www.w3.org/2000/svg">
<path d="M43.5892 31.5384C42.6283 30.9835 41.5124 30.9722 40.5768 31.4055L36.2317 28.8968C36.1457 27.9115 35.6203 27.0503 34.8531 26.5105V21.4894C35.6204 20.9496 36.1458 20.0883 36.2318 19.103L37.0941 18.6051C37.4304 18.4109 37.5456 17.9809 37.3515 17.6446C37.1573 17.3083 36.7271 17.1932 36.391 17.3873L36.0118 17.6062C35.8942 17.3124 35.7351 17.0396 35.5418 16.7949L38.9224 14.8432C39.0383 15.1333 39.1967 15.408 39.3907 15.6552L39.2271 15.75C38.8908 15.9442 38.7756 16.3742 38.9697 16.7105C39.1648 17.0484 39.5955 17.161 39.9302 16.9678L40.5768 16.5945C40.7472 16.6734 40.9257 16.7382 41.1109 16.7879C41.9511 17.0132 42.832 16.8989 43.5892 16.4617C45.1524 15.5592 45.6874 13.5637 44.7847 12.0001C43.8844 10.4405 41.883 9.90431 40.3232 10.8046C39.3673 11.3565 38.7959 12.3219 38.704 13.3458L34.3566 15.8558C33.5061 15.4583 32.4916 15.439 31.5999 15.8558L27.2511 13.3449C27.157 12.3724 26.6346 11.5232 25.8753 10.989V5.93897C26.716 5.3475 27.2663 4.36987 27.2663 3.26616C27.2662 1.46522 25.8011 0 24.0002 0C22.1992 0 20.7341 1.46522 20.7341 3.26616C20.7341 4.36987 21.2845 5.3475 22.1252 5.93897V6.74559C22.1252 7.134 22.44 7.44872 22.8283 7.44872C23.2166 7.44872 23.5314 7.134 23.5314 6.74559V6.49856C23.8375 6.54272 24.1542 6.54394 24.4689 6.49856V10.4293C24.1628 10.3852 23.8461 10.3839 23.5314 10.4293V10.0268C23.5314 9.63844 23.2166 9.32372 22.8283 9.32372C22.44 9.32372 22.1252 9.63844 22.1252 10.0268V10.9889C21.3659 11.5231 20.8434 12.3723 20.7494 13.3448L16.4005 15.8557C15.55 15.4581 14.5355 15.4388 13.6438 15.8557L9.29643 13.3457C9.20456 12.3218 8.63315 11.3564 7.67727 10.8045C6.11756 9.90394 4.11609 10.4403 3.21571 12C2.31327 13.5633 2.84765 15.5589 4.41121 16.4616C5.35649 17.0074 6.47109 17.0357 7.42368 16.5945L11.7686 19.1032C11.8547 20.0885 12.3801 20.9497 13.1473 21.4895V26.5106C12.3801 27.0504 11.8547 27.9116 11.7687 28.8969L7.42368 31.4056C7.25324 31.3267 7.07474 31.2619 6.88959 31.2122C6.04687 30.9862 5.16674 31.1022 4.41121 31.5384C3.65568 31.9746 3.11521 32.6789 2.88946 33.5215C2.66371 34.3642 2.77959 35.2444 3.21571 36C4.11177 37.552 6.11034 38.1001 7.67727 37.1955C8.63315 36.6436 9.20456 35.6782 9.29652 34.6543L10.0521 34.218C10.3884 34.0238 10.5036 33.5938 10.3095 33.2575C10.1153 32.9212 9.68512 32.8062 9.34902 33.0002L9.07809 33.1567C8.96212 32.8666 8.80377 32.5919 8.60971 32.3446L11.9887 30.3937C12.1063 30.6874 12.2654 30.9602 12.4587 31.2048L12.3199 31.2849C11.9836 31.4791 11.8684 31.9091 12.0625 32.2454C12.2572 32.5828 12.6876 32.6963 13.0231 32.5028L13.6441 32.1442C14.4947 32.5417 15.5091 32.5609 16.4008 32.1442L20.7469 34.6534C20.8329 35.6387 21.3583 36.4999 22.1255 37.0397V42.0609C21.2847 42.6524 20.7344 43.63 20.7344 44.7337C20.7344 46.5347 22.1995 47.9999 24.0005 47.9999C25.8014 47.9999 27.2665 46.5347 27.2665 44.7337C27.2665 43.63 26.7161 42.6524 25.8755 42.0609V37.0397C26.6426 36.4999 27.1681 35.6387 27.2541 34.6534L31.6001 32.1442C32.4506 32.5417 33.4652 32.561 34.3568 32.1442L38.7042 34.6542C38.7961 35.6781 39.3675 36.6435 40.3234 37.1954C41.8926 38.1015 43.8903 37.5496 44.7849 35.9999C45.6873 34.4367 45.1528 32.4411 43.5892 31.5384ZM22.1403 3.26616C22.1403 2.24063 22.9746 1.40625 24.0001 1.40625C25.0256 1.40625 25.8599 2.24053 25.8599 3.26616C25.8599 4.29159 25.0256 5.12597 24.0001 5.12597C22.9746 5.12597 22.1403 4.29159 22.1403 3.26616ZM38.9225 33.1567L35.5419 31.2049C35.7352 30.9603 35.8942 30.6875 36.0119 30.3938L39.3909 32.3447C39.1971 32.5913 39.0386 32.8659 38.9225 33.1567ZM33.4469 25.9509C33.1408 25.9068 32.8241 25.9056 32.5094 25.9509V22.0491C32.8155 22.0932 33.1322 22.0944 33.4469 22.0491V25.9509ZM25.8582 34.2851C25.9045 35.3466 25.0536 36.2268 24.0002 36.2268C22.9461 36.2268 22.0959 35.3459 22.1421 34.2851C22.1425 34.279 22.1428 34.2729 22.143 34.2668C22.1952 33.2876 23.0082 32.5072 24.0002 32.5072C24.9921 32.5072 25.8051 33.2877 25.8574 34.2668C25.8575 34.2728 25.8578 34.2789 25.8582 34.2851ZM21.4209 15.6634L18.0557 17.6063C17.9381 17.3125 17.779 17.0397 17.5857 16.7951L20.9571 14.8486C21.0726 15.1433 21.2296 15.4174 21.4209 15.6634ZM18.2757 19.1031L22.5945 16.6096C23.4811 17.0341 24.5189 17.0342 25.4058 16.6096L29.7246 19.1031C29.8106 20.0884 30.336 20.9496 31.1031 21.4894V26.5106C30.336 27.0504 29.8105 27.9116 29.7246 28.8969L25.3785 31.4062C24.528 31.0087 23.5134 30.9893 22.6218 31.4062L18.2757 28.8969C18.1896 27.9116 17.6643 27.0504 16.8971 26.5106V21.4894C17.6643 20.9497 18.1896 20.0884 18.2757 19.1031ZM27.043 14.8486L30.4145 16.7951C30.2211 17.0397 30.0621 17.3125 29.9445 17.6063L26.5792 15.6634C26.7707 15.4174 26.9277 15.1433 27.043 14.8486ZM18.0558 30.3937L21.4365 32.3455C21.2432 32.5901 21.0842 32.8629 20.9665 33.1567L17.5858 31.2048C17.7791 30.9603 17.9381 30.6875 18.0558 30.3937ZM26.5639 32.3455L29.9446 30.3937C30.0621 30.6874 30.2212 30.9602 30.4146 31.2048L27.0338 33.1567C26.9162 32.863 26.7571 32.5901 26.5639 32.3455ZM41.0263 12.0223C41.9219 11.5054 43.0585 11.8224 43.5669 12.7031C44.0808 13.5932 43.7765 14.7297 42.8861 15.2438C41.9958 15.7575 40.8595 15.4534 40.3455 14.563C39.8328 13.6748 40.1382 12.5351 41.0263 12.0223ZM34.8352 18.7139C34.8355 18.7217 34.8359 18.7294 34.8364 18.7372C34.881 19.7948 34.0336 20.6763 32.9781 20.6763C31.9526 20.6763 31.1183 19.842 31.1183 18.8165C31.1183 17.7924 31.9512 16.9566 32.9781 16.9566C33.9693 16.9567 34.7818 17.7359 34.8352 18.7139ZM25.86 13.6618C25.86 14.6868 25.0262 15.5217 24.0002 15.5217C22.9751 15.5217 22.1404 14.6878 22.1404 13.6618C22.1404 12.6364 22.9746 11.802 24.0002 11.802C25.0257 11.802 25.86 12.6363 25.86 13.6618ZM16.8819 18.8166C16.8819 19.842 16.0476 20.6764 15.0221 20.6764C13.9966 20.6764 13.1622 19.8421 13.1622 18.8166C13.1622 17.7925 13.9951 16.9567 15.0221 16.9567C16.0502 16.9567 16.8819 17.7936 16.8819 18.8166ZM9.07781 14.8433L12.4583 16.7951C12.265 17.0397 12.106 17.3125 11.9884 17.6063L8.60943 15.6554C8.80321 15.4087 8.96165 15.1341 9.07781 14.8433ZM5.11415 15.2438C4.22409 14.7299 3.91931 13.5935 4.43334 12.7031C4.94456 11.8177 6.08343 11.5082 6.97396 12.0223C7.86205 12.5351 8.1674 13.6748 7.65468 14.563C7.14074 15.4532 6.0044 15.7577 5.11415 15.2438ZM14.5534 22.0491C14.8595 22.0932 15.1761 22.0944 15.4909 22.0491V25.951C15.1848 25.9069 14.8681 25.9057 14.5534 25.951V22.0491ZM6.97396 35.9777C6.08568 36.4903 4.94606 36.185 4.43334 35.2969C4.18499 34.8667 4.11899 34.3654 4.24762 33.8856C4.47459 33.0382 5.23912 32.5062 6.04106 32.5062C6.68943 32.5062 7.31155 32.8426 7.65468 33.437C8.16749 34.3252 7.86205 35.4649 6.97396 35.9777ZM13.1623 29.1834C13.1623 28.158 13.9966 27.3236 15.0221 27.3236C16.0476 27.3236 16.8819 28.1579 16.8819 29.1834C16.8819 30.2075 16.0491 31.0433 15.0221 31.0433C13.9941 31.0433 13.1623 30.2064 13.1623 29.1834ZM24.0002 46.5938C22.9746 46.5938 22.1404 45.7595 22.1404 44.7338C22.1404 43.7084 22.9746 42.874 24.0002 42.874C25.0257 42.874 25.86 43.7083 25.86 44.7338C25.86 45.7595 25.0257 46.5938 24.0002 46.5938ZM24.4689 41.5014C24.1628 41.4573 23.8461 41.4561 23.5314 41.5014V37.5995C23.8375 37.6436 24.1542 37.6448 24.4689 37.5995V41.5014ZM31.1183 29.1834C31.1183 28.158 31.9526 27.3236 32.9781 27.3236C34.0037 27.3236 34.838 28.1579 34.838 29.1834C34.838 30.2075 34.0051 31.0433 32.9781 31.0433C31.9501 31.0433 31.1183 30.2064 31.1183 29.1834ZM43.5669 35.2969C43.0542 36.1851 41.9144 36.4904 41.0263 35.9777C40.1382 35.4649 39.8329 34.3252 40.3456 33.437C40.8607 32.5447 41.9978 32.2435 42.8862 32.7562C43.7763 33.2701 44.081 34.4065 43.5669 35.2969Z" fill="#3F457A"/>
<path d="M20.0836 26.5042H21.4958V27.9165C21.4958 28.3577 21.8548 28.7166 22.2961 28.7166H25.7042C26.1455 28.7166 26.5044 28.3577 26.5044 27.9165V26.5042H27.9167C28.358 26.5042 28.7168 26.1453 28.7168 25.7041V22.2959C28.7168 21.8547 28.3579 21.4957 27.9167 21.4957H26.5044V20.0835C26.5044 19.6423 26.1455 19.2833 25.7042 19.2833H22.2961C21.8548 19.2833 21.4958 19.6423 21.4958 20.0835V21.4957H20.0836C19.6423 21.4957 19.2833 21.8547 19.2833 22.2959V25.7041C19.2834 26.1453 19.6424 26.5042 20.0836 26.5042ZM20.6897 22.902H22.102C22.5433 22.902 22.9022 22.543 22.9022 22.1018V20.6896H25.0982V22.1018C25.0982 22.543 25.4571 22.902 25.8983 22.902H27.3106V25.098H25.8983C25.457 25.098 25.0982 25.457 25.0982 25.8981V27.3104H22.9022V25.8981C22.9022 25.457 22.5432 25.098 22.102 25.098H20.6897V22.902Z" fill="#3F457A"/>
</svg>
