<svg width="48" height="48" viewBox="0 0 48 48" fill="none" xmlns="http://www.w3.org/2000/svg">
<path d="M32.6662 41.4734C29.9748 42.8147 27.0072 43.5087 24 43.5C22.7883 43.5002 21.5791 43.3884 20.388 43.1662L20.112 44.6406C21.3942 44.8798 22.6957 45.0001 24 45C27.2389 45.0092 30.4351 44.2615 33.3338 42.8167L32.6662 41.4734Z" fill="white"/>
<path d="M40.2167 13.1672L41.4633 12.3328C39.4214 9.28318 36.6193 6.81891 33.3338 5.18329L32.6662 6.52655C35.7177 8.04578 38.3202 10.3347 40.2167 13.1672Z" fill="white"/>
<path d="M8.54205 12.1113C10.6794 9.33392 13.5239 7.18208 16.778 5.88092L16.222 4.48767C12.6892 5.89837 9.60534 8.2414 7.29938 11.2669C4.99343 14.2925 3.55179 17.8871 3.12817 21.6676L4.61901 21.8324C5.01125 18.2938 6.36834 14.931 8.54205 12.1113Z" fill="white"/>
<path d="M25.0328 39.3908C25.2997 39.5627 25.5999 39.6761 25.9137 39.7237C26.2275 39.7712 26.5478 39.7518 26.8536 39.6668C27.1594 39.5817 27.4437 39.4329 27.6879 39.2301C27.9321 39.0273 28.1305 38.7751 28.2703 38.4901C28.41 38.2051 28.4879 37.8938 28.4987 37.5765C28.5095 37.2593 28.4531 36.9434 28.3331 36.6496C28.2131 36.3557 28.0323 36.0906 27.8025 35.8716C27.5728 35.6526 27.2993 35.4847 27 35.379V27.621C27.2995 27.5154 27.5733 27.3476 27.8033 27.1286C28.0333 26.9097 28.2143 26.6445 28.3344 26.3505C28.4546 26.0565 28.5111 25.7405 28.5004 25.4231C28.4896 25.1057 28.4117 24.7942 28.2719 24.5091C28.1321 24.2239 27.9335 23.9716 27.6892 23.7688C27.4448 23.5659 27.1603 23.4171 26.8543 23.3321C26.5484 23.2471 26.2279 23.2278 25.9139 23.2756C25.6 23.3233 25.2997 23.437 25.0328 23.6092L21.75 21.6942V18.75C21.7493 18.1535 21.512 17.5816 21.0902 17.1597C20.6684 16.7379 20.0965 16.5007 19.5 16.5C19.3012 16.4998 19.1105 16.4207 18.9699 16.2801C18.8293 16.1395 18.7502 15.9488 18.75 15.75V12.75H16.4014L18.75 9.22708V8.99998C18.75 8.42642 18.8326 7.85584 18.9951 7.30579L22.1894 10.5H24.75V8.99998H22.8106L19.6519 5.8412C20.1412 5.05473 20.8047 4.39121 21.5912 3.90188L23.25 5.56062V7.49998H24.75V4.93934L23.0558 3.24512C24.2275 2.89919 25.4769 2.91982 26.6365 3.30424C27.7962 3.68866 28.8105 4.41849 29.5435 5.39584L27.4394 7.49998H26.25V8.99998H28.0606L30.3106 6.75002C30.6012 7.46455 30.7504 8.22864 30.75 8.99998V9.55616C30.7494 10.1296 30.6665 10.7001 30.5038 11.25H25.9394L24.2196 12.9697L25.2804 14.0303L26.5606 12.75H29.8286C29.6868 12.976 29.53 13.1922 29.3593 13.3973L27.5214 15.6027C27.1848 16.0073 27.0003 16.5168 27 17.0431V22.5H28.5V17.0431C28.5001 16.8677 28.5616 16.6978 28.6738 16.5629L30.5116 14.3576C31.6338 13.0091 32.2488 11.3105 32.25 9.55616V8.99998C32.25 7.03099 31.4757 5.14097 30.0942 3.73794C28.7128 2.33491 26.835 1.53141 24.8662 1.5009C22.8974 1.47039 20.9957 2.21532 19.5714 3.57486C18.1471 4.93441 17.3146 6.79953 17.2536 8.76758L15.1534 11.9179C15.0027 12.1438 14.9163 12.4063 14.9031 12.6775C14.89 12.9487 14.9508 13.2184 15.0789 13.4578C15.207 13.6971 15.3977 13.8973 15.6306 14.0368C15.8635 14.1763 16.1299 14.25 16.4014 14.25H17.25V15.75C17.2507 16.3465 17.488 16.9184 17.9098 17.3402C18.3316 17.762 18.9035 17.9993 19.5 18C19.6988 18.0002 19.8895 18.0793 20.0301 18.2199C20.1707 18.3605 20.2498 18.5511 20.25 18.75V20.8192L17.2286 19.0567C17.2729 18.7381 17.2483 18.4137 17.1567 18.1054C17.065 17.7971 16.9082 17.512 16.697 17.2694C16.4858 17.0268 16.2251 16.8323 15.9323 16.699C15.6396 16.5657 15.3217 16.4968 15 16.4968C14.6783 16.4968 14.3604 16.5657 14.0677 16.699C13.7749 16.8323 13.5142 17.0268 13.303 17.2694C13.0918 17.512 12.935 17.7971 12.8433 18.1054C12.7517 18.4137 12.7271 18.7381 12.7714 19.0567L4.96719 23.6092C4.70035 23.4373 4.40015 23.3239 4.08633 23.2763C3.77251 23.2287 3.45218 23.2481 3.14639 23.3332C2.8406 23.4183 2.55628 23.5671 2.31211 23.7699C2.06795 23.9727 1.86947 24.2249 1.72973 24.5099C1.58999 24.7949 1.51214 25.1062 1.50131 25.4234C1.49048 25.7406 1.54691 26.0565 1.66689 26.3504C1.78687 26.6443 1.96769 26.9094 2.19745 27.1284C2.42722 27.3474 2.70072 27.5152 3 27.621V35.379C2.70049 35.4846 2.42673 35.6524 2.19673 35.8713C1.96673 36.0903 1.7857 36.3555 1.66555 36.6495C1.5454 36.9434 1.48886 37.2595 1.49964 37.5769C1.51042 37.8943 1.58827 38.2058 1.72809 38.4909C1.8679 38.776 2.06651 39.0283 2.31083 39.2312C2.55516 39.434 2.83967 39.5829 3.14565 39.6679C3.45163 39.7529 3.77214 39.7722 4.08609 39.7244C4.40005 39.6766 4.70033 39.5629 4.96719 39.3908L12.7714 43.9433C12.7271 44.2619 12.7517 44.5863 12.8433 44.8946C12.935 45.2029 13.0918 45.488 13.303 45.7306C13.5142 45.9732 13.7749 46.1677 14.0677 46.3009C14.3604 46.4342 14.6783 46.5032 15 46.5032C15.3217 46.5032 15.6396 46.4342 15.9323 46.3009C16.2251 46.1677 16.4858 45.9732 16.697 45.7306C16.9082 45.488 17.065 45.2029 17.1567 44.8946C17.2483 44.5863 17.2729 44.2619 17.2286 43.9433L25.0328 39.3908ZM5.29802 27.1305L12.7698 31.206C12.7434 31.4011 12.7434 31.5989 12.7698 31.794L5.29802 35.8695C5.06932 35.6519 4.79743 35.4848 4.5 35.379V27.621C4.79743 27.5152 5.06932 27.3481 5.29802 27.1305ZM5.98018 37.206L13.452 33.1305C13.6807 33.3481 13.9526 33.5152 14.25 33.621V42.129C13.9571 42.2332 13.6889 42.3968 13.4623 42.6097L5.89039 38.1928C5.99401 37.8748 6.0247 37.5375 5.98018 37.206ZM15 30.75C15.1483 30.75 15.2933 30.794 15.4167 30.8764C15.54 30.9588 15.6361 31.0759 15.6929 31.213C15.7497 31.35 15.7645 31.5008 15.7356 31.6463C15.7066 31.7918 15.6352 31.9254 15.5303 32.0303C15.4254 32.1352 15.2918 32.2066 15.1463 32.2356C15.0008 32.2645 14.85 32.2497 14.713 32.1929C14.5759 32.1361 14.4588 32.04 14.3764 31.9167C14.294 31.7933 14.25 31.6483 14.25 31.5C14.2502 31.3011 14.3293 31.1105 14.4699 30.9699C14.6105 30.8293 14.8012 30.7502 15 30.75ZM15.75 33.621C16.0474 33.5152 16.3193 33.3481 16.548 33.1305L24.0198 37.206C23.9753 37.5375 24.006 37.8747 24.1096 38.1928L16.5377 42.6097C16.3111 42.3968 16.0429 42.2332 15.75 42.129V33.621ZM24.702 27.1305C24.9307 27.3481 25.2026 27.5152 25.5 27.621V35.379C25.2026 35.4848 24.9307 35.6519 24.702 35.8695L17.2302 31.794C17.2566 31.5989 17.2566 31.4011 17.2302 31.206L24.702 27.1305ZM26.25 38.25C26.1017 38.25 25.9567 38.206 25.8333 38.1236C25.71 38.0412 25.6139 37.924 25.5571 37.787C25.5003 37.6499 25.4855 37.4991 25.5144 37.3537C25.5434 37.2082 25.6148 37.0745 25.7197 36.9697C25.8246 36.8648 25.9582 36.7933 26.1037 36.7644C26.2492 36.7355 26.4 36.7503 26.537 36.8071C26.6741 36.8638 26.7912 36.96 26.8736 37.0833C26.956 37.2066 27 37.3516 27 37.5C26.9998 37.6988 26.9207 37.8895 26.7801 38.0301C26.6395 38.1707 26.4488 38.2498 26.25 38.25ZM27 25.5C27 25.6483 26.956 25.7933 26.8736 25.9167C26.7912 26.04 26.6741 26.1361 26.537 26.1929C26.4 26.2497 26.2492 26.2645 26.1037 26.2356C25.9582 26.2066 25.8246 26.1352 25.7197 26.0303C25.6148 25.9254 25.5434 25.7918 25.5144 25.6463C25.4855 25.5008 25.5003 25.35 25.5571 25.213C25.6139 25.0759 25.71 24.9588 25.8333 24.8764C25.9567 24.794 26.1017 24.75 26.25 24.75C26.4488 24.7502 26.6395 24.8293 26.7801 24.9699C26.9207 25.1105 26.9998 25.3011 27 25.5ZM24.1096 24.8072C24.006 25.1252 23.9753 25.4625 24.0198 25.794L16.548 29.8695C16.3193 29.6519 16.0474 29.4848 15.75 29.379V20.871C16.0429 20.7668 16.3111 20.6032 16.5377 20.3903L24.1096 24.8072ZM15 18C15.1483 18 15.2933 18.044 15.4167 18.1264C15.54 18.2088 15.6361 18.3259 15.6929 18.463C15.7497 18.6 15.7645 18.7508 15.7356 18.8963C15.7066 19.0418 15.6352 19.1754 15.5303 19.2803C15.4254 19.3852 15.2918 19.4566 15.1463 19.4856C15.0008 19.5145 14.85 19.4997 14.713 19.4429C14.5759 19.3861 14.4588 19.29 14.3764 19.1667C14.294 19.0433 14.25 18.8983 14.25 18.75C14.2502 18.5511 14.3293 18.3605 14.4699 18.2199C14.6105 18.0793 14.8012 18.0002 15 18ZM13.4623 20.3903C13.6889 20.6032 13.9571 20.7668 14.25 20.871V29.379C13.9526 29.4848 13.6807 29.6519 13.452 29.8695L5.98018 25.794C6.0247 25.4625 5.99401 25.1252 5.89039 24.8072L13.4623 20.3903ZM3.75 24.75C3.89834 24.75 4.04334 24.794 4.16668 24.8764C4.29001 24.9588 4.38614 25.0759 4.44291 25.213C4.49968 25.35 4.51453 25.5008 4.48559 25.6463C4.45665 25.7918 4.38522 25.9254 4.28033 26.0303C4.17544 26.1352 4.0418 26.2066 3.89632 26.2356C3.75083 26.2645 3.60003 26.2497 3.46299 26.1929C3.32594 26.1361 3.20881 26.04 3.1264 25.9167C3.04399 25.7933 3 25.6483 3 25.5C3.00023 25.3011 3.07932 25.1105 3.21992 24.9699C3.36052 24.8293 3.55116 24.7502 3.75 24.75ZM3 37.5C3 37.3516 3.04399 37.2066 3.1264 37.0833C3.20881 36.96 3.32594 36.8638 3.46299 36.8071C3.60003 36.7503 3.75083 36.7355 3.89632 36.7644C4.0418 36.7933 4.17544 36.8648 4.28033 36.9697C4.38522 37.0745 4.45665 37.2082 4.48559 37.3537C4.51453 37.4991 4.49968 37.6499 4.44291 37.787C4.38614 37.924 4.29001 38.0412 4.16668 38.1236C4.04334 38.206 3.89834 38.25 3.75 38.25C3.55116 38.2498 3.36052 38.1707 3.21992 38.0301C3.07932 37.8895 3.00023 37.6988 3 37.5ZM15 45C14.8517 45 14.7067 44.956 14.5833 44.8736C14.46 44.7912 14.3639 44.674 14.3071 44.537C14.2503 44.3999 14.2355 44.2491 14.2644 44.1037C14.2934 43.9582 14.3648 43.8245 14.4697 43.7197C14.5746 43.6148 14.7082 43.5433 14.8537 43.5144C14.9992 43.4855 15.15 43.5003 15.287 43.5571C15.4241 43.6138 15.5412 43.71 15.6236 43.8333C15.706 43.9566 15.75 44.1016 15.75 44.25C15.7498 44.4488 15.6707 44.6395 15.5301 44.7801C15.3895 44.9207 15.1988 44.9998 15 45Z" fill="white"/>
<path d="M41.7 39.9L40.25 38.8125L42.5999 37.05C44.5586 35.5833 45.8931 33.4328 46.3378 31.0266C46.7826 28.6204 46.3049 26.1349 45 24.065V24H44.9589C44.3321 23.0152 43.533 22.1514 42.5999 21.45L40.25 19.6875L41.7 18.6C42.7223 17.8294 43.5523 16.8325 44.1249 15.6874C44.6974 14.5424 44.997 13.2802 45 12H43.5C43.4992 12.7668 43.3673 13.5277 43.1099 14.25H34.8901C34.6327 13.5277 34.5008 12.7668 34.5 12H33C33.0031 13.2802 33.3026 14.5424 33.8751 15.6874C34.4477 16.8325 35.2777 17.8294 36.3 18.6L37.75 19.6875L35.4001 21.45C34.467 22.1514 33.6679 23.0152 33.0411 24H33V24.065C31.6951 26.1349 31.2174 28.6204 31.6622 31.0266C32.1069 33.4328 33.4414 35.5832 35.4001 37.05L37.75 38.8125L36.3 39.9C35.2777 40.6706 34.4477 41.6675 33.8751 42.8126C33.3026 43.9576 33.0031 45.2198 33 46.5H34.5C34.5008 45.7332 34.6327 44.9723 34.8901 44.25H43.1099C43.3673 44.9723 43.4992 45.7332 43.5 46.5H45C44.997 45.2198 44.6974 43.9576 44.1249 42.8126C43.5523 41.6675 42.7223 40.6706 41.7 39.9ZM33.035 30H44.965C44.8671 31.0463 44.571 32.0644 44.0925 33H33.9075C33.429 32.0644 33.1329 31.0463 33.035 30ZM33.035 28.5C33.1329 27.4537 33.429 26.4356 33.9075 25.5H44.0925C44.571 26.4356 44.8671 27.4537 44.965 28.5H33.035ZM37.2 17.4C36.591 16.9423 36.0642 16.3843 35.6422 15.75H42.3578C41.9358 16.3843 41.409 16.9423 40.8 17.4L39 18.75L37.2 17.4ZM36.3 22.65L39 20.625L41.7 22.65C42.2222 23.0421 42.6956 23.4954 43.11 24H34.89C35.3044 23.4954 35.7778 23.0421 36.3 22.65ZM36.3 35.85C35.7778 35.4579 35.3044 35.0046 34.89 34.5H43.11C42.6956 35.0046 42.2222 35.4579 41.7 35.85L39 37.875L36.3 35.85ZM35.6422 42.75C36.0642 42.1157 36.591 41.5577 37.2 41.1L39 39.75L40.8 41.1C41.409 41.5577 41.9358 42.1157 42.3578 42.75H35.6422Z" fill="white"/>
</svg>
