<svg width="48" height="48" viewBox="0 0 48 48" fill="none" xmlns="http://www.w3.org/2000/svg">
<path d="M45.75 27C45.9489 27 46.1397 26.921 46.2803 26.7803C46.421 26.6397 46.5 26.4489 46.5 26.25V14.25C46.5 14.0511 46.421 13.8603 46.2803 13.7197C46.1397 13.579 45.9489 13.5 45.75 13.5H38.25C38.0511 13.5 37.8603 13.579 37.7197 13.7197C37.579 13.8603 37.5 14.0511 37.5 14.25C37.5 14.4489 37.579 14.6397 37.7197 14.7803C37.8603 14.921 38.0511 15 38.25 15H45V25.5H30V15H35.25C35.4489 15 35.6397 14.921 35.7803 14.7803C35.921 14.6397 36 14.4489 36 14.25C36 14.0511 35.921 13.8603 35.7803 13.7197C35.6397 13.579 35.4489 13.5 35.25 13.5H29.25C29.0511 13.5 28.8603 13.579 28.7197 13.7197C28.579 13.8603 28.5 14.0511 28.5 14.25V26.25C28.5 26.4489 28.579 26.6397 28.7197 26.7803C28.8603 26.921 29.0511 27 29.25 27H34.5V30H26.9438C26.9775 29.4818 27 28.9792 27 28.5C27 20.5095 23.376 14.25 18.75 14.25H9.75001C7.47376 14.25 5.36401 15.7792 3.80851 18.5557C3.76035 18.6417 3.72959 18.7363 3.71798 18.8341C3.70637 18.9319 3.71414 19.0311 3.74084 19.1259C3.79478 19.3174 3.92259 19.4796 4.09614 19.5769C4.26969 19.6741 4.47477 19.6985 4.66627 19.6445C4.85777 19.5906 5.02 19.4628 5.11726 19.2892C6.39526 17.007 8.04076 15.75 9.75001 15.75H15.0248C12.3218 18.0645 10.5 22.8412 10.5 28.5C10.4998 30.5251 10.7612 32.5418 11.2778 34.5H4.50001C4.28559 34.5011 4.07189 34.525 3.86251 34.5713C3.28721 32.5989 2.99678 30.5545 3.00001 28.5C2.98522 26.2646 3.32183 24.0407 3.99751 21.9097C4.02834 21.8162 4.04044 21.7175 4.03311 21.6192C4.02579 21.521 3.99918 21.4251 3.95482 21.3372C3.91046 21.2492 3.8492 21.1709 3.77456 21.1066C3.69991 21.0423 3.61333 20.9933 3.51976 20.9625C3.4262 20.9317 3.32747 20.9196 3.22923 20.9269C3.13099 20.9342 3.03515 20.9608 2.94719 21.0052C2.85923 21.0496 2.78087 21.1108 2.71658 21.1855C2.6523 21.2601 2.60334 21.3467 2.57251 21.4402C1.16667 25.9421 1.14237 30.762 2.50276 35.2777C2.18861 35.5567 1.9369 35.8989 1.7641 36.2818C1.5913 36.6648 1.50131 37.0799 1.50001 37.5V45.75C1.50001 45.9489 1.57903 46.1397 1.71968 46.2803C1.86034 46.421 2.0511 46.5 2.25001 46.5H5.25001C5.44893 46.5 5.63969 46.421 5.78034 46.2803C5.921 46.1397 6.00001 45.9489 6.00001 45.75C6.00001 45.5511 5.921 45.3603 5.78034 45.2197C5.63969 45.079 5.44893 45 5.25001 45H3.00001V37.5C3.00001 37.1022 3.15805 36.7206 3.43935 36.4393C3.72066 36.158 4.10219 36 4.50001 36H15C15.3978 36 15.7794 36.158 16.0607 36.4393C16.342 36.7206 16.5 37.1022 16.5 37.5V45H8.25001C8.0511 45 7.86034 45.079 7.71968 45.2197C7.57903 45.3603 7.50001 45.5511 7.50001 45.75C7.50001 45.9489 7.57903 46.1397 7.71968 46.2803C7.86034 46.421 8.0511 46.5 8.25001 46.5H23.25C23.4489 46.5 23.6397 46.421 23.7803 46.2803C23.921 46.1397 24 45.9489 24 45.75V39.5385C24.7472 38.4442 25.3431 37.2539 25.7715 36H28.125L30 38.4998V42.573L28.575 45.4148C28.5177 45.5294 28.4908 45.6568 28.4967 45.7849C28.5027 45.9129 28.5414 46.0373 28.609 46.1461C28.6767 46.255 28.7712 46.3446 28.8834 46.4066C28.9956 46.4685 29.1218 46.5007 29.25 46.5H42C42.1393 46.5 42.2758 46.4612 42.3943 46.388C42.5128 46.3148 42.6085 46.21 42.6708 46.0854C42.7331 45.9608 42.7595 45.8214 42.747 45.6826C42.7345 45.5439 42.6836 45.4114 42.6 45.3L40.5 42.5002V38.427L41.7135 36H42.75C42.9489 36 43.1397 35.921 43.2803 35.7803C43.421 35.6397 43.5 35.4489 43.5 35.25C43.5 35.0511 43.421 34.8603 43.2803 34.7197C43.1397 34.579 42.9489 34.5 42.75 34.5H15.9653C15.623 33.5259 15.3744 32.5213 15.2228 31.5H45V35.25C45 35.4489 45.079 35.6397 45.2197 35.7803C45.3603 35.921 45.5511 36 45.75 36C45.9489 36 46.1397 35.921 46.2803 35.7803C46.421 35.6397 46.5 35.4489 46.5 35.25V30.75C46.5 30.5511 46.421 30.3603 46.2803 30.2197C46.1397 30.079 45.9489 30 45.75 30H40.5V27H45.75ZM12 28.5C12 21.5887 15.0915 15.75 18.75 15.75C22.4085 15.75 25.5 21.5887 25.5 28.5C25.5 28.9755 25.476 29.475 25.44 30H20.925C20.7509 29.1536 20.2904 28.393 19.621 27.8465C18.9515 27.3001 18.1142 27.0011 17.25 27H15.0608C15.4418 21.8355 17.7 18.75 18.75 18.75C19.7415 18.75 22.275 21.9128 22.4805 27.7762C22.4875 27.9752 22.5732 28.1632 22.7187 28.2989C22.8643 28.4346 23.0579 28.507 23.2568 28.5C23.4557 28.493 23.6437 28.4073 23.7794 28.2618C23.9151 28.1162 23.9875 27.9227 23.9805 27.7238C23.7653 21.5513 21.051 17.25 18.75 17.25C16.275 17.25 13.5 22.0612 13.5 28.5C13.4828 30.5337 13.7811 32.5577 14.3843 34.5H12.8325C12.277 32.5485 11.9967 30.529 12 28.5ZM17.583 36H20.883C20.0475 37.6103 19.1715 38.25 18.7523 38.25C18.4684 38.205 18.206 38.0717 18.0023 37.869V37.5C17.9985 36.9716 17.8537 36.4538 17.583 36ZM18 45V42.6825C18.2479 42.724 18.4987 42.7465 18.75 42.75C20.1434 42.7223 21.4781 42.1834 22.5 41.2357V45H18ZM18.75 41.25C18.4975 41.2466 18.246 41.2159 18 41.1585V39.5902C18.2385 39.6879 18.4925 39.742 18.75 39.75C20.0843 39.75 21.5078 38.319 22.539 36H24.1718C22.893 39.2617 20.8695 41.25 18.75 41.25ZM39 39V42H37.5V39H39ZM36 42H34.5V39H36V42ZM33 42H31.5V39H33V42ZM30.4635 45L31.2135 43.5H39.375L40.5 45H30.4635ZM40.0365 36L39.2865 37.5H31.125L30 36H40.0365ZM15 28.5H17.25C17.7137 28.5019 18.1655 28.6471 18.5435 28.9156C18.9216 29.1841 19.2075 29.5628 19.362 30H15.06C15.0248 29.5222 15 29.0288 15 28.5ZM39 30H36V27H39V30Z" fill="white"/>
<path d="M36 17.25C36 17.0511 35.921 16.8603 35.7803 16.7197C35.6397 16.579 35.4489 16.5 35.25 16.5H32.25C32.0511 16.5 31.8603 16.579 31.7197 16.7197C31.579 16.8603 31.5 17.0511 31.5 17.25V20.25C31.5 20.4489 31.579 20.6397 31.7197 20.7803C31.8603 20.921 32.0511 21 32.25 21H35.25C35.4489 21 35.6397 20.921 35.7803 20.7803C35.921 20.6397 36 20.4489 36 20.25V17.25ZM34.5 19.5H33V18H34.5V19.5Z" fill="white"/>
<path d="M42.75 18C42.9489 18 43.1397 17.921 43.2803 17.7803C43.421 17.6397 43.5 17.4489 43.5 17.25C43.5 17.0511 43.421 16.8603 43.2803 16.7197C43.1397 16.579 42.9489 16.5 42.75 16.5H39.75C39.5511 16.5 39.3603 16.579 39.2197 16.7197C39.079 16.8603 39 17.0511 39 17.25C39 17.4489 39.079 17.6397 39.2197 17.7803C39.3603 17.921 39.5511 18 39.75 18H42.75Z" fill="white"/>
<path d="M37.5 20.25C37.5 20.4489 37.579 20.6397 37.7197 20.7803C37.8603 20.921 38.0511 21 38.25 21H43.5C43.6989 21 43.8897 20.921 44.0303 20.7803C44.171 20.6397 44.25 20.4489 44.25 20.25C44.25 20.0511 44.171 19.8603 44.0303 19.7197C43.8897 19.579 43.6989 19.5 43.5 19.5H38.25C38.0511 19.5 37.8603 19.579 37.7197 19.7197C37.579 19.8603 37.5 20.0511 37.5 20.25Z" fill="white"/>
<path d="M41.25 22.5C41.0511 22.5 40.8603 22.579 40.7197 22.7197C40.579 22.8603 40.5 23.0511 40.5 23.25C40.5 23.4489 40.579 23.6397 40.7197 23.7803C40.8603 23.921 41.0511 24 41.25 24H42.75C42.9489 24 43.1397 23.921 43.2803 23.7803C43.421 23.6397 43.5 23.4489 43.5 23.25C43.5 23.0511 43.421 22.8603 43.2803 22.7197C43.1397 22.579 42.9489 22.5 42.75 22.5H41.25Z" fill="white"/>
<path d="M35.25 22.5H32.25C32.0511 22.5 31.8603 22.579 31.7197 22.7197C31.579 22.8603 31.5 23.0511 31.5 23.25C31.5 23.4489 31.579 23.6397 31.7197 23.7803C31.8603 23.921 32.0511 24 32.25 24H35.25C35.4489 24 35.6397 23.921 35.7803 23.7803C35.921 23.6397 36 23.4489 36 23.25C36 23.0511 35.921 22.8603 35.7803 22.7197C35.6397 22.579 35.4489 22.5 35.25 22.5Z" fill="white"/>
<path d="M38.25 24C38.6642 24 39 23.6642 39 23.25C39 22.8358 38.6642 22.5 38.25 22.5C37.8358 22.5 37.5 22.8358 37.5 23.25C37.5 23.6642 37.8358 24 38.25 24Z" fill="white"/>
<path d="M13.5 39.75C13.6989 39.75 13.8897 39.671 14.0303 39.5303C14.171 39.3897 14.25 39.1989 14.25 39C14.25 38.8011 14.171 38.6103 14.0303 38.4697C13.8897 38.329 13.6989 38.25 13.5 38.25H6C5.80109 38.25 5.61032 38.329 5.46967 38.4697C5.32902 38.6103 5.25 38.8011 5.25 39C5.25 39.1989 5.32902 39.3897 5.46967 39.5303C5.61032 39.671 5.80109 39.75 6 39.75H13.5Z" fill="white"/>
<path d="M4.5 42.75C4.5 42.9489 4.57902 43.1397 4.71967 43.2803C4.86032 43.421 5.05109 43.5 5.25 43.5H13.5C13.6989 43.5 13.8897 43.421 14.0303 43.2803C14.171 43.1397 14.25 42.9489 14.25 42.75C14.25 42.5511 14.171 42.3603 14.0303 42.2197C13.8897 42.079 13.6989 42 13.5 42H5.25C5.05109 42 4.86032 42.079 4.71967 42.2197C4.57902 42.3603 4.5 42.5511 4.5 42.75Z" fill="white"/>
<path d="M5.25 32.25H8.25C8.44891 32.25 8.63968 32.171 8.78033 32.0303C8.92098 31.8897 9 31.6989 9 31.5C9 31.3011 8.92098 31.1103 8.78033 30.9697C8.63968 30.829 8.44891 30.75 8.25 30.75H5.25C5.05109 30.75 4.86032 30.829 4.71967 30.9697C4.57902 31.1103 4.5 31.3011 4.5 31.5C4.5 31.6989 4.57902 31.8897 4.71967 32.0303C4.86032 32.171 5.05109 32.25 5.25 32.25Z" fill="white"/>
<path d="M4.5 28.5C4.5 28.6989 4.57902 28.8897 4.71967 29.0303C4.86032 29.171 5.05109 29.25 5.25 29.25H8.25C8.44891 29.25 8.63968 29.171 8.78033 29.0303C8.92098 28.8897 9 28.6989 9 28.5C9 28.3011 8.92098 28.1103 8.78033 27.9697C8.63968 27.829 8.44891 27.75 8.25 27.75H5.25C5.05109 27.75 4.86032 27.829 4.71967 27.9697C4.57902 28.1103 4.5 28.3011 4.5 28.5Z" fill="white"/>
<path d="M5.25 23.25C5.25 23.695 5.38196 24.13 5.62919 24.5C5.87643 24.87 6.22783 25.1584 6.63896 25.3287C7.0501 25.499 7.5025 25.5436 7.93895 25.4568C8.37541 25.37 8.77632 25.1557 9.09099 24.841C9.40566 24.5263 9.61995 24.1254 9.70677 23.689C9.79358 23.2525 9.74903 22.8001 9.57873 22.389C9.40843 21.9778 9.12004 21.6264 8.75003 21.3792C8.38002 21.132 7.94501 21 7.5 21C6.90326 21 6.33097 21.2371 5.90901 21.659C5.48705 22.081 5.25 22.6533 5.25 23.25ZM8.25 23.25C8.25 23.3983 8.20601 23.5433 8.1236 23.6667C8.04119 23.79 7.92406 23.8861 7.78701 23.9429C7.64997 23.9997 7.49917 24.0145 7.35368 23.9856C7.2082 23.9567 7.07456 23.8852 6.96967 23.7803C6.86478 23.6754 6.79335 23.5418 6.76441 23.3963C6.73547 23.2508 6.75032 23.1 6.80709 22.963C6.86386 22.8259 6.95999 22.7088 7.08332 22.6264C7.20666 22.544 7.35166 22.5 7.5 22.5C7.69891 22.5 7.88968 22.579 8.03033 22.7197C8.17098 22.8603 8.25 23.0511 8.25 23.25Z" fill="white"/>
<path d="M10.5 19.5C10.6989 19.5 10.8897 19.421 11.0303 19.2803C11.171 19.1397 11.25 18.9489 11.25 18.75C11.25 18.5511 11.171 18.3603 11.0303 18.2197C10.8897 18.079 10.6989 18 10.5 18H8.25C8.05109 18 7.86032 18.079 7.71967 18.2197C7.57902 18.3603 7.5 18.5511 7.5 18.75C7.5 18.9489 7.57902 19.1397 7.71967 19.2803C7.86032 19.421 8.05109 19.5 8.25 19.5H10.5Z" fill="white"/>
</svg>
