<svg width="48" height="48" viewBox="0 0 48 48" fill="none" xmlns="http://www.w3.org/2000/svg">
<g clip-path="url(#clip0_4_351)">
<path d="M47.2955 44.2923H44.0576V31.1085C44.0576 30.7194 43.7422 30.404 43.3531 30.404C42.964 30.404 42.6486 30.7194 42.6486 31.1085V44.2923H37.1618V21.1029C37.1618 20.9735 37.2671 20.8681 37.3966 20.8681H42.4138C42.5432 20.8681 42.6486 20.9735 42.6486 21.1029V28.2904C42.6486 28.6795 42.964 28.9949 43.3531 28.9949C43.7422 28.9949 44.0576 28.6795 44.0576 28.2904V21.1029C44.0576 20.1966 43.3202 19.4591 42.4138 19.4591H37.3966C36.4902 19.4591 35.7528 20.1966 35.7528 21.1029V44.2924H33.4541V26.23C33.4541 25.3237 32.7166 24.5862 31.8103 24.5862H26.7931C25.8867 24.5862 25.1493 25.3237 25.1493 26.23V44.2924H22.8506V31.3571C22.8506 30.4507 22.1133 29.7133 21.2068 29.7133H16.1896C15.2833 29.7133 14.5458 30.4507 14.5458 31.3571V37.5174C14.5458 37.9065 14.8612 38.2219 15.2503 38.2219C15.6394 38.2219 15.9548 37.9065 15.9548 37.5174V31.3571C15.9548 31.2276 16.0602 31.1223 16.1896 31.1223H21.2068C21.3363 31.1223 21.4416 31.2276 21.4416 31.3571V44.2923H15.9548V40.3354C15.9548 39.9464 15.6394 39.6309 15.2503 39.6309C14.8612 39.6309 14.5458 39.9464 14.5458 40.3354V44.2923H12.2471V36.4842C12.2471 35.5778 11.5098 34.8403 10.6033 34.8403H5.58622C4.67986 34.8403 3.94239 35.5778 3.94239 36.4842V44.2923H0.704501C0.315429 44.2923 0 44.6077 0 44.9968C0 45.3859 0.315429 45.7013 0.704501 45.7013H47.2955C47.6846 45.7013 48 45.3859 48 44.9968C48 44.6077 47.6846 44.2923 47.2955 44.2923ZM26.5583 26.23C26.5583 26.1006 26.6637 25.9952 26.7931 25.9952H31.8103C31.9397 25.9952 32.0451 26.1006 32.0451 26.23V44.2924H26.5583V26.23ZM5.35139 36.4842C5.35139 36.3547 5.45678 36.2493 5.58622 36.2493H10.6034C10.7329 36.2493 10.8382 36.3547 10.8382 36.4842V44.2923H5.35139V36.4842Z" fill="#3F457A"/>
<path d="M7.52304 26.4299C7.56165 26.4299 7.60063 26.4285 7.63971 26.4258C12.8354 26.0649 17.7211 24.9311 22.1614 23.0557C28.1405 20.5304 33.0903 16.7238 36.8835 11.7359L39.258 13.3868C39.7258 13.7356 40.4386 13.3164 40.3611 12.738L39.377 2.93439C39.345 2.51573 38.9023 2.20772 38.4984 2.32298L28.9569 4.80808C28.3873 4.93658 28.2422 5.75099 28.7322 6.06829L31.1283 7.7343C30.6516 8.48332 29.6013 9.9685 27.7698 11.7852C27.4936 12.0593 27.4918 12.5053 27.7658 12.7814C28.0398 13.0577 28.4859 13.0595 28.7621 12.7855C31.5854 9.98485 32.6514 7.9371 32.6953 7.85134C32.8562 7.53741 32.7602 7.15285 32.4706 6.95146L30.7939 5.78565L38.0573 3.89392L38.8065 11.3567L37.1284 10.1899C36.8141 9.97142 36.3833 10.0437 36.1574 10.3526C32.466 15.4034 27.5726 19.2407 21.6133 21.7576C16.2612 24.018 11.0072 24.7794 7.54221 25.0201C7.33978 25.072 7.27844 24.7003 7.48002 24.6787C15.199 22.2966 21.6454 18.9479 26.6401 14.7256C26.9373 14.4744 26.9745 14.0299 26.7233 13.7328C26.4722 13.4357 26.0276 13.3983 25.7305 13.6496C20.8815 17.7487 14.6014 21.0064 7.06465 23.3323C6.28199 23.5738 5.82275 24.3329 5.97267 25.1372C6.11517 25.902 6.75739 26.4299 7.52304 26.4299Z" fill="#3F457A"/>
</g>
<defs>
<clipPath id="clip0_4_351">
<rect width="48" height="48" fill="white"/>
</clipPath>
</defs>
</svg>
