<svg width="48" height="48" viewBox="0 0 48 48" fill="none" xmlns="http://www.w3.org/2000/svg">
<path d="M46.9358 6.15098C46.2499 5.48348 45.343 5.13013 44.3861 5.15667C42.7378 5.20185 41.3583 6.43401 41.0387 8.02607C39.4014 8.32523 38.1562 9.7611 38.1562 11.4834V20.3958C38.1562 20.7842 38.471 21.0989 38.8594 21.0989C39.2477 21.0989 39.5625 20.7842 39.5625 20.3958V11.4834C39.5625 10.5668 40.1504 9.7852 40.9688 9.49495V23.209C39.5931 22.1844 37.5915 22.3169 36.3321 23.5763L26.5566 33.3519C25.3614 34.5471 24.7031 36.1363 24.7031 37.8265V47.2959C24.7031 47.6843 25.0179 47.999 25.4062 47.999H41.2031C41.4116 47.999 41.6093 47.9065 41.7429 47.7464C41.8766 47.5864 41.9322 47.3753 41.8949 47.1702L41.0051 42.276L47.3983 31.7186C47.4047 31.7081 47.4109 31.6972 47.4167 31.6863C47.7983 30.9739 48 30.1702 48 29.3622V8.67088C48 7.7136 47.6221 6.81867 46.9358 6.15098ZM46.5938 29.3621C46.5938 29.9335 46.4526 30.5017 46.1854 31.0067L39.6642 41.7754C39.5752 41.9223 39.5431 42.0965 39.5738 42.2654L40.3607 46.5928H26.1094V37.8265C26.1094 36.5118 26.6213 35.2758 27.551 34.3463L37.3265 24.5707C38.1502 23.7469 39.4858 23.7469 40.3095 24.5707C41.1332 25.3945 41.1333 26.73 40.3095 27.5537L30.534 37.3293C30.2595 37.6039 30.2594 38.049 30.534 38.3237C30.8086 38.5981 31.2537 38.5983 31.5284 38.3237L41.3453 28.5068C42.0138 27.8383 42.3786 26.9522 42.3749 26.0083V8.72938C42.3749 7.56548 43.2944 6.59338 44.4245 6.56235C45.0002 6.54585 45.5434 6.75848 45.955 7.15888C46.367 7.55957 46.5938 8.09648 46.5938 8.67088V29.3621Z" fill="#3F457A"/>
<path d="M21.4435 33.352L11.6679 23.5764C10.4084 22.3169 8.40694 22.1845 7.03125 23.2091V9.49503C7.84959 9.78528 8.4375 10.5669 8.4375 11.4835V20.3959C8.4375 20.7843 8.75222 21.099 9.14062 21.099C9.52903 21.099 9.84375 20.7843 9.84375 20.3959V11.4835C9.84375 9.76119 8.59856 8.32531 6.96141 8.02606C6.64172 6.434 5.26219 5.20184 3.61397 5.15666C2.65706 5.13022 1.75022 5.48347 1.06425 6.15097C0.377906 6.81875 0 7.71369 0 8.67097V29.3622C0 30.1702 0.20175 30.9739 0.583313 31.6863C0.589219 31.6972 0.595313 31.708 0.601688 31.7186L6.99487 42.276L6.10509 47.1702C6.06778 47.3754 6.12337 47.5864 6.25706 47.7464C6.39066 47.9065 6.58838 47.999 6.79688 47.999H22.5938C22.9822 47.999 23.2969 47.6842 23.2969 47.2959V37.8265C23.2969 36.1363 22.6387 34.5472 21.4435 33.352ZM21.8906 46.5928H7.63941L8.42625 42.2655C8.457 42.0966 8.42484 41.9224 8.33587 41.7755L1.81463 31.0068C1.54744 30.5018 1.40625 29.9336 1.40625 29.3622V8.67097C1.40625 8.09656 1.63303 7.55966 2.04478 7.15897C2.45644 6.75856 2.99972 6.54594 3.57534 6.56244C4.7055 6.59347 5.625 7.56556 5.625 8.72947V26.0083C5.62134 26.9523 5.98612 27.8384 6.65456 28.5069L16.4715 38.3238C16.7463 38.5984 17.1914 38.5982 17.4659 38.3238C17.7405 38.0491 17.7405 37.604 17.4659 37.3294L7.6905 27.5538C6.86672 26.73 6.86672 25.3946 7.6905 24.5708C8.51428 23.747 9.84984 23.747 10.6735 24.5708L20.449 34.3464C21.3787 35.2759 21.8906 36.5119 21.8906 37.8266V46.5928Z" fill="#3F457A"/>
<path d="M24 10.6396C22.8368 10.6396 21.8906 11.586 21.8906 12.749C21.8906 13.9121 22.8368 14.8584 24 14.8584C25.1631 14.8584 26.1094 13.9121 26.1094 12.749C26.1094 11.586 25.1631 10.6396 24 10.6396ZM24 13.4521C23.6122 13.4521 23.2969 13.1368 23.2969 12.749C23.2969 12.3613 23.6122 12.0459 24 12.0459C24.3877 12.0459 24.7031 12.3613 24.7031 12.749C24.7031 13.1368 24.3877 13.4521 24 13.4521Z" fill="#3F457A"/>
<path d="M26.623 24.8538L27.2972 22.7695C27.7961 22.6054 28.2836 22.4032 28.7534 22.1658L30.7046 23.1632C30.9391 23.2829 31.2213 23.2617 31.4352 23.1078C31.9964 22.704 32.5282 22.2521 33.0156 21.7647C33.5032 21.2769 33.955 20.7453 34.3586 20.1844C34.5126 19.9704 34.5339 19.6884 34.4139 19.4537L33.4166 17.5025C33.654 17.0328 33.8561 16.5453 34.0204 16.0463L36.1045 15.3721C36.3553 15.291 36.5396 15.0765 36.5821 14.8162C36.6935 14.1338 36.7498 13.4384 36.7498 12.7491C36.7498 12.06 36.6934 11.3645 36.5821 10.682C36.5397 10.4219 36.3553 10.2073 36.1045 10.1261L34.0204 9.45186C33.8561 8.95283 33.654 8.46543 33.4165 7.99564L34.4139 6.04443C34.5338 5.80977 34.5125 5.52768 34.3585 5.31383C33.9547 4.75264 33.5029 4.22089 33.0156 3.73349C32.5279 3.2458 31.996 2.79393 31.4351 2.39033C31.2211 2.23658 30.9392 2.21502 30.7044 2.33511L28.7533 3.33243C28.2836 3.09505 27.7961 2.89293 27.2972 2.72868L26.6229 0.64452C26.5418 0.393738 26.3273 0.209426 26.0671 0.166957C24.7024 -0.0556055 23.298 -0.0556992 21.9328 0.166957C21.6727 0.209332 21.4582 0.393738 21.377 0.64452L20.7028 2.72849C20.2038 2.89274 19.7163 3.09486 19.2466 3.33233L17.2954 2.33493C17.0605 2.21483 16.7785 2.2363 16.5647 2.39024C16.0034 2.7943 15.4717 3.24608 14.9844 3.7333C14.497 4.22071 14.0451 4.75246 13.6413 5.31355C13.4873 5.52749 13.466 5.80958 13.586 6.04433L14.5834 7.99555C14.3459 8.46524 14.1438 8.95274 13.9796 9.45177L11.8954 10.126C11.6446 10.2071 11.4603 10.4216 11.4178 10.6819C11.3065 11.3643 11.2501 12.0597 11.2501 12.749C11.2501 13.4381 11.3065 14.1336 11.4178 14.8161C11.4603 15.0762 11.6446 15.2908 11.8954 15.372L13.9795 16.0461C14.1437 16.5452 14.3458 17.0326 14.5833 17.5024L13.586 19.4536C13.4661 19.6882 13.4873 19.9703 13.6413 20.1842C14.045 20.7453 14.4968 21.277 14.9843 21.7645C15.4717 22.2517 16.0034 22.7037 16.5646 23.1076C16.7786 23.2615 17.0606 23.283 17.2953 23.1629L19.2465 22.1656C19.7163 22.4031 20.2037 22.6051 20.7027 22.7692L21.377 24.8535C21.4581 25.1043 21.6727 25.2886 21.9328 25.3311C22.6153 25.4424 23.3107 25.4988 23.9999 25.4988C24.6891 25.4988 25.3846 25.4423 26.0671 25.3311C26.3273 25.2889 26.5418 25.1046 26.623 24.8538ZM22.5802 24.004L21.9284 21.9893C21.8565 21.7672 21.679 21.5952 21.4548 21.5303C20.809 21.3436 20.1821 21.0837 19.5915 20.7579C19.3869 20.645 19.1397 20.641 18.9318 20.7475L17.0455 21.7116C16.6704 21.42 16.3129 21.1045 15.9787 20.7704C15.6445 20.4363 15.3292 20.0786 15.0375 19.7037L16.0017 17.8173C16.108 17.6093 16.1041 17.3622 15.9913 17.1576C15.6654 16.567 15.4056 15.9402 15.2187 15.2944C15.1538 15.07 14.9819 14.8926 14.7597 14.8207L12.7451 14.1691C12.6862 13.6976 12.6563 13.2217 12.6563 12.7491C12.6563 12.2766 12.6862 11.8008 12.7451 11.3293L14.7598 10.6776C14.982 10.6056 15.1539 10.4283 15.2188 10.2039C15.4057 9.55799 15.6656 8.93108 15.9914 8.34055C16.1043 8.13599 16.1081 7.88886 16.0018 7.68083L15.0375 5.79449C15.3291 5.41949 15.6445 5.06202 15.9787 4.7278C16.3128 4.39377 16.6704 4.07821 17.0455 3.78655L18.9319 4.75068C19.1398 4.85708 19.387 4.85314 19.5916 4.74027C20.1821 4.41449 20.809 4.15461 21.4549 3.96768C21.6791 3.90289 21.8566 3.73086 21.9284 3.50868L22.5802 1.49408C23.5232 1.37614 24.477 1.37614 25.4198 1.49408L26.0716 3.50868C26.1435 3.73077 26.3209 3.9028 26.5452 3.96768C27.1911 4.15452 27.818 4.41458 28.4085 4.74027C28.613 4.85314 28.8601 4.85699 29.0682 4.75068L30.9545 3.78655C31.3294 4.07793 31.6869 4.39349 32.0212 4.7278C32.3554 5.06183 32.6708 5.41949 32.9624 5.79449L31.9984 7.68083C31.892 7.88877 31.8959 8.13589 32.0088 8.34046C32.3346 8.93089 32.5944 9.5578 32.7814 10.2038C32.8462 10.4281 33.0182 10.6055 33.2404 10.6774L35.255 11.3291C35.3139 11.8006 35.3437 12.2765 35.3437 12.7491C35.3437 13.2216 35.3139 13.6974 35.255 14.1689L33.2404 14.8206C33.0183 14.8926 32.8462 15.0699 32.7814 15.2943C32.5945 15.9401 32.3345 16.567 32.0088 17.1576C31.8959 17.3621 31.892 17.6092 31.9984 17.8173L32.9625 19.7035C32.671 20.0783 32.3556 20.436 32.0212 20.7703C31.6872 21.1044 31.3296 21.4199 30.9546 21.7115L29.0681 20.7472C28.8602 20.641 28.613 20.6448 28.4085 20.7577C27.8179 21.0836 27.191 21.3435 26.5452 21.5301C26.3209 21.595 26.1435 21.7671 26.0716 21.9891L25.4199 24.0038C24.4769 24.1219 23.5232 24.1219 22.5802 24.004Z" fill="#3F457A"/>
<path d="M21.6845 9.43919C21.8193 9.574 21.9993 9.64506 22.1818 9.64506C22.2844 9.64506 22.3879 9.62266 22.4845 9.57653C23.4336 9.12334 24.5665 9.12334 25.5152 9.57644C25.784 9.70478 26.1046 9.64994 26.3154 9.43909L28.3749 7.3795C28.5241 7.23034 28.5984 7.02203 28.5774 6.81203C28.5562 6.60212 28.442 6.41266 28.2661 6.29622C25.6756 4.57994 22.3269 4.58031 19.7349 6.29725C19.559 6.41378 19.4446 6.60325 19.4235 6.81316C19.4024 7.02306 19.4767 7.23147 19.6259 7.38072L21.6845 9.43919ZM26.7291 7.03675L25.6535 8.11253C24.5816 7.72844 23.4187 7.72862 22.3466 8.11253L21.2719 7.03788C22.9977 6.20922 25.004 6.20866 26.7291 7.03675Z" fill="#3F457A"/>
<path d="M20.8274 14.2643C20.3743 13.3157 20.3743 12.1827 20.8274 11.2337C20.9557 10.9648 20.9007 10.6442 20.69 10.4335L18.6316 8.37503C18.4823 8.22587 18.2736 8.15162 18.0641 8.17272C17.8541 8.19381 17.6647 8.308 17.5482 8.48397C15.8314 11.0759 15.831 14.4246 17.5473 17.0152C17.6638 17.1911 17.8532 17.3054 18.0631 17.3265C18.0866 17.3287 18.11 17.3299 18.1334 17.3299C18.3189 17.3299 18.4981 17.2565 18.6305 17.1241L20.69 15.0646C20.9008 14.8538 20.9558 14.5332 20.8274 14.2643ZM19.3635 14.4025L18.2878 15.4782C17.4597 13.753 17.46 11.7469 18.2888 10.021L19.3635 11.0957C18.9797 12.1677 18.9797 13.3307 19.3635 14.4025Z" fill="#3F457A"/>
<path d="M27.1726 11.2338C27.6257 12.1824 27.6257 13.3154 27.1725 14.2644C27.0441 14.5333 27.0992 14.8538 27.3098 15.0646L29.3683 17.1231C29.5009 17.2555 29.6799 17.3289 29.8655 17.3289C29.8889 17.3289 29.9123 17.3277 29.9359 17.3254C30.1458 17.3043 30.3352 17.1901 30.4518 17.0141C32.1686 14.4222 32.1691 11.0735 30.4528 8.48286C30.3364 8.30699 30.1469 8.19271 29.937 8.17161C29.7266 8.15146 29.5187 8.22486 29.3695 8.37402L27.3099 10.4335C27.0992 10.6443 27.0441 10.9649 27.1726 11.2338ZM28.6365 11.0956L29.7123 10.0199C30.5404 11.7451 30.54 13.7511 29.7111 15.4771L28.6365 14.4024C29.0203 13.3305 29.0203 12.1674 28.6365 11.0956Z" fill="#3F457A"/>
<path d="M28.5764 18.6848C28.5975 18.4749 28.5232 18.2665 28.374 18.1172L26.3155 16.0588C26.1047 15.848 25.7839 15.7931 25.5154 15.9214C24.5664 16.3746 23.4334 16.3745 22.4846 15.9215C22.2158 15.793 21.8951 15.848 21.6845 16.0589L19.625 18.1185C19.4757 18.2676 19.4015 18.4759 19.4226 18.6859C19.4437 18.8959 19.5579 19.0853 19.7338 19.2017C21.0289 20.0597 22.5131 20.4888 23.9979 20.4887C25.4831 20.4886 26.9689 20.0594 28.2651 19.2008C28.441 19.0842 28.5553 18.8948 28.5764 18.6848ZM21.2709 18.4613L22.3466 17.3855C23.4183 17.7693 24.5815 17.7693 25.6534 17.3855L26.7281 18.4602C25.0022 19.2889 22.996 19.2893 21.2709 18.4613Z" fill="#3F457A"/>
</svg>
