<?xml version="1.0" encoding="utf-8"?><svg xmlns="http://www.w3.org/2000/svg" xmlns:xlink="http://www.w3.org/1999/xlink"><symbol viewBox="0 0 25 25" id="arrow-left" xmlns="http://www.w3.org/2000/svg"><path d="M25 12.52H1m0 0L12.52 1M1 12.52l11.52 11.52"/></symbol><symbol viewBox="0 0 22 24" id="basket" xmlns="http://www.w3.org/2000/svg"><g clip-path="url(#ba)"><path d="M10.363 18.443a2.046 2.046 0 00-2.045 2.042 2.046 2.046 0 004.09 0 2.046 2.046 0 00-2.045-2.042zm6.134 0a2.046 2.046 0 00-2.045 2.042 2.046 2.046 0 004.089 0 2.046 2.046 0 00-2.044-2.042zm3.978-8.199L7.413 6.891a.614.614 0 00-.75.73L8.67 16.4h-.786L5.482 5.895a.613.613 0 00-.474-.464l-4.27-.882A.614.614 0 00.489 5.75l3.885.802L6.797 17.15a.613.613 0 00.598.477h12.07a.615.615 0 00.607-.53l.858-6.175a.613.613 0 00-.455-.678zm-8.14 3.91a.613.613 0 01-1.227 0v-2.696a.613.613 0 011.227 0v2.696zm2.625 0a.613.613 0 01-1.227 0v-1.88a.613.613 0 011.227 0v1.88zm2.625 0a.613.613 0 01-1.227 0v-1.226a.613.613 0 011.227 0v1.226z"/></g><path fill-rule="evenodd" clip-rule="evenodd" d="M16.268 4.568a2.996 2.996 0 00-1.693-.523c-.627 0-1.21.193-1.693.523-.28-.843-.492-1.752-.492-2.383C12.39.98 13.37 0 14.575 0s2.185.98 2.185 2.185c0 .631-.212 1.54-.492 2.383zm-4.722 2.274l.024.006v-.011l-.024.005zm4.972 1.217c-1.333-.33-2.766-.681-4.129-1.013a2.185 2.185 0 114.129 1.013zm4.436 1.103c-.866-.217-2.155-.538-3.618-.9a2.995 2.995 0 00.243-1.425c.87.18 1.762.45 2.308.765.596.344.969.928 1.067 1.56zM9.869 6.439c-.36-.086-.706-.167-1.03-.243a2.19 2.19 0 01-.376-2.667 2.188 2.188 0 013.147-.7c.098.738.338 1.599.61 2.353a3.01 3.01 0 00-.449.774c-.628.113-1.305.278-1.902.483zm10.124.075a3.43 3.43 0 01-.217.114c-.696-.295-1.587-.526-2.397-.672a3.01 3.01 0 00-.449-.774c.262-.727.494-1.553.599-2.273.095-.067.189-.128.278-.18a2.188 2.188 0 012.986.8 2.188 2.188 0 01-.8 2.985z"/><defs><clipPath id="ba"><path transform="translate(0 3.064)" d="M0 0h20.936v20.936H0z"/></clipPath></defs></symbol><symbol viewBox="0 0 344.96 344.96" id="check" xmlns="http://www.w3.org/2000/svg"><g data-name="Слой 2"><path class="ccls-1" d="M321.85 86.24l-40-23.11-23.1-40H212.5L172.48 0l-40 23.11H86.24l-23.11 40-40 23.1v46.21L0 172.48l23.11 40v46.21l40 23.11 23.11 40h46.21l40 23.1 40-23.11h46.21l23.11-40 40-23.11V212.5l23.11-40-23.11-40V86.24zM156.91 243.07a16.79 16.79 0 01-23.34 0l-50.45-50.44a16.19 16.19 0 010-22.89l13.35-13.35a16.19 16.19 0 0122.89 0l25.87 25.87 80.34-80.35a16.19 16.19 0 0122.89 0l13.35 13.35a16.19 16.19 0 010 22.89z" data-name="Capa 1"/></g></symbol><symbol viewBox="0 0 8 12" id="chevron-left" xmlns="http://www.w3.org/2000/svg"><path d="M6.8 1.8L2.6 6l4.2 4.2"/></symbol><symbol viewBox="0 0 8 12" id="chevron-right" xmlns="http://www.w3.org/2000/svg"><path d="M1.4 1.8L5.6 6l-4.2 4.2"/></symbol><symbol viewBox="0 0 48 48" id="coat-of-arms" xmlns="http://www.w3.org/2000/svg"><g clip-path="url(#fa)"><path d="M15.02 12.68h-1.11a.703.703 0 000 1.407h1.11a.703.703 0 000-1.406zm18.662 1.407h1.112a.703.703 0 000-1.406h-1.112a.703.703 0 000 1.406z"/><path d="M47.998 21.063c-.055-1.516-1.357-2.75-2.903-2.75h-8.359c-.761 0-1.478.297-2.017.836a2.834 2.834 0 00-.836 2.017c0 .706.26 1.384.733 1.907.615.685.672 1.844.126 2.535a2.532 2.532 0 01-2.386.954v-.935c0-1.426-.95-2.633-2.25-3.024v-1.371c0-2.239 1.82-4.06 4.058-4.06.96 0 1.829-.4 2.448-1.041.025-.005.053-.008.084-.012a2.325 2.325 0 012.139.9.703.703 0 001.207-.149c.256-.6.347-1.262.266-1.915a3.733 3.733 0 00-3.439-3.252 3.401 3.401 0 00-2.705-1.34h-7.241a1.864 1.864 0 00-1.317 3.18c.156.155.335.28.53.37A10.84 10.84 0 0024 17.386a10.841 10.841 0 00-2.135-3.472 1.85 1.85 0 001.075-1.688 1.864 1.864 0 00-1.863-1.861h-7.241a3.4 3.4 0 00-2.704 1.339 3.733 3.733 0 00-3.45 3.253c-.081.652.01 1.314.266 1.914a.703.703 0 001.207.15 2.326 2.326 0 012.235-.887c.62.64 1.487 1.04 2.446 1.04a4.063 4.063 0 014.058 4.059v1.37a3.163 3.163 0 00-2.25 3.024v.937a2.53 2.53 0 01-2.387-.954c-.547-.692-.49-1.851.126-2.535a2.845 2.845 0 00.733-1.908c0-.762-.297-1.478-.836-2.017a2.833 2.833 0 00-2.017-.836H8.277a.703.703 0 000 1.407h2.987c.386 0 .749.15 1.023.424a1.442 1.442 0 01.052 1.99c-1.085 1.206-1.163 3.12-.176 4.356l.01.013.01.012.01.013a3.919 3.919 0 003.452 1.453v4.087c-.323-.012-.662-.055-.998-.058a3.684 3.684 0 00-2.998 1.546 1.445 1.445 0 01-2.013.396c-.657-.443-.82-1.362-.363-2.047l.4-.6a.703.703 0 00-.975-.976l-1.1.734a1.445 1.445 0 01-2.016-.415c-.43-.66-.228-1.566.451-2.019l.776-.517a.703.703 0 00-.56-1.267l-2.116.529a1.455 1.455 0 01-1.764-1.09c-.17-.758.327-1.533 1.107-1.728l2.23-.558a.703.703 0 00-.17-1.385H2.853c-.396 0-.766-.157-1.041-.443a1.436 1.436 0 01-.405-1.056c.028-.769.7-1.394 1.498-1.394h2.56a.703.703 0 000-1.407h-2.56c-1.572 0-2.847 1.208-2.903 2.75A2.831 2.831 0 00.8 23.148a2.84 2.84 0 001.092.707c-.746.674-1.124 1.711-.896 2.735a2.87 2.87 0 002.782 2.235c.128 0 .257-.009.386-.026a2.841 2.841 0 00.24 2.618 2.847 2.847 0 003.209 1.177 2.845 2.845 0 001.236 2.524 2.849 2.849 0 003.963-.769 2.275 2.275 0 011.835-.932c.337.01.678.049.998.06v.136c0 .207.015.412.04.614a3.72 3.72 0 00-2.758 3.601v2.431c0 1.068.76 1.972 1.757 2.164v.51l-2.781.694a2.652 2.652 0 00-2.742-.844l-2.04-3.404c.246-.32.394-.72.394-1.155 0-1.05-.855-1.905-1.905-1.905a1.908 1.908 0 00-1.906 1.905c0 1.051.855 1.906 1.906 1.906.104 0 .206-.01.306-.027l2.039 3.403a2.642 2.642 0 00-.738 1.837c0 .709.276 1.376.778 1.879a2.64 2.64 0 001.88.778 2.64 2.64 0 001.453-.435c.068-.009.136-.022.202-.039l5.447-1.36a1.842 1.842 0 001.4-1.791v-1.95a2.14 2.14 0 001.129-.595c.406-.407.63-.948.63-1.523v-1.862c.149.013.3.02.45.02.237 0 .466.031.686.088l-1.994 6.608a2.204 2.204 0 003.646 2.214L24 46.324l1.078 1.05a2.203 2.203 0 003.645-2.215l-1.994-6.607c.22-.057.449-.087.684-.087.226 0 .45-.016.67-.045v1.886a2.147 2.147 0 001.76 2.117v1.95c0 .85.575 1.587 1.398 1.792l5.23 1.306a2.654 2.654 0 004.151-1.434 3.4 3.4 0 002.201-.995 3.403 3.403 0 001.004-2.421c0-.916-.357-1.776-1.003-2.422a3.395 3.395 0 00-1.72-.931v-.81h.469a.703.703 0 100-1.406h-.468v-.504a.703.703 0 10-1.406 0v.504h-.468a.703.703 0 100 1.406h.468v.81a3.431 3.431 0 00-2.709 3.644 2.673 2.673 0 00-.907.656l-2.548-.636v-.51c.997-.191 1.758-1.095 1.758-2.163v-2.431c0-1.797-1.277-3.3-2.97-3.652.021-.187.033-.375.033-.566v-.134c.32-.011.66-.05.997-.06.725 0 1.41.348 1.836.933a2.849 2.849 0 003.961.77 2.846 2.846 0 001.237-2.526 2.847 2.847 0 003.21-1.178c.52-.8.578-1.778.24-2.617.128.018.257.027.385.027a2.87 2.87 0 002.782-2.235c.228-1.024-.15-2.061-.896-2.735a2.84 2.84 0 001.092-.708 2.833 2.833 0 00.798-2.084zm-9.085-5.932c.004.036.008.072.01.108a3.746 3.746 0 00-1.49-.517 3.394 3.394 0 00.103-1.427 2.324 2.324 0 011.377 1.836zm-10.944-1.044h2.197a.703.703 0 000-1.406h-3.243a.452.452 0 01-.456-.455c0-.252.205-.456.456-.456h7.242a2 2 0 011.998 1.998 2.001 2.001 0 01-1.998 1.998 5.471 5.471 0 00-5.465 5.466v1.237h-3.996v-1.237a9.44 9.44 0 013.265-7.145zM9.068 15.239l.01-.108a2.324 2.324 0 011.388-1.84 3.414 3.414 0 00.103 1.43 3.745 3.745 0 00-1.501.518zm4.769.527a2.001 2.001 0 01-1.999-1.998 2 2 0 011.999-1.998h7.242a.456.456 0 010 .91h-3.243a.703.703 0 000 1.407h2.196a9.437 9.437 0 013.266 7.145v1.237H19.3v-1.237a5.471 5.471 0 00-5.464-5.466zM5.11 38.223a.5.5 0 111 .002.5.5 0 01-1-.002zm11.527 6.578l-5.449 1.36a.438.438 0 01-.108.014.703.703 0 00-.434.15 1.237 1.237 0 01-.771.268c-.335 0-.65-.13-.885-.366a1.246 1.246 0 01-.366-.885 1.245 1.245 0 011.25-1.25c.464 0 .887.254 1.105.664.152.285.478.43.792.352l3.787-.945a.703.703 0 00.532-.683v-1.272a2.16 2.16 0 00.442-.31c.132.12.28.223.439.308v2.168a.439.439 0 01-.334.427zm2.092-4.495a.746.746 0 01-.748.748.749.749 0 01-.747-.748.703.703 0 00-1.406 0c0 .202-.08.392-.224.533a.741.741 0 01-.538.215c-.404-.007-.733-.364-.733-.796v-2.43c0-1.079.729-1.986 1.73-2.247a4.816 4.816 0 001.04 1.485 4.923 4.923 0 001.626 1.048v2.192zm8.525 5.965a.8.8 0 01-1.195.096l-1.567-1.528a.703.703 0 00-.982 0l-1.567 1.527a.796.796 0 01-1.319-.8l1.898-6.289c.33.336.576.76.696 1.242a.806.806 0 001.565 0c.12-.483.366-.906.696-1.242l1.898 6.289a.79.79 0 01-.123.705zm.158-9.213A4.11 4.11 0 0024 38.87a4.113 4.113 0 00-3.413-1.81c-1.983-.002-3.537-1.515-3.537-3.447v-7.986c0-.966.786-1.751 1.752-1.751h10.395c.966 0 1.752.786 1.752 1.752v7.982c0 1.933-1.554 3.448-3.538 3.45zm12.99 3.543c.54 0 1.046.21 1.427.593.382.38.592.887.592 1.427 0 .539-.21 1.045-.592 1.427-.33.33-.754.53-1.212.58a2.65 2.65 0 00-2.23-1.922 2.021 2.021 0 012.015-2.105zm-4.204 4.445a.703.703 0 00.779-.33 1.253 1.253 0 011.08-.624 1.246 1.246 0 011.25 1.25 1.246 1.246 0 01-1.25 1.25 1.23 1.23 0 01-.81-.3.704.704 0 00-.287-.148L31.58 44.8a.438.438 0 01-.333-.426v-2.168c.16-.085.308-.188.44-.308.135.123.283.225.44.31v1.272c0 .323.22.604.533.682l3.537.884zm-2.31-7.218v2.43c0 .432-.33.789-.734.796a.75.75 0 01-.762-.748.703.703 0 10-1.406 0 .749.749 0 01-1.497 0v-2.285a4.926 4.926 0 001.408-.957c.457-.443.813-.96 1.06-1.526a2.326 2.326 0 011.93 2.29zm12.3-15.658a1.435 1.435 0 01-1.041.443h-2.683a.703.703 0 00-.17 1.385l2.23.557c.78.196 1.276.97 1.108 1.729a1.456 1.456 0 01-1.41 1.134c-.117 0-.236-.015-.353-.044l-2.118-.53a.703.703 0 00-.56 1.268l.776.517c.679.453.881 1.359.452 2.02a1.446 1.446 0 01-2.016.415l-1.101-.735a.703.703 0 00-.975.976l.4.6c.457.685.294 1.604-.364 2.048a1.445 1.445 0 01-2.027-.417 3.684 3.684 0 00-2.983-1.526c-.336.003-.674.046-.997.058V27.98a3.922 3.922 0 003.461-1.466l.01-.012a.667.667 0 00.01-.012c.987-1.237.91-3.151-.176-4.359a1.44 1.44 0 01.053-1.988 1.437 1.437 0 011.022-.424h8.36c.797 0 1.47.625 1.497 1.393.014.397-.13.772-.405 1.057z"/><path d="M30.012 33.072a.703.703 0 10-1.406 0v.538c0 .62-.526 1.105-1.196 1.105a6.414 6.414 0 00-3.41.97 6.417 6.417 0 00-3.41-.97c-.681 0-1.195-.475-1.195-1.102v-7.394h9.21v4.04a.703.703 0 101.407 0v-4.632a.815.815 0 00-.814-.814H18.802a.814.814 0 00-.813.814v7.986c0 1.405 1.142 2.507 2.6 2.508a5.03 5.03 0 012.995.98.702.702 0 00.833 0 5.02 5.02 0 012.993-.98c1.46-.001 2.602-1.104 2.602-2.511v-.538zM18.544 9.427h10.913a.703.703 0 100-1.407h-.223l.323-1.346a3.632 3.632 0 00-.683-3.114 3.632 3.632 0 00-2.869-1.392h-1.301V.704a.703.703 0 10-1.406 0v1.464h-1.301a3.632 3.632 0 00-2.87 1.392 3.633 3.633 0 00-.682 3.115l.323 1.346h-.224a.703.703 0 000 1.406zm6.636-5.852l-.717 4.446h-.925l-.716-4.447h2.358zm2.59.855c.428.544.582 1.243.42 1.916l-.402 1.675h-1.9l.703-4.369c.462.124.874.392 1.179.778zm-7.958 1.916a2.234 2.234 0 01.42-1.916 2.233 2.233 0 011.178-.778l.704 4.369h-1.9l-.402-1.675z"/></g><defs><clipPath id="fa"><path d="M0 0h48v48H0z"/></clipPath></defs></symbol><symbol viewBox="0 0 16 17" id="download" xmlns="http://www.w3.org/2000/svg"><g clip-path="url(#ga)"><path d="M16 15.5a1 1 0 01-1 1H1a1 1 0 110-2h14a1 1 0 011 1zm-8.707-3.168a.997.997 0 001.414 0L12.25 8.79a1 1 0 00-1.414-1.414L9 9.21V1.5a1 1 0 00-2 0v7.71L5.164 7.376A1 1 0 103.75 8.789l3.543 3.543z"/></g><defs><clipPath id="ga"><path transform="translate(0 .5)" d="M0 0h16v16H0z"/></clipPath></defs></symbol><symbol viewBox="0 0 24 24" id="fb" xmlns="http://www.w3.org/2000/svg"><path d="M13.397 20.997v-8.196h2.765l.411-3.209h-3.176V7.548c0-.926.258-1.56 1.587-1.56h1.684v-2.86A22.108 22.108 0 0014.201 3c-2.444 0-4.122 1.492-4.122 4.231v2.355H7.332v3.21h2.753v8.201h3.312z"/></symbol><symbol viewBox="0 0 24 24" id="instagram" xmlns="http://www.w3.org/2000/svg"><path d="M11.999 7.377a4.624 4.624 0 100 9.248 4.624 4.624 0 000-9.248zm0 7.627a3.004 3.004 0 110-6.008 3.004 3.004 0 010 6.008zm4.807-6.719a1.078 1.078 0 100-2.156 1.078 1.078 0 000 2.156z"/><path d="M20.533 6.11A4.605 4.605 0 0017.9 3.48a6.607 6.607 0 00-2.186-.42c-.963-.042-1.268-.054-3.71-.054s-2.755 0-3.71.054a6.554 6.554 0 00-2.184.42 4.6 4.6 0 00-2.633 2.63 6.585 6.585 0 00-.419 2.186c-.043.962-.056 1.267-.056 3.71 0 2.442 0 2.753.056 3.71.015.748.156 1.486.419 2.187a4.61 4.61 0 002.634 2.632 6.583 6.583 0 002.185.45c.963.042 1.268.055 3.71.055s2.755 0 3.71-.055a6.616 6.616 0 002.186-.42 4.613 4.613 0 002.633-2.632c.263-.7.404-1.438.419-2.186.043-.962.056-1.267.056-3.71s0-2.753-.056-3.71a6.583 6.583 0 00-.421-2.217zm-1.218 9.533a5.046 5.046 0 01-.311 1.688 2.987 2.987 0 01-1.712 1.71c-.535.2-1.1.305-1.67.312-.95.044-1.218.055-3.654.055-2.438 0-2.687 0-3.655-.055a4.961 4.961 0 01-1.67-.311 2.984 2.984 0 01-1.718-1.711 5.08 5.08 0 01-.311-1.67c-.043-.95-.053-1.217-.053-3.653 0-2.437 0-2.686.053-3.655a5.038 5.038 0 01.311-1.687c.305-.79.93-1.41 1.719-1.712a5.01 5.01 0 011.669-.311c.95-.043 1.218-.055 3.655-.055s2.687 0 3.654.055a4.96 4.96 0 011.67.31 2.99 2.99 0 011.712 1.713 5.06 5.06 0 01.311 1.669c.043.95.054 1.218.054 3.655 0 2.436 0 2.698-.043 3.654h-.011v-.001z"/></symbol><symbol viewBox="0 0 24 24" id="lock" xmlns="http://www.w3.org/2000/svg"><path d="M20.5 9H19V7c0-3.86-3.14-7-7-7S5 3.14 5 7v2H3.5a.5.5 0 00-.5.5V22c0 1.103.897 2 2 2h14c1.103 0 2-.897 2-2V9.5a.5.5 0 00-.5-.5zm-7.003 10.445A.501.501 0 0113 20h-2a.5.5 0 01-.497-.555l.315-2.837A1.978 1.978 0 0110 15c0-1.103.897-2 2-2s2 .897 2 2c0 .646-.306 1.236-.818 1.608l.315 2.837zM16 9H8V7c0-2.206 1.794-4 4-4s4 1.794 4 4v2z"/></symbol><symbol viewBox="0 0 25 24" id="login" xmlns="http://www.w3.org/2000/svg"><path d="M14.504 0c2.022 0 3.786.403 5.294 1.21 1.507.788 2.664 1.908 3.469 3.359.822 1.433 1.233 3.09 1.233 4.972 0 1.523-.257 2.938-.77 4.246-.498 1.308-1.243 2.356-2.236 3.145-.977.77-2.142 1.155-3.495 1.155-.908 0-1.662-.188-2.261-.564a2.783 2.783 0 01-1.182-1.586 5.048 5.048 0 01-1.85 1.64 5.445 5.445 0 01-2.467.564c-1.268 0-2.27-.394-3.007-1.182-.72-.807-1.079-1.9-1.079-3.28a8.9 8.9 0 01.771-3.681C7.438 8.833 8.149 7.9 9.057 7.203a4.888 4.888 0 013.058-1.048c1.438 0 2.415.537 2.929 1.612l.231-1.424h3.546l-1.13 6.745c-.052.323-.078.61-.078.86 0 .789.335 1.183 1.003 1.183.822 0 1.447-.546 1.875-1.64.446-1.11.669-2.382.669-3.816 0-2.06-.626-3.673-1.876-4.837-1.234-1.165-2.972-1.747-5.216-1.747-1.92 0-3.666.483-5.243 1.451-1.558.968-2.783 2.293-3.674 3.978-.89 1.666-1.336 3.502-1.336 5.51 0 2.167.6 3.851 1.798 5.052 1.217 1.2 2.913 1.8 5.088 1.8 1.696 0 3.212-.322 4.548-.967l.694 2.93C14.265 23.614 12.38 24 10.29 24c-1.953 0-3.674-.394-5.165-1.183a8.31 8.31 0 01-3.417-3.359C.903 18.007.5 16.314.5 14.378c0-2.705.608-5.15 1.824-7.337 1.217-2.203 2.887-3.923 5.011-5.16C9.476.627 11.866 0 14.505 0zm-2.826 14.835c.48 0 .925-.152 1.336-.457a3.087 3.087 0 001.002-1.209 3.71 3.71 0 00.386-1.666c0-.61-.163-1.102-.489-1.478-.325-.395-.77-.592-1.336-.592-.754 0-1.379.34-1.876 1.022-.497.68-.745 1.487-.745 2.418 0 .592.146 1.067.437 1.425.291.358.72.537 1.285.537z"/></symbol><symbol viewBox="0 0 16 16" id="pencil" xmlns="http://www.w3.org/2000/svg"><g clip-path="url(#la)"><path d="M9.88 2.687l-8.803 8.804a.35.35 0 00-.091.161L.01 15.57a.348.348 0 00.336.43.343.343 0 00.084-.01l3.917-.976a.346.346 0 00.16-.092l8.805-8.803-3.431-3.43zm5.613-1.2l-.98-.98c-.655-.655-1.797-.654-2.451 0l-1.2 1.2 3.43 3.431 1.2-1.2A1.72 1.72 0 0016 2.712c0-.462-.18-.898-.507-1.225z"/></g><defs><clipPath id="la"><path d="M0 0h16v16H0z"/></clipPath></defs></symbol><symbol viewBox="0 0 16 16" id="phone-call" xmlns="http://www.w3.org/2000/svg"><g clip-path="url(#ma)"><path d="M.435 11.742L2.668 9.51c.798-.798 2.153-.479 2.472.558.24.718 1.037 1.116 1.755.957 1.595-.399 3.748-2.472 4.146-4.147.24-.718-.239-1.515-.957-1.754-1.036-.32-1.355-1.675-.558-2.472L11.76.419c.638-.559 1.595-.559 2.153 0l1.515 1.515c1.516 1.595-.16 5.821-3.907 9.57-3.748 3.747-7.975 5.502-9.57 3.907L.436 13.896c-.558-.639-.558-1.595 0-2.154z"/></g><defs><clipPath id="ma"><path transform="matrix(-1 0 0 1 16 0)" d="M0 0h16v16H0z"/></clipPath></defs></symbol><symbol viewBox="0 0 16 16" id="pin" xmlns="http://www.w3.org/2000/svg"><g clip-path="url(#na)"><path d="M8 0a6.008 6.008 0 00-6 6c0 4.307 5.59 9.703 5.827 9.93a.247.247 0 00.345 0C8.41 15.703 14 10.307 14 6a6.008 6.008 0 00-6-6zm0 8.75a2.75 2.75 0 110-5.5 2.75 2.75 0 010 5.5z"/></g><defs><clipPath id="na"><path d="M0 0h16v16H0z"/></clipPath></defs></symbol><symbol viewBox="0 0 16 16" id="telegram" xmlns="http://www.w3.org/2000/svg"><path d="M14.629 3.698l-2.012 9.618c-.152.679-.548.848-1.11.528l-3.066-2.29-1.48 1.442c-.163.166-.3.305-.616.305l.22-3.165 5.683-5.204c.247-.223-.054-.347-.384-.123L4.839 9.29l-3.024-.959c-.658-.208-.67-.667.137-.986L13.78 2.727c.548-.208 1.027.124.849.971z"/></symbol><symbol viewBox="0 0 20 20" id="user" xmlns="http://www.w3.org/2000/svg"><path d="M10 0a5.28 5.28 0 00-5.273 5.273A5.28 5.28 0 0010 10.547a5.28 5.28 0 005.273-5.274A5.28 5.28 0 0010 0zm6.561 13.992a7.518 7.518 0 00-5.39-2.273H8.829a7.518 7.518 0 00-5.39 2.273 7.685 7.685 0 00-2.227 5.422c0 .324.262.586.586.586h16.406a.586.586 0 00.586-.586 7.685 7.685 0 00-2.228-5.422z"/></symbol><symbol viewBox="0 0 16 16" id="viber" xmlns="http://www.w3.org/2000/svg"><path d="M8 1.335c-1.071.013-3.374.19-4.662 1.37-.958.948-1.292 2.35-1.331 4.084-.033 1.728-.072 4.973 3.058 5.856v1.346s-.02.538.337.648c.438.14.688-.275 1.105-.72l.778-.879c2.142.178 3.782-.232 3.97-.293.435-.139 2.883-.451 3.283-3.696.41-3.351-.2-5.463-1.301-6.418h-.007c-.332-.306-1.668-1.279-4.652-1.29 0 0-.222-.014-.578-.008zm.037.942a7.02 7.02 0 01.488.011c2.527.007 3.732.767 4.017 1.023.927.794 1.405 2.697 1.055 5.495-.332 2.713-2.317 2.885-2.685 3.002-.156.05-1.6.406-3.42.289 0 0-1.356 1.634-1.78 2.055-.067.074-.146.095-.196.085-.071-.018-.093-.107-.089-.229l.013-2.233c-2.655-.733-2.498-3.5-2.47-4.946.033-1.446.304-2.628 1.113-3.43 1.088-.982 3.043-1.115 3.953-1.122zm.2 1.446a.166.166 0 100 .332 3.136 3.136 0 012.242.883c.606.588.9 1.378.912 2.411 0 .092.074.167.167.167V7.51a.167.167 0 00.168-.165 3.588 3.588 0 00-1.009-2.646c-.66-.645-1.496-.977-2.48-.977zm-2.198.382a.523.523 0 00-.342.067H5.69a2.61 2.61 0 00-.637.523 1.003 1.003 0 00-.256.525.71.71 0 00.026.302l.01.006c.172.504.396.988.67 1.444a8.48 8.48 0 001.29 1.762l.015.022.024.017.015.018.017.015c.532.505 1.127.94 1.769 1.295.734.4 1.18.588 1.447.667v.004c.078.024.15.034.221.034.228-.016.444-.109.613-.262a2.53 2.53 0 00.517-.638v-.004c.128-.241.085-.469-.1-.623-.37-.323-.77-.61-1.195-.857-.285-.155-.574-.061-.69.095l-.25.315c-.129.156-.361.134-.361.134l-.007.004C7.093 8.527 6.63 6.772 6.63 6.772s-.022-.239.139-.36l.312-.252c.15-.122.254-.41.094-.695a7.498 7.498 0 00-.856-1.194.475.475 0 00-.28-.167zm2.486.495c-.221 0-.221.334.003.334A2.098 2.098 0 0110 5.572 1.94 1.94 0 0110.5 7a.168.168 0 00.167.165l.007.009a.169.169 0 00.167-.167c.015-.662-.191-1.218-.595-1.663C9.84 4.9 9.273 4.65 8.549 4.6h-.024zm.274.898c-.228-.006-.236.335-.01.341.55.029.816.306.851.877a.166.166 0 00.165.163h.007a.168.168 0 00.16-.178c-.039-.744-.445-1.164-1.166-1.202H8.8z"/></symbol><symbol viewBox="0 0 24 24" id="vk" xmlns="http://www.w3.org/2000/svg"><path d="M21.579 6.855c.14-.465 0-.806-.662-.806h-2.193c-.558 0-.813.295-.953.619 0 0-1.115 2.719-2.695 4.482-.51.513-.743.675-1.021.675-.139 0-.341-.162-.341-.627V6.855c0-.558-.161-.806-.626-.806H9.642c-.348 0-.558.258-.558.504 0 .528.79.65.871 2.138v3.228c0 .707-.127.836-.407.836-.743 0-2.551-2.73-3.624-5.853-.209-.607-.42-.852-.98-.852H2.752c-.627 0-.752.295-.752.619 0 .582.743 3.462 3.461 7.27 1.812 2.602 4.363 4.012 6.687 4.012 1.393 0 1.565-.313 1.565-.853v-1.966c0-.626.133-.752.574-.752.324 0 .882.164 2.183 1.417 1.486 1.486 1.732 2.153 2.567 2.153h2.192c.626 0 .939-.313.759-.931-.197-.615-.907-1.51-1.849-2.57-.512-.603-1.277-1.253-1.51-1.578-.325-.42-.231-.604 0-.976.001 0 2.672-3.761 2.95-5.04z"/></symbol><symbol viewBox="0 0 16 16" id="whatsapp" xmlns="http://www.w3.org/2000/svg"><path fill-rule="evenodd" clip-rule="evenodd" d="M12.269 3.755A5.947 5.947 0 008.035 2 5.994 5.994 0 002.05 7.985a5.98 5.98 0 00.799 2.992L2 14.077l3.173-.832c.877.477 1.86.728 2.86.728h.002a5.993 5.993 0 005.533-8.276 5.953 5.953 0 00-1.3-1.942zm-4.234 9.208h-.002c-.89 0-1.765-.24-2.532-.694l-.181-.108-1.883.494.502-1.835-.118-.188a4.965 4.965 0 01-.76-2.647 4.982 4.982 0 016.88-4.597c.604.25 1.152.618 1.613 1.081a4.946 4.946 0 011.455 3.52 4.982 4.982 0 01-4.974 4.974zm2.729-3.726c-.15-.075-.885-.436-1.022-.486-.137-.05-.236-.075-.336.074-.1.15-.387.486-.474.586-.087.1-.175.112-.324.038-.15-.075-.631-.233-1.203-.742a4.505 4.505 0 01-.832-1.036c-.087-.15-.009-.231.066-.306.068-.066.15-.174.224-.262.075-.087.1-.149.15-.249.05-.1.025-.187-.013-.262-.037-.075-.337-.811-.461-1.11-.121-.29-.244-.252-.336-.256a6.418 6.418 0 00-.286-.005.55.55 0 00-.4.186c-.137.15-.523.512-.523 1.248s.536 1.447.61 1.547c.075.1 1.055 1.61 2.555 2.258.358.154.636.246.853.315.358.114.684.098.942.06.287-.043.885-.362 1.01-.711.124-.35.124-.649.087-.711-.038-.063-.138-.101-.287-.176z"/></symbol><symbol viewBox="0 0 16 16" id="www" xmlns="http://www.w3.org/2000/svg"><g clip-path="url(#ta)"><path d="M13.657 2.343A7.948 7.948 0 008 0a7.948 7.948 0 00-5.657 2.343A7.948 7.948 0 000 8c0 2.137.832 4.146 2.343 5.657A7.948 7.948 0 008 16a7.947 7.947 0 005.657-2.343A7.947 7.947 0 0016 8a7.947 7.947 0 00-2.343-5.657zm-10.65.664a7.044 7.044 0 012.43-1.59c-.24.299-.465.643-.67 1.03-.24.45-.445.943-.617 1.47a14.451 14.451 0 01-1.637-.362c.154-.19.319-.373.494-.548zM1.945 4.362c.575.184 1.233.34 1.952.463A13.62 13.62 0 003.55 7.53H.954a6.998 6.998 0 01.99-3.169zm-.051 7.19a7 7 0 01-.94-3.083h2.599c.03.917.146 1.804.339 2.631-.733.119-1.408.27-1.998.451zm1.113 1.441a7.27 7.27 0 01-.557-.626c.51-.142 1.08-.262 1.694-.358a9.21 9.21 0 00.622 1.49c.225.421.47.792.735 1.11a7.042 7.042 0 01-2.494-1.616zm4.524 1.948c-.713-.2-1.387-.85-1.936-1.883a8.16 8.16 0 01-.504-1.174 25.736 25.736 0 012.44-.147v3.204zm0-4.143a26.44 26.44 0 00-2.706.172 12.586 12.586 0 01-.334-2.5h3.04v2.328zm0-3.267H4.49c.028-.901.143-1.77.338-2.569.85.106 1.761.17 2.703.19V7.53zm0-3.318a25.353 25.353 0 01-2.436-.163 8.16 8.16 0 01.5-1.163c.549-1.032 1.223-1.683 1.936-1.883v3.209zm6.554.199c.558.943.888 2.006.96 3.119H12.45a13.633 13.633 0 00-.339-2.677c.723-.116 1.39-.265 1.975-.442zm-1.092-1.405c.189.188.365.386.529.59a15.18 15.18 0 01-1.663.348 9.242 9.242 0 00-.625-1.498 6.6 6.6 0 00-.67-1.03c.9.35 1.726.886 2.43 1.59zM8.47 8.469h3.04a12.572 12.572 0 01-.338 2.52 25.99 25.99 0 00-2.702-.188V8.469zm0-.938V5.154c.938-.012 1.852-.07 2.708-.17.192.794.305 1.654.333 2.547H8.47zm0-6.527c.713.2 1.387.85 1.936 1.883.193.363.362.76.507 1.183a25.76 25.76 0 01-2.443.146V1.004zm0 13.937V11.74c.848.017 1.668.072 2.435.161a8.16 8.16 0 01-.5 1.158c-.548 1.033-1.222 1.684-1.935 1.883zm4.524-1.948a7.04 7.04 0 01-2.494 1.615c.264-.317.51-.688.734-1.11a9.21 9.21 0 00.615-1.465c.609.1 1.172.225 1.673.37-.164.205-.34.402-.528.59zm1.088-1.399a14.482 14.482 0 00-1.979-.469c.197-.834.314-1.73.346-2.656h2.598a7.001 7.001 0 01-.964 3.125z"/></g><defs><clipPath id="ta"><path d="M0 0h16v16H0z"/></clipPath></defs></symbol></svg>