<svg width="25" height="24" viewBox="0 0 25 24" fill="none" xmlns="http://www.w3.org/2000/svg">
<path d="M14.5043 0C16.5257 0 18.2901 0.403136 19.7976 1.20941C21.3051 1.99776 22.4615 3.11758 23.2666 4.56887C24.0889 6.00224 24.5 7.65957 24.5 9.54087C24.5 11.0638 24.243 12.4793 23.7291 13.7872C23.2323 15.0952 22.4872 16.1433 21.4936 16.9317C20.5171 17.7021 19.3522 18.0873 17.9989 18.0873C17.091 18.0873 16.3373 17.8992 15.7377 17.523C15.1552 17.1467 14.7612 16.6181 14.5557 15.9373C14.076 16.6361 13.4593 17.1825 12.7056 17.5767C11.9518 17.953 11.1295 18.1411 10.2388 18.1411C8.97109 18.1411 7.96895 17.7469 7.23233 16.9586C6.51285 16.1523 6.1531 15.0594 6.1531 13.6797C6.1531 12.3718 6.41006 11.1445 6.92398 9.99776C7.4379 8.83315 8.14882 7.90146 9.05674 7.20269C9.96467 6.50392 10.9839 6.15454 12.1146 6.15454C13.5535 6.15454 14.53 6.69205 15.0439 7.76708L15.2752 6.34267H18.8212L17.6906 13.0885C17.6392 13.411 17.6135 13.6976 17.6135 13.9485C17.6135 14.7368 17.9475 15.131 18.6156 15.131C19.4379 15.131 20.0632 14.5845 20.4914 13.4916C20.9368 12.3807 21.1595 11.1086 21.1595 9.67525C21.1595 7.61478 20.5343 6.00224 19.2837 4.83763C18.0503 3.67301 16.3116 3.0907 14.0675 3.0907C12.1488 3.0907 10.4015 3.57447 8.82548 4.54199C7.26659 5.50952 6.04176 6.83539 5.15096 8.5196C4.26017 10.1859 3.81477 12.0224 3.81477 14.0291C3.81477 16.1971 4.41435 17.8813 5.61349 19.0817C6.82976 20.2822 8.5257 20.8824 10.7013 20.8824C12.3972 20.8824 13.9133 20.5599 15.2495 19.9149L15.9433 22.8443C14.2645 23.6148 12.3801 24 10.2901 24C8.33726 24 6.61563 23.6058 5.12527 22.8175C3.65203 22.0291 2.51285 20.9093 1.70771 19.458C0.90257 18.0067 0.5 16.3136 0.5 14.3785C0.5 11.673 1.10814 9.22732 2.32441 7.04143C3.54068 4.83763 5.21092 3.11758 7.33512 1.8813C9.47645 0.627099 11.8662 0 14.5043 0ZM11.6777 14.8354C12.1574 14.8354 12.6028 14.6831 13.0139 14.3785C13.4422 14.0739 13.7762 13.6708 14.0161 13.1691C14.273 12.6495 14.4015 12.0941 14.4015 11.5028C14.4015 10.8936 14.2388 10.4009 13.9133 10.0246C13.5878 9.63046 13.1424 9.43337 12.5771 9.43337C11.8233 9.43337 11.1981 9.7738 10.7013 10.4546C10.2045 11.1355 9.9561 11.9418 9.9561 12.8735C9.9561 13.4647 10.1017 13.9395 10.3929 14.2979C10.6842 14.6562 11.1124 14.8354 11.6777 14.8354Z" fill="#3F457A"/>
</svg>
