<svg width="16" height="16" viewBox="0 0 16 16" fill="none" xmlns="http://www.w3.org/2000/svg">
<g clip-path="url(#clip0_96_3764)">
<path d="M9.88086 2.68726L1.07744 11.4913C1.03315 11.5357 1.00117 11.5918 0.985939 11.6521L0.0101637 15.5687C-0.0190245 15.6866 0.0156207 15.8119 0.101662 15.898C0.166765 15.9631 0.255472 15.9991 0.346209 15.9991C0.374001 15.9991 0.402428 15.9957 0.430094 15.9887L4.34665 15.0128C4.40769 14.9976 4.46315 14.9657 4.50744 14.9214L13.3116 6.11802L9.88086 2.68726Z" fill="#3F457A"/>
<path d="M15.4926 1.48706L14.5126 0.507094C13.8577 -0.147864 12.7162 -0.14723 12.062 0.507094L10.8616 1.70749L14.2922 5.13813L15.4926 3.93773C15.8198 3.61069 16 3.17541 16 2.71246C16 2.24951 15.8198 1.81422 15.4926 1.48706Z" fill="#3F457A"/>
</g>
<defs>
<clipPath id="clip0_96_3764">
<rect width="16" height="16" fill="white"/>
</clipPath>
</defs>
</svg>
