<svg width="16" height="16" viewBox="0 0 16 16" fill="none" xmlns="http://www.w3.org/2000/svg">
<g clip-path="url(#clip0_96_3725)">
<path d="M0.435431 11.7424L2.66828 9.50954C3.46572 8.71209 4.82138 9.0311 5.14036 10.0678C5.37959 10.7855 6.17704 11.1842 6.89474 11.0247C8.48963 10.626 10.6427 8.5526 11.0415 6.87797C11.2807 6.16024 10.8022 5.36279 10.0845 5.12359C9.04784 4.80461 8.72887 3.44895 9.52631 2.65151L11.7592 0.418659C12.3971 -0.139553 13.354 -0.139553 13.9123 0.418659L15.4274 1.93381C16.9426 3.5287 15.2679 7.75516 11.5199 11.5032C7.77193 15.2511 3.54547 17.0056 1.95058 15.4106L0.435431 13.8955C-0.122812 13.2575 -0.122812 12.3006 0.435431 11.7424Z" fill="#676767"/>
</g>
<defs>
<clipPath id="clip0_96_3725">
<rect width="16" height="16" fill="white" transform="matrix(-1 0 0 1 16 0)"/>
</clipPath>
</defs>
</svg>
